<svg width="219" height="175" viewBox="0 0 219 175" fill="none" xmlns="http://www.w3.org/2000/svg">
<path d="M51.3782 56.7422C48.977 59.6584 47.4389 63.8205 43.6527 57.0832C39.8596 50.346 56.1666 50.9236 51.3782 56.7422ZM10.1268 66.3399C7.72566 69.2631 6.19442 73.4251 2.40133 66.681C-1.39177 59.9437 14.9153 60.5215 10.1268 66.3399ZM28.2504 73.5155C24.4572 66.7784 40.7643 67.356 35.9759 73.1746C33.5748 76.0977 32.0437 80.2528 28.2504 73.5155ZM-7.44689 76.2369C-4.80218 79.2783 -3.17356 84.4288 -7.29371 84.0947C-11.4211 83.7536 -11.7342 75.2626 -11.7342 75.2626C-11.7064 72.6873 -10.0847 73.1884 -7.44689 76.2369ZM11.8669 85.438C19.126 76.6336 31.1667 101.522 20.6085 98.0215C15.305 96.2676 4.60055 94.2491 11.8669 85.438ZM-10.1474 108.253C-6.85541 109.86 3.48023 117.718 -2.45663 119.096C-8.38647 120.474 -13.4534 109.533 -13.4534 109.533C-14.1145 107.87 -13.5646 106.582 -10.1474 108.253ZM39.9013 1.98153C39.9013 1.98153 36.4213 0.23465 34.5909 1.48743C32.3987 2.99779 30.6863 1.54322 27.9164 5.21806C23.5943 10.953 20.1909 32.1806 21.743 44.5414C23.2881 56.8952 16.8501 48.0563 17.3721 31.2758C17.8941 14.5025 21.9239 3.40837 24.2901 0.0328684C24.2901 0.0328684 19.2234 -0.44035 15.4373 2.20436C8.40066 7.11811 3.20161 5.1484 2.88841 13.2218C2.51959 22.6942 2.36642 60.9461 -1.51721 46.7268C-5.40067 32.5079 -2.16448 10.0343 -0.932579 6.57507C-0.166878 4.41761 -5.64438 4.71694 -12.5415 11.4192C-15.5205 14.3076 -19.4945 14.934 -21.0466 17.2099C-25.1876 23.2999 -18.6105 63.6464 -23.093 52.0513C-27.5681 40.449 -27.5402 25.6105 -27.5402 25.6105C-27.5402 25.6105 -30.5121 25.6105 -34.4723 34.5123C-35.5163 36.8786 -37.8895 38.6186 -38.683 42.015C-41.5923 54.4246 -27.1017 63.0548 -25.1876 71.8453C-23.2737 80.6425 -41.1956 60.1177 -42.3092 52.4896C-42.3092 52.4896 -44.3623 53.1092 -45.3924 58.8093C-45.6917 60.4797 -47.0349 62.4842 -47.0071 64.9339C-46.8819 74.5665 -33.7067 79.6055 -33.4144 84.5609C-33.1151 89.5234 -45.3576 79.9814 -47.4526 74.3507C-47.4526 74.3507 -53.619 75.8819 -48.8793 87.2754C-44.1396 98.6687 -32.2103 105.649 -26.3918 103.367C-20.2881 100.972 -16.6619 100.464 -19.1116 103.819C-19.1116 103.819 -26.1204 111.962 -7.34951 122.493C6.84871 130.462 23.7822 138.458 34.41 134.491C38.8782 132.828 43.8129 133.134 46.2905 130.824C41.7526 128.561 25.8493 123.648 17.031 117.718C-2.5612 104.55 18.0332 109.408 29.6632 116.145C39.4699 121.817 49.7774 133.781 61.2057 120.168C62.9387 118.108 66.9964 117.871 70.0934 112.345C70.0934 112.345 62.1523 113.076 53.7864 109.972C45.4206 106.874 39.3028 98.5434 50.9188 101.453C62.5279 104.355 72.0631 107.369 74.499 100.409C77.3596 92.2169 82.7604 91.9316 82.6351 82.7793C82.6351 82.7793 74.7078 90.0801 59.3753 86.5167C44.0495 82.9531 33.004 76.9747 46.207 77.5732C57.5935 78.0882 85.0503 88.1453 86.1082 67.3421C86.2614 64.3633 89.6091 61.3635 88.2656 55.6495C88.2656 55.6495 85.4749 60.8834 79.5032 61.9274C73.5316 62.9714 60.1756 58.3361 69.467 56.1785C78.7655 54.0208 87.7854 52.4757 85.9133 43.1078C84.0341 33.7466 82.67 27.4339 84.0202 22.6733C85.3634 17.9128 83.6165 18.5809 80.3663 18.7759C77.123 18.9708 70.4066 13.3124 68.0263 12.6372C65.6459 11.962 57.4821 22.6456 52.7215 30.0997C47.9609 37.5538 47.2857 31.1367 50.1185 22.1722C52.9512 13.2148 63.6277 7.90453 63.6277 7.90453C63.6277 7.90453 56.0622 3.65208 49.4225 4.67518C42.7897 5.70514 35.3218 30.9487 34.6744 36.1409C34.0271 41.326 30.589 34.5471 31.8835 21.9008C33.1781 9.2547 39.9013 1.98153 39.9013 1.98153Z" fill="#008563"/>
<path d="M80.2271 23.0703C80.2271 23.0703 79.5102 23.3974 78.167 24.0167C76.8306 24.6502 74.8679 25.5897 72.4318 26.8843C69.9822 28.1718 67.045 29.8004 63.7251 31.7561C60.4259 33.7467 56.7025 36.0017 52.8327 38.7649C48.9561 41.5001 44.801 44.5554 40.6669 48.126C39.609 48.9889 38.5859 49.9217 37.5558 50.8681C36.5258 51.8217 35.4469 52.7402 34.4447 53.7774C33.4426 54.7865 32.4194 55.8096 31.3892 56.8467C30.3731 57.8907 29.35 58.9347 28.2922 59.916C24.0468 63.9318 19.3139 67.8016 14.5254 71.734C9.70922 75.6593 4.81635 79.6404 -0.0765228 83.6284C-9.76455 91.7438 -19.2301 100.179 -27.4706 108.754C-35.746 117.287 -42.5806 126.126 -47.5569 134.241C-50.0833 138.285 -51.9904 142.224 -53.5702 145.746C-54.301 147.541 -54.983 149.219 -55.5538 150.785C-56.0619 152.378 -56.5769 153.826 -56.9528 155.155C-57.2938 156.499 -57.6 157.696 -57.8716 158.733C-58.115 159.784 -58.2334 160.688 -58.3796 161.419C-58.644 162.874 -58.7763 163.647 -58.7763 163.647C-58.7763 163.647 -58.5952 162.881 -58.2473 161.447C-58.0595 160.73 -57.8855 159.832 -57.5791 158.809C-57.266 157.786 -56.8971 156.617 -56.4866 155.301C-56.0549 153.993 -55.4773 152.58 -54.9067 151.028C-54.2731 149.504 -53.5216 147.868 -52.7282 146.135C-51.8234 144.451 -50.9811 142.593 -49.8607 140.762C-49.3109 139.844 -48.7958 138.876 -48.2112 137.916C-47.6056 136.962 -46.9931 135.988 -46.3669 134.993C-43.7847 131.067 -40.778 126.947 -37.3328 122.799C-33.8808 118.658 -30.0181 114.482 -25.9116 110.264C-17.6781 101.843 -8.19857 93.5603 1.51735 85.5493C6.37531 81.5195 11.2264 77.4968 16.008 73.5296C20.7755 69.5346 25.4803 65.6301 29.7955 61.4681C30.8951 60.431 31.9182 59.3732 32.9206 58.3222C33.9158 57.2782 34.9111 56.2412 35.8922 55.2181C36.8459 54.1809 37.883 53.2414 38.8712 52.2811C39.8596 51.3204 40.8409 50.367 41.864 49.49C45.845 45.857 49.8818 42.725 53.654 39.8992C57.4334 37.0875 61.0246 34.6724 64.2123 32.5427C67.4347 30.4547 70.2813 28.7008 72.6616 27.3087C75.0488 25.9238 76.9281 24.8381 78.2295 24.142C79.5311 23.4391 80.2271 23.0703 80.2271 23.0703Z" fill="#00AE85"/>
<path d="M32.3638 57.3616C32.3638 57.3616 32.6908 57.9809 33.4981 58.8928C34.2987 59.8045 35.5931 60.9876 37.3331 62.15C38.1961 62.7417 39.1706 63.3193 40.2354 63.876C41.3003 64.4189 42.4417 64.9618 43.6597 65.4282C46.0888 66.3956 48.6917 67.2029 51.3575 67.9616C52.6936 68.3164 54.0299 68.6436 55.3594 68.9289C56.6887 69.2353 58.0109 69.4371 59.2916 69.6389C61.8598 70.0147 64.2819 70.1887 66.3628 70.1747C68.4369 70.1747 70.1631 70.0008 71.3532 69.8199C71.9517 69.7503 72.4111 69.625 72.7313 69.5694C73.0445 69.5067 73.2115 69.4788 73.2115 69.4788C73.2115 69.4788 72.5294 69.4648 71.3324 69.4509C70.7337 69.4301 70.0099 69.4022 69.1816 69.3465C68.3604 69.3048 67.4277 69.2004 66.4186 69.103C64.4003 68.8733 62.0618 68.5113 59.5769 68.0102C57.0924 67.4953 54.4615 66.8827 51.8516 66.1519C50.543 65.8108 49.2346 65.435 47.9609 65.0523C46.6803 64.6556 45.4066 64.2936 44.2235 63.8831C41.8362 63.0826 39.6647 62.1709 37.883 61.2313C36.0942 60.2917 34.6814 59.366 33.7559 58.6214C32.8161 57.8906 32.3638 57.3616 32.3638 57.3616Z" fill="#00AE85"/>
<path d="M44.5854 45.9613C44.5854 45.9613 44.3069 45.4811 43.9867 44.5971C43.8129 44.1586 43.6667 43.6019 43.4856 42.9755C43.3535 42.3352 43.1726 41.6253 43.075 40.8319C42.9359 40.0523 42.9149 39.1824 42.8245 38.2775C42.8245 37.3588 42.7618 36.4054 42.8315 35.41C42.8522 34.9159 42.8801 34.4078 42.908 33.8998C42.9428 33.3847 43.0333 32.8697 43.075 32.3547C43.1586 31.3107 43.3465 30.2597 43.5483 29.2087C43.6876 28.1579 43.952 27.1139 44.1887 26.0908C44.4113 25.0607 44.6619 24.0514 44.9472 23.0841C45.2327 22.1166 45.4345 21.1562 45.7477 20.2862C46.033 19.4023 46.2905 18.5601 46.5202 17.7807C46.7429 16.9941 47.0145 16.2982 47.2231 15.6718C47.4319 15.0384 47.6128 14.4887 47.759 14.0362C48.0376 13.1175 48.1976 12.5886 48.1976 12.5886C48.1976 12.5886 47.9191 13.0548 47.4249 13.883C47.1815 14.3006 46.896 14.8017 46.562 15.3863C46.2417 15.971 45.845 16.6182 45.5248 17.3769C45.1769 18.1286 44.801 18.9429 44.4252 19.8128C44.0216 20.6689 43.7085 21.6225 43.3674 22.5969C43.0333 23.5782 42.6645 24.5875 42.4278 25.6523C42.1632 26.7102 41.864 27.7821 41.704 28.8817C41.5159 29.9813 41.342 31.0811 41.2725 32.1807C41.1401 33.2734 41.168 34.3592 41.182 35.4032C41.161 36.454 41.342 37.4702 41.4326 38.4167C41.6135 39.3703 41.7666 40.2611 42.0311 41.0686C42.2399 41.8829 42.5599 42.5926 42.8106 43.219C43.1098 43.8316 43.3882 44.3535 43.6527 44.7643C43.9102 45.1749 44.1608 45.4672 44.3208 45.669C44.4879 45.8708 44.5854 45.9613 44.5854 45.9613Z" fill="#00AE85"/>
<path d="M33.9506 55.7051C33.9506 55.7051 33.6513 55.2597 33.1989 54.4592C32.9761 54.0555 32.7187 53.5614 32.4332 52.9906C32.1411 52.42 31.8697 51.7589 31.5424 51.0488C31.2501 50.318 30.9301 49.5455 30.6307 48.7034C30.3037 47.8752 30.067 46.9634 29.7538 46.0447C29.4683 45.1121 29.2318 44.1376 28.9672 43.1564C28.7584 42.1542 28.4731 41.1588 28.3201 40.1357C28.139 39.1126 27.8955 38.1034 27.7911 37.0803C27.6867 36.0642 27.45 35.076 27.3944 34.1015C27.3109 33.1271 27.1856 32.1875 27.0882 31.2966C27.0394 30.3989 26.9768 29.5497 26.9071 28.7633C26.7471 27.1903 26.761 25.8749 26.6704 24.9491C26.5939 24.0166 26.5522 23.4875 26.5522 23.4875C26.5522 23.4875 26.4479 24.0095 26.3018 24.9284C26.2321 25.3878 26.1416 25.9515 26.0511 26.5918C25.9468 27.232 25.8631 27.9628 25.8284 28.7633C25.7798 29.5567 25.724 30.4266 25.6891 31.3453C25.6961 32.2641 25.7031 33.2315 25.7449 34.2338C25.7589 35.2428 25.891 36.273 25.9954 37.324C26.086 38.3748 26.3156 39.4328 26.4827 40.4907C26.6567 41.5555 26.9768 42.5857 27.2203 43.6156C27.5058 44.6387 27.8537 45.6271 28.1948 46.5737C28.5636 47.5133 28.9256 48.425 29.3501 49.2463C29.7329 50.0883 30.1852 50.847 30.589 51.536C31.438 52.9141 32.2593 53.986 32.8998 54.675C33.533 55.3709 33.9506 55.7051 33.9506 55.7051Z" fill="#00AE85"/>
<path d="M21.6038 67.3421C21.6038 67.3421 21.4784 67.1542 21.2348 66.8131C20.9843 66.479 20.6641 65.9502 20.2324 65.3099C19.822 64.6486 19.3139 63.8552 18.7919 62.9017C18.256 61.9622 17.6923 60.8834 17.1005 59.7001C16.4672 58.5309 15.9523 57.1875 15.298 55.8235C14.776 54.3967 14.101 52.949 13.6137 51.3691C13.3562 50.5827 13.0849 49.7893 12.8133 48.9818C12.5906 48.1677 12.368 47.3393 12.1383 46.5041C11.6231 44.8476 11.3448 43.1078 10.976 41.3956C10.6 39.6765 10.454 37.9226 10.1824 36.2104C10.0154 34.4913 9.91802 32.7862 9.79257 31.1437C9.7301 29.4942 9.77887 27.8933 9.75098 26.3761C9.75098 25.9932 9.74413 25.6244 9.74413 25.2556C9.77185 24.8868 9.79959 24.5248 9.82748 24.1628C9.86924 23.4529 9.91801 22.7639 9.95977 22.1028C10.078 20.7803 10.0572 19.5484 10.2451 18.4835C10.3912 17.4048 10.5165 16.4721 10.6211 15.6995C10.8229 14.1546 10.9132 13.2566 10.9132 13.2566C10.9132 13.2566 10.6627 14.1127 10.2661 15.623C10.0712 16.3886 9.8345 17.3074 9.55604 18.3653C9.236 19.4231 9.11055 20.648 8.88806 21.9845C8.72787 23.3138 8.37291 24.7545 8.35203 26.3064C8.28238 27.8515 8.12236 29.4872 8.13622 31.1784C8.21991 32.8697 8.20587 34.6236 8.37993 36.3984C8.63733 38.1593 8.76261 39.9688 9.13845 41.7365C9.52832 43.5045 9.84134 45.2931 10.3982 46.9914C10.642 47.8404 10.8923 48.6897 11.1569 49.5247C11.4701 50.339 11.7693 51.1465 12.0686 51.9399C12.6183 53.5406 13.4119 54.9883 14.0313 56.4081C14.776 57.7724 15.4162 59.0878 16.1611 60.2151C16.523 60.7859 16.8501 61.3496 17.1912 61.8578C17.553 62.3589 17.8871 62.8321 18.2073 63.2776C18.8405 64.1754 19.453 64.9131 19.9403 65.5256C20.9494 66.7296 21.6038 67.3421 21.6038 67.3421Z" fill="#00AE85"/>
<path d="M5.66543 80.5033C5.66543 80.5033 5.47066 80.3292 5.12957 79.9883C4.78163 79.6611 4.32228 79.1182 3.70273 78.478C3.12511 77.7889 2.39432 76.9885 1.65652 75.9792C0.870271 75.0119 0.118433 73.8218 -0.765532 72.5829C-1.16225 71.9286 -1.57967 71.2536 -2.0113 70.5507C-2.22695 70.2026 -2.44276 69.8476 -2.66542 69.4858C-2.86737 69.1098 -3.06915 68.7271 -3.27795 68.3443C-3.68168 67.5717 -4.10629 66.7783 -4.53073 65.971C-4.91358 65.1358 -5.30328 64.2868 -5.7 63.4237C-5.90178 62.9922 -6.09671 62.5536 -6.29849 62.1151C-6.47255 61.6628 -6.63959 61.2104 -6.81364 60.7511C-7.16859 59.8394 -7.52355 58.9136 -7.87851 57.9809C-8.46314 56.074 -9.12427 54.1531 -9.61837 52.1834C-9.85506 51.195 -10.0916 50.2068 -10.3284 49.2254C-10.5718 48.2441 -10.8155 47.2628 -10.9408 46.2744C-11.2193 44.2908 -11.6786 42.363 -11.8525 40.4628C-12.0474 38.5628 -12.2354 36.7253 -12.4094 34.9785C-12.4791 33.2246 -12.5485 31.568 -12.6043 30.037C-12.6391 29.2644 -12.6738 28.5336 -12.7086 27.8306C-12.7226 27.1347 -12.6947 26.4665 -12.6877 25.8402C-12.6668 24.5944 -12.6531 23.5016 -12.6391 22.6038C-12.6182 20.8011 -12.6321 19.771 -12.6321 19.771C-12.6321 19.771 -12.7852 20.7873 -13.0011 22.5759C-13.1123 23.4737 -13.2376 24.5595 -13.3837 25.8123C-13.4534 26.4386 -13.5508 27.0998 -13.6064 27.8028C-13.6343 28.5128 -13.6552 29.2504 -13.6831 30.03C-13.7317 31.5751 -13.8013 33.2595 -13.8083 35.0411C-13.7108 36.8229 -13.6064 38.695 -13.4952 40.6369C-13.4604 41.6114 -13.2934 42.5857 -13.1611 43.5809C-13.0148 44.5761 -12.8686 45.5783 -12.7226 46.5876C-12.6043 47.6107 -12.3677 48.6129 -12.1311 49.6222C-11.8944 50.6312 -11.6646 51.6475 -11.4351 52.6636C-10.9061 54.6751 -10.21 56.6446 -9.58363 58.5934C-9.19376 59.54 -8.80423 60.4865 -8.42839 61.4122C-8.23346 61.8786 -8.03853 62.3379 -7.85061 62.7973C-7.62778 63.2428 -7.41213 63.6811 -7.19649 64.1195C-6.75083 64.9896 -6.31937 65.8457 -5.89476 66.6879C-5.4147 67.4952 -4.94148 68.2816 -4.48196 69.0473C-3.60517 70.6063 -2.52628 71.9286 -1.63547 73.2024C-0.653951 74.4133 0.229845 75.5339 1.12767 76.4317C1.96971 77.3713 2.79805 78.1021 3.44532 78.7285C4.80251 79.9325 5.66543 80.5033 5.66543 80.5033Z" fill="#00AE85"/>
<path d="M-13.0984 96.4902C-13.0984 96.4902 -10.4397 98.9888 -6.45168 102.747C-4.46811 104.633 -2.16449 106.833 0.208954 109.262C1.39225 110.473 2.58924 111.753 3.73763 113.09C4.32928 113.751 4.85812 114.454 5.38713 115.15L6.90433 117.377C8.04587 118.936 9.3334 120.314 10.6836 121.574C12.0269 122.847 13.5164 123.898 14.9571 124.887C16.4255 125.826 17.8941 126.675 19.3488 127.337C20.7823 128.033 22.1953 128.569 23.5107 129.007C24.8332 129.445 26.0581 129.773 27.1647 129.981C28.2573 130.239 29.2388 130.35 30.0252 130.482C30.8186 130.601 31.4589 130.601 31.8835 130.649C32.315 130.677 32.5378 130.691 32.5378 130.691C32.5378 130.691 31.6538 130.489 30.0949 130.121C29.3292 129.905 28.3897 129.682 27.3458 129.313C26.2948 128.972 25.1394 128.513 23.8934 127.998C22.6547 127.462 21.3322 126.835 19.9821 126.091C18.618 125.367 17.2677 124.462 15.8896 123.522C13.1891 121.567 10.4749 119.138 8.45645 116.326L6.86959 114.057C6.29197 113.312 5.72121 112.575 5.10166 111.906C3.90467 110.514 2.60311 109.29 1.36436 108.086C-1.14138 105.712 -3.59817 103.652 -5.74878 101.94C-7.88537 100.214 -9.75068 98.8844 -11.0314 97.9309C-12.3327 96.9913 -13.0984 96.4902 -13.0984 96.4902Z" fill="#00AE85"/>
<path d="M54.0438 118.588C54.0438 118.588 53.0486 118.296 51.3296 117.746C49.6104 117.21 47.1815 116.347 44.307 115.24C42.8731 114.677 41.3421 114.036 39.7343 113.326C38.1336 112.589 36.4701 111.781 34.7998 110.863C33.1223 109.972 31.473 108.9 29.8721 107.744C29.0439 107.167 28.3689 106.533 27.5197 105.858C26.7192 105.211 25.9744 104.529 25.0488 103.923C23.2741 102.664 21.4089 101.71 19.5366 100.826C17.6644 99.9354 15.7712 99.2464 13.9686 98.5435C12.1661 97.8404 10.4122 97.2142 8.79055 96.532C7.16193 95.8709 5.65859 95.1819 4.30141 94.4788C2.95825 93.762 1.7332 93.073 0.710092 92.3631C-0.354774 91.7088 -1.16925 90.985 -1.88584 90.4422C-3.24319 89.2659 -4.00873 88.563 -4.00873 88.563C-4.00873 88.563 -3.84169 88.7648 -3.52849 89.1267C-3.20143 89.4885 -2.77682 90.0663 -2.13657 90.7136C-1.46841 91.326 -0.716746 92.1543 0.292497 92.9269C1.25998 93.755 2.43626 94.5902 3.7724 95.4184C5.1087 96.2397 6.59818 97.061 8.22663 97.8127C9.84139 98.5921 11.5676 99.3299 13.3562 100.075C15.131 100.819 16.9614 101.599 18.764 102.462C20.5458 103.325 22.3554 104.292 23.9422 105.441C24.7565 105.949 25.557 106.652 26.3573 107.285C27.123 107.877 27.9652 108.635 28.8072 109.206C29.6633 109.805 30.5123 110.396 31.4033 110.883C32.2732 111.412 33.1572 111.879 34.0341 112.324C35.774 113.229 37.5281 113.946 39.1914 114.607C40.8618 115.261 42.4696 115.797 43.952 116.256C49.9306 118.052 54.0438 118.588 54.0438 118.588Z" fill="#00AE85"/>
<path d="M73.1696 95.8359C73.1696 95.8359 72.1465 95.9611 70.3438 96.0378C68.5483 96.1352 65.9801 96.1005 62.9247 95.8499C61.4004 95.7246 59.7509 95.5018 58.0249 95.2374C57.1689 95.0773 56.2849 94.9033 55.3801 94.7363C54.4963 94.5204 53.5846 94.2978 52.6588 94.0751C50.8214 93.581 48.9561 92.9685 47.084 92.2656C45.2397 91.5487 43.3465 90.7203 41.4464 89.9062C37.6323 88.3541 33.8113 86.802 30.234 85.3404C28.4592 84.6026 26.7471 83.8788 25.1462 83.1619C23.5455 82.4311 22.0562 81.7003 20.706 80.9835C19.3766 80.2319 18.1724 79.5219 17.1703 78.7911C16.1541 78.0812 15.3468 77.3504 14.7272 76.717C14.421 76.39 14.1566 76.0907 13.9201 75.8332C13.6973 75.5687 13.5441 75.3181 13.3981 75.1232C13.1195 74.7266 12.9733 74.5178 12.9733 74.5178C12.9733 74.5178 13.0918 74.7475 13.3144 75.179C13.4328 75.3878 13.5511 75.666 13.739 75.9654C13.9478 76.2577 14.1843 76.5849 14.4489 76.9606C15.0195 77.6705 15.7712 78.4988 16.7318 79.3409C17.6853 80.1901 18.8405 81.0532 20.1561 81.9091C20.8243 82.3128 21.5202 82.7374 22.2371 83.1759C22.9749 83.5796 23.7404 84.0111 24.5338 84.4217C26.1207 85.236 27.8049 86.0712 29.5799 86.8576C31.3477 87.658 33.1781 88.4723 35.0502 89.2519C36.9225 90.0383 38.8226 90.8388 40.7156 91.639C42.6157 92.4256 44.5087 93.2329 46.4576 93.9637C48.3925 94.6806 50.3551 95.2165 52.2621 95.6758C53.2226 95.8917 54.169 96.0726 55.0948 96.2466C56.0275 96.3719 56.946 96.4972 57.83 96.6224C59.6186 96.8104 61.3099 96.9148 62.8759 96.9216C66.001 96.9635 68.5901 96.6572 70.3787 96.3996C72.1744 96.1282 73.1696 95.8359 73.1696 95.8359Z" fill="#00AE85"/>
<path d="M47.606 43.5393C47.606 43.5393 49.2207 44.4998 51.8863 45.3629C53.2087 45.8152 54.7886 46.2258 56.5077 46.56C57.3707 46.6992 58.2546 46.8939 59.1733 46.9706C60.085 47.082 61.0178 47.1654 61.9503 47.2141C62.8829 47.2698 63.8225 47.2559 64.7414 47.242C65.6599 47.2698 66.5648 47.1376 67.4347 47.082C68.3116 47.0403 69.1468 46.8662 69.9403 46.7478C70.7337 46.6434 71.4715 46.4695 72.1535 46.2886C73.5177 45.9893 74.6173 45.5925 75.376 45.3002C76.1415 45.0218 76.5661 44.8409 76.5661 44.8409C76.5661 44.8409 76.0998 44.8686 75.2925 44.9382C74.8958 44.98 74.4085 45.0358 73.8518 45.0914C73.295 45.1332 72.6685 45.1749 71.9865 45.2306C71.3045 45.2864 70.5666 45.335 69.7872 45.3558C69.0077 45.3837 68.1934 45.4394 67.3443 45.4323C65.6459 45.4532 63.8434 45.4602 62.0407 45.342C60.2382 45.3002 58.4425 45.0914 56.7513 44.9312C55.0669 44.7365 53.487 44.5345 52.1369 44.3257C49.4295 43.9083 47.606 43.5393 47.606 43.5393Z" fill="#00AE85"/>
<path d="M116.523 241.555C116.523 241.555 116.467 217.355 121.799 187.846L131.981 191.548L122.891 182.104C126.364 164.822 131.73 146.19 140.027 129.765L150.195 133.468L142.365 125.366C167.33 80.8369 218.924 59.9849 218.924 59.9849C218.924 59.9849 217.776 82.0131 210.725 109.567L194.85 111.996L209.368 114.669C205.276 129.466 199.492 145.508 191.3 160.416C190.013 162.755 188.649 165.059 187.243 167.348L171.033 161.481L184.5 171.657C158.422 211.307 116.523 241.555 116.523 241.555Z" fill="#008563"/>
<path d="M218.924 59.9854C213.746 67.0009 208.707 74.1071 203.814 81.3106C198.9 88.5002 194.07 95.7455 189.386 103.081L182.405 114.113L175.543 125.221C171.109 132.71 166.634 140.171 162.437 147.792L159.187 153.457C158.115 155.343 157.099 157.271 156.048 159.178L149.826 170.648C145.879 178.401 141.822 186.106 138.057 193.95C136.163 197.868 134.187 201.752 132.356 205.698L126.955 217.586C126.058 219.569 125.097 221.532 124.234 223.529L121.68 229.543C119.989 233.552 118.263 237.554 116.523 241.556C118.005 237.456 119.508 233.364 121.04 229.285L123.329 223.154C124.095 221.107 124.965 219.11 125.786 217.084L130.853 205.016C132.586 201.014 134.451 197.068 136.247 193.087L138.961 187.129C139.859 185.145 140.896 183.218 141.857 181.262L147.717 169.548L153.862 157.988C154.893 156.06 155.895 154.125 156.953 152.218L160.168 146.511C168.833 131.352 177.93 116.437 187.722 101.989C192.615 94.7571 197.64 87.6233 202.777 80.5728C208.031 73.606 213.279 66.6391 218.924 59.9854Z" fill="#00AE85"/>
<path d="M192.747 115.178C168.541 107.431 143.109 117.467 132.273 122.743C127.08 123.286 121.909 124.003 116.773 124.894C140.082 113.062 166.063 87.4494 150.988 88.4168C134.841 89.4538 109.159 118.859 101.559 127.991C96.3246 129.223 91.1257 130.601 85.9893 132.125C106.848 115.895 129.322 78.8748 113.926 84.1435C98.7536 89.3426 81.8758 123.877 76.7743 135.006C70.6077 137.046 64.5388 139.273 58.574 141.639C78.0688 124.024 97.8837 81.6587 82.6971 88.918C67.8656 96.01 54.8228 133.921 51.4193 144.555C45.0859 147.228 38.8844 150.047 32.8363 152.977C51.99 135.229 71.0671 90.3237 55.9084 98.3347C40.9447 106.234 29.1824 146.692 26.6352 156.06C20.4685 159.171 14.4762 162.387 8.68548 165.658C26.4053 146.393 41.9955 100.91 27.526 109.895C13.2999 118.741 4.43285 159.192 2.42155 169.249C-46.959 198.119 -80.4013 229.508 -81 230.079L-77.9654 233.273C-77.3947 232.731 -46.6876 203.909 -0.842537 176.286C8.67845 181.45 44.7309 200.088 60.4602 194.903C77.0945 189.419 29.1406 171.372 3.40974 173.745C9.70156 170.05 16.2648 166.389 23.0507 162.832C31.7227 167.572 68.84 187.011 84.8618 181.728C101.614 176.209 52.9019 157.953 27.3032 160.633C33.3514 157.55 39.5596 154.564 45.9211 151.724C54.8297 156.589 91.6754 175.819 107.614 170.565C124.074 165.136 77.331 147.416 51.4122 149.323C57.544 146.706 63.7939 144.235 70.1554 141.945C78.5838 146.553 115.986 166.222 132.092 160.911C148.357 155.545 102.888 138.18 76.809 139.628C83.9848 137.22 91.2717 135.055 98.6633 133.204C108.177 138.368 144.237 157.014 159.966 151.829C175.055 146.852 137.012 131.547 110.613 130.51C117.462 129.132 124.373 128.033 131.333 127.267C155.818 134.15 209.869 120.655 192.747 115.178Z" fill="#00AF8A"/>
</svg>
