<svg width="32" height="32" viewBox="0 0 32 32" fill="none" xmlns="http://www.w3.org/2000/svg">
<g clip-path="url(#clip0_1_502)">
<path fill-rule="evenodd" clip-rule="evenodd" d="M16.0004 0.666748C12.202 0.668719 8.52817 2.01403 5.63582 4.46211C2.74347 6.9102 0.821202 10.3014 0.212723 14.0294C-0.395755 17.7574 0.349233 21.579 2.31449 24.811C4.27975 28.0429 7.33712 30.4744 10.9399 31.6707C11.7347 31.8182 12.0341 31.3256 12.0341 30.9067C12.0341 30.4879 12.0182 29.2734 12.0129 27.9457C7.56186 28.9072 6.62131 26.0674 6.62131 26.0674C5.89536 24.2233 4.84618 23.7386 4.84618 23.7386C3.39428 22.7533 4.95482 22.7718 4.95482 22.7718C6.56303 22.8851 7.4082 24.413 7.4082 24.413C8.83361 26.8445 11.1519 26.1412 12.0633 25.7302C12.2063 24.7002 12.6223 23.9994 13.0807 23.6016C9.5251 23.2012 5.78938 21.8366 5.78938 15.7406C5.76734 14.1597 6.35736 12.6308 7.43734 11.4703C7.27308 11.0699 6.72463 9.45239 7.59365 7.25532C7.59365 7.25532 8.93693 6.82855 11.9944 8.886C14.6169 8.17291 17.3838 8.17291 20.0063 8.886C23.0611 6.82855 24.4017 7.25532 24.4017 7.25532C25.2734 9.44712 24.725 11.0646 24.5607 11.4703C25.6441 12.631 26.2354 14.1625 26.2113 15.7459C26.2113 21.855 22.4676 23.2012 18.9068 23.5937C19.4791 24.089 19.9904 25.0558 19.9904 26.5416C19.9904 28.6702 19.9719 30.3825 19.9719 30.9067C19.9719 31.3309 20.2606 31.8261 21.0714 31.6707C24.6746 30.4743 27.7323 28.0424 29.6975 24.8099C31.6627 21.5774 32.4073 17.7551 31.7981 14.0268C31.189 10.2985 29.2657 6.90722 26.3724 4.45956C23.4791 2.01189 19.8045 0.66747 16.0056 0.666748H16.0004Z" fill="#191717"/>
<path d="M6.05925 23.5093C6.0248 23.5884 5.89763 23.6121 5.7943 23.5568C5.69097 23.5014 5.61415 23.3987 5.65124 23.317C5.68833 23.2354 5.81285 23.2143 5.91618 23.2696C6.01951 23.3249 6.09899 23.4303 6.05925 23.5093Z" fill="#191717"/>
<path d="M6.70838 24.2286C6.65352 24.2561 6.59074 24.2638 6.53081 24.2503C6.47088 24.2368 6.41752 24.2031 6.37986 24.1548C6.27653 24.0442 6.25532 23.8914 6.3348 23.8229C6.41429 23.7544 6.55737 23.786 6.6607 23.8967C6.76402 24.0073 6.78787 24.1601 6.70838 24.2286Z" fill="#191717"/>
<path d="M7.339 25.1427C7.24097 25.2112 7.07404 25.1427 6.98131 25.0057C6.95567 24.9811 6.93528 24.9517 6.92135 24.9191C6.90742 24.8865 6.90023 24.8515 6.90023 24.816C6.90023 24.7806 6.90742 24.7456 6.92135 24.713C6.93528 24.6804 6.95567 24.6509 6.98131 24.6264C7.07934 24.5605 7.24627 24.6264 7.339 24.7607C7.43173 24.8951 7.43438 25.0742 7.339 25.1427Z" fill="#191717"/>
<path d="M8.19474 26.0277C8.10731 26.1252 7.9298 26.0989 7.78408 25.9672C7.63836 25.8354 7.60391 25.6563 7.69134 25.5615C7.77877 25.4666 7.95628 25.493 8.1073 25.6221C8.25832 25.7511 8.28747 25.9329 8.19474 26.0277Z" fill="#191717"/>
<path d="M9.3949 26.544C9.35516 26.6678 9.17499 26.7232 8.99483 26.6705C8.81467 26.6178 8.69545 26.4703 8.72989 26.3438C8.76433 26.2174 8.94715 26.1594 9.12996 26.2174C9.31277 26.2753 9.42934 26.4149 9.3949 26.544Z" fill="#191717"/>
<path d="M10.7038 26.6337C10.7038 26.7628 10.5554 26.8735 10.3647 26.8761C10.1739 26.8787 10.0176 26.7734 10.0176 26.6443C10.0176 26.5152 10.1659 26.4045 10.3567 26.4019C10.5475 26.3993 10.7038 26.502 10.7038 26.6337Z" fill="#191717"/>
<path d="M11.9225 26.4309C11.9464 26.56 11.8139 26.6943 11.6231 26.7259C11.4324 26.7576 11.2655 26.6812 11.2416 26.5547C11.2178 26.4283 11.3555 26.2913 11.541 26.257C11.7265 26.2228 11.8987 26.3018 11.9225 26.4309Z" fill="#191717"/>
</g>
<defs>
<clipPath id="clip0_1_502">
<rect width="32" height="32" fill="white"/>
</clipPath>
</defs>
</svg>
