<svg width="50" height="50" viewBox="0 0 50 50" fill="none" xmlns="http://www.w3.org/2000/svg">
<path d="M44.3749 21C44.3749 31.7005 35.7004 40.375 24.9999 40.375C14.2995 40.375 5.625 31.7005 5.625 21C5.625 10.2995 14.2995 1.625 24.9999 1.625C35.7004 1.625 44.3749 10.2995 44.3749 21Z" fill="#269E6C" stroke="white" stroke-width="1.25" stroke-miterlimit="1.5" stroke-linecap="round" stroke-linejoin="round"/>
<g filter="url(#filter0_d_1_550)">
<path d="M23.418 9.05383C23.4211 9.04553 23.4245 9.03667 23.428 9.02725C23.4538 8.95756 23.4874 8.86016 23.5263 8.74199C23.6039 8.50578 23.7018 8.18834 23.7997 7.8473L23.7999 7.84661C24.0045 7.16373 24.2353 6.40192 24.3213 6.15258L24.3214 6.15224L24.4756 5.71311L24.0664 4.70138L24.0664 4.70129C23.8364 4.12998 23.3846 3.0889 23.0525 2.3983C22.8518 1.98362 22.708 1.66361 22.6228 1.44334C22.5804 1.33367 22.5515 1.24619 22.5378 1.18311C22.5311 1.15219 22.5269 1.12268 22.5286 1.09763C22.53 1.07719 22.5376 1.03138 22.5833 1.01409L22.5882 1.01221L22.5883 1.01243C22.6545 0.993602 22.8724 0.959137 23.088 0.95035C23.1956 0.941808 23.2992 0.9375 23.3819 0.9375C23.4233 0.9375 23.4602 0.93858 23.4901 0.94087C23.5172 0.942945 23.5465 0.946458 23.5671 0.954701L23.5699 0.955804L23.5699 0.955869C23.5957 0.967625 23.6178 0.990711 23.636 1.01324C23.6559 1.03772 23.6779 1.07011 23.7023 1.10994C23.7511 1.18976 23.8126 1.30493 23.8891 1.45918C24.0422 1.76801 24.2582 2.23892 24.5568 2.90952M23.418 9.05383L24.4998 2.93495M23.418 9.05383C23.3959 9.01077 23.3689 8.95157 23.3382 8.87831C23.2612 8.69452 23.1636 8.42924 23.0658 8.12709L23.0656 8.12653C22.3989 6.13253 21.493 4.07011 20.5265 2.3578C20.5265 2.35774 20.5264 2.35769 20.5264 2.35763L20.0658 1.52918L20.0422 1.48674L19.9952 1.49911L19.5091 1.62724C19.5091 1.62725 19.509 1.62727 19.509 1.62728C19.3759 1.66172 19.249 1.6983 19.153 1.72854C19.1051 1.74364 19.0643 1.75733 19.034 1.76851C19.019 1.77406 19.0058 1.77929 18.9953 1.78398C18.9901 1.78631 18.9847 1.78886 18.9798 1.79158C18.9763 1.7935 18.9677 1.79837 18.9599 1.80621L19.0044 1.85015M23.418 9.05383L20.0112 1.55955L19.5248 1.68775C19.2604 1.75615 19.0214 1.83295 19.0044 1.85015M24.5568 2.90952L24.4998 2.93495M24.5568 2.90952C24.5568 2.90949 24.5568 2.90947 24.5568 2.90945L24.4998 2.93495M24.5568 2.90952C24.7017 3.23362 24.8399 3.5275 24.9461 3.74005C24.9992 3.84647 25.0439 3.93176 25.0772 3.99007C25.0822 3.99882 25.0869 4.00684 25.0912 4.01415M24.4998 2.93495C24.79 3.58435 25.0544 4.11395 25.0886 4.11395C25.1312 4.11395 25.3446 3.67835 25.575 3.14855C25.8054 2.61895 26.1211 1.93555 26.2831 1.62795M25.0912 4.01415C25.0795 4.03319 25.0702 4.04667 25.0634 4.05514C25.0594 4.06016 25.0578 4.06151 25.0583 4.06103C25.0587 4.06076 25.0609 4.05891 25.0648 4.05692C25.0685 4.05505 25.0769 4.05145 25.0886 4.05145C25.1061 4.05145 25.1175 4.05915 25.1197 4.06062L25.1197 4.06062C25.1232 4.06301 25.1249 4.06489 25.1245 4.0645C25.1239 4.06387 25.1213 4.06088 25.1165 4.05398C25.1099 4.04462 25.1015 4.03138 25.0912 4.01415ZM25.0912 4.01415C25.093 4.01134 25.0948 4.00841 25.0966 4.00535C25.1249 3.95835 25.1619 3.88908 25.2054 3.80199C25.2922 3.62823 25.4027 3.38797 25.5176 3.12362L25.5176 3.12362C25.7481 2.59385 26.0646 1.9089 26.2277 1.59905M26.2277 1.59905C26.2277 1.59912 26.2277 1.59919 26.2276 1.59927L26.2831 1.62795M26.2277 1.59905C26.3543 1.35396 26.4376 1.20556 26.5245 1.11733C26.6186 1.02194 26.715 0.998154 26.8484 0.984791C27.0074 0.967244 27.2693 0.975817 27.4305 1.01127L27.711 1.06247L27.7932 1.07747L27.7556 1.15209L27.2949 2.06587C27.2948 2.06592 27.2948 2.06597 27.2948 2.06602C26.1792 4.30003 24.9435 7.70422 24.3387 10.2027C24.3387 10.2028 24.3387 10.2028 24.3387 10.2028L24.0605 11.3677L24.211 12.0544L24.2111 12.0547C24.3905 12.8929 24.8003 15.0725 24.9454 15.9532L24.9455 15.9538C24.9709 16.1187 25.0023 16.2653 25.0322 16.3664C25.0357 16.378 25.039 16.3889 25.0423 16.399C25.0469 16.381 25.0516 16.3609 25.0563 16.339C25.0781 16.2371 25.0991 16.1008 25.1117 15.9579L25.1118 15.9564L25.1118 15.9564C25.3941 13.4385 26.5477 8.98223 27.6073 6.26127L27.6074 6.26114C27.8259 5.70347 28.3132 4.63802 28.7772 3.67157C29.0093 3.18805 29.236 2.72859 29.4207 2.36899C29.5131 2.18923 29.5951 2.03409 29.6622 1.91324C29.7281 1.79466 29.7815 1.70551 29.8168 1.65931C29.8424 1.62302 29.8691 1.58874 29.9027 1.56403C29.9393 1.53715 29.9803 1.52421 30.0297 1.52282C30.0766 1.52151 30.1317 1.53059 30.1986 1.54664C30.2661 1.56284 30.3504 1.58733 30.4569 1.61929L30.4569 1.6193C30.5856 1.65799 30.7058 1.6967 30.7964 1.728C30.8416 1.74363 30.88 1.7576 30.9084 1.76893C30.9226 1.77455 30.9351 1.77983 30.945 1.78456C30.95 1.7869 30.955 1.78946 30.9597 1.79217C30.9622 1.79362 30.9669 1.7964 30.972 1.80047C30.9927 1.81604 30.9963 1.8388 30.997 1.84468C30.9981 1.85429 30.997 1.86241 30.9963 1.8663C30.9949 1.87499 30.9922 1.8838 30.9897 1.89092C30.9846 1.90607 30.9763 1.92596 30.9661 1.94904C30.9453 1.99573 30.9135 2.06117 30.8733 2.14005C30.7928 2.29799 30.6772 2.51238 30.5445 2.74373C28.4926 6.42613 26.9416 11.3733 26.183 16.6131C25.6973 20.0082 25.6887 20.2773 25.6375 31.0168L25.6375 31.0169L25.5863 40.9696L25.5859 41.0284L25.5273 41.0317L25.0751 41.0573L25.075 41.0573C24.9203 41.0659 24.7993 41.0641 24.7121 41.049C24.6309 41.0349 24.5509 41.0044 24.5259 40.9293L24.525 40.9268L24.5251 40.9268C24.523 40.9196 24.5223 40.9119 24.5221 40.9096L24.5221 40.9093L24.5211 40.8949C24.5205 40.884 24.5199 40.8691 24.5193 40.8506C24.5181 40.8136 24.5168 40.7606 24.5155 40.6927C24.5129 40.5568 24.5101 40.3602 24.5071 40.1096C24.5013 39.6083 24.4949 38.8906 24.4885 38.0095C24.4757 36.2474 24.4629 33.8317 24.4543 31.1876M26.2277 1.59905C26.2278 1.59898 26.2278 1.5989 26.2278 1.59883L26.2831 1.62795M26.2831 1.62795C26.5391 1.13235 26.5989 1.07255 26.8549 1.04695C27.0085 1.02995 27.2645 1.03855 27.4181 1.07255L27.6357 1.11225L27.6439 1.09581L27.6997 1.12395M19.0044 1.85015C18.9872 1.86715 19.1324 2.14055 19.32 2.46515C21.5728 6.25835 23.3392 11.8711 24.0732 17.5609M19.0044 1.85015L18.9604 1.8057C18.9485 1.81752 18.944 1.83092 18.9422 1.83915C18.9403 1.84755 18.9404 1.85488 18.9406 1.85969C18.9411 1.86925 18.9432 1.87819 18.9451 1.88479C18.9489 1.8986 18.9552 1.91498 18.9626 1.9323C18.9776 1.96759 19.0009 2.01515 19.0299 2.07108C19.0881 2.18333 19.1719 2.33375 19.2659 2.49642L19.2659 2.49642L19.2662 2.49706C21.5136 6.28108 23.2779 11.8852 24.0112 17.5689M24.0732 17.5609L24.0112 17.5689C24.0112 17.5689 24.0112 17.5689 24.0112 17.5689M24.0732 17.5609C24.4572 20.5595 24.4742 21.1661 24.5168 31.1873M24.0732 17.5609L24.5168 31.1873M24.0112 17.5689C24.3946 20.5629 24.4117 21.1655 24.4543 31.1876M24.0112 17.5689L24.4543 31.1876M24.4543 31.1876L27.6997 1.12395M27.6997 1.12395L27.6885 1.18543L27.6704 1.18213L27.6997 1.12395ZM24.5168 31.1873C24.534 36.4755 24.568 40.8497 24.5852 40.9095L24.5168 31.1873Z" fill="#F9F9F9" stroke="white" stroke-width="0.125"/>
<path d="M14.233 5.1564C14.6682 5.4638 15.2996 5.8484 15.6324 6.0106C16.3066 6.3524 17.928 6.9334 17.9962 6.865L14.233 5.1564ZM14.233 5.1564L13.4308 4.6096M14.233 5.1564L13.4308 4.6096M13.4308 4.6096L13.098 4.8402M13.4308 4.6096L12.7054 5.1564M13.098 4.8402C12.9102 4.9684 12.731 5.1136 12.7054 5.1564M13.098 4.8402L13.0625 4.78882L13.0626 4.78869C12.9675 4.85363 12.8745 4.92293 12.8017 4.98168C12.7653 5.01104 12.7334 5.03819 12.7087 5.06113C12.6861 5.08208 12.6635 5.10483 12.6518 5.12431L12.6516 5.12464C12.633 5.15623 12.6349 5.19048 12.6425 5.21781C12.65 5.24504 12.6647 5.27248 12.6825 5.29896C12.7184 5.35221 12.7755 5.41422 12.8475 5.4819C12.9922 5.61799 13.2071 5.7865 13.463 5.96766C13.9753 6.33029 14.6585 6.74843 15.2887 7.06601L15.2889 7.06608C15.6675 7.25573 16.2164 7.47672 16.7467 7.66296C17.2762 7.84894 17.7925 8.0021 18.1054 8.05425L18.1053 8.05428L18.1075 8.05457C18.2009 8.06673 18.2945 8.09121 18.3694 8.1186C18.4069 8.13228 18.4387 8.14633 18.4628 8.15936C18.4887 8.17335 18.5001 8.18315 18.5028 8.18637L18.5508 8.1464M13.098 4.8402L13.0628 4.78858L13.3952 4.55822L13.4306 4.53376L13.466 4.55795L14.2682 5.10475L14.2691 5.10534L14.2691 5.10535C14.7025 5.41151 15.331 5.79414 15.6598 5.95441L15.6607 5.95484L15.6607 5.95485C15.9943 6.12398 16.5653 6.35365 17.0628 6.53282C17.3112 6.62231 17.54 6.69873 17.7104 6.74842C17.7959 6.77333 17.8652 6.79111 17.9145 6.80056C17.9223 6.80206 17.9295 6.80331 17.9359 6.80433M12.7054 5.1564C12.5946 5.3442 14.0622 6.378 15.3168 7.0102L12.7054 5.1564ZM17.9359 6.80433C17.9385 6.81681 17.9399 6.82659 17.9405 6.83386C17.9408 6.8376 17.9407 6.83977 17.9407 6.84069C17.9407 6.84133 17.9406 6.84135 17.9407 6.84084L17.9407 6.84082C17.9408 6.84024 17.9425 6.83059 17.952 6.82088C17.9527 6.82018 17.9534 6.81948 17.9542 6.81878L17.9541 6.81873L17.952 6.82087C17.9527 6.82013 17.9534 6.81944 17.9542 6.81879C17.9596 6.81389 17.9648 6.8113 17.9679 6.81003C17.9714 6.80855 17.9739 6.80808 17.9745 6.80798C17.9747 6.80795 17.9748 6.80794 17.9748 6.80793C17.9748 6.80792 17.9728 6.80814 17.9682 6.80797C17.9605 6.80769 17.9499 6.80656 17.9359 6.80433ZM17.9359 6.80433C17.9339 6.79513 17.9314 6.78447 17.9281 6.77226C17.913 6.71542 17.8851 6.63537 17.8461 6.53594C17.7684 6.33766 17.6488 6.06896 17.5056 5.7684C17.2193 5.16737 16.8406 4.44312 16.5178 3.90715M16.5178 3.90715C16.5178 3.90718 16.5178 3.90721 16.5178 3.90724L16.5712 3.8748L16.5177 3.90705C16.5177 3.90708 16.5177 3.90711 16.5178 3.90715ZM16.5178 3.90715C16.3852 3.68898 16.2655 3.48567 16.1788 3.33463C16.1355 3.25915 16.1003 3.19647 16.0758 3.15141C16.0636 3.12896 16.0538 3.11042 16.047 3.09667C16.0436 3.08989 16.0406 3.08355 16.0383 3.07816C16.0371 3.07553 16.0358 3.07225 16.0346 3.06877L16.0346 3.06859C16.034 3.06691 16.0307 3.05756 16.0307 3.0462C16.0307 3.03076 16.0359 3.01871 16.0392 3.01222C16.0428 3.00504 16.0472 2.99897 16.0509 2.99428C16.0583 2.9849 16.0676 2.97576 16.077 2.96732C16.0962 2.95018 16.1223 2.93034 16.1527 2.90934C16.2137 2.86717 16.2968 2.81685 16.388 2.76895C16.4779 2.71952 16.5801 2.67953 16.6722 2.65289C16.7622 2.62684 16.8505 2.61114 16.9097 2.61656L16.9112 2.61669L16.9112 2.61671C16.9579 2.6221 17.0032 2.65077 17.0441 2.6853C17.0869 2.72138 17.1333 2.77127 17.1827 2.83212C17.2817 2.95402 17.3977 3.12645 17.5256 3.33774C17.7816 3.76077 18.0889 4.34611 18.4078 5.01071C19.0454 6.33989 19.7315 7.99154 20.1464 9.30653C21.4455 13.3961 22.2143 18.0494 22.3595 22.7449L22.3595 22.7452C22.3723 23.2367 22.3787 23.6815 22.3787 24.0037C22.3787 24.1646 22.3771 24.2955 22.3739 24.3865C22.3723 24.4318 22.3702 24.4683 22.3676 24.494C22.3663 24.5065 22.3647 24.5187 22.3624 24.5287C22.3614 24.5332 22.3594 24.541 22.3555 24.5489C22.3536 24.5528 22.3496 24.5602 22.3423 24.5675C22.3347 24.5751 22.3193 24.5863 22.297 24.5863C22.2742 24.5863 22.2579 24.5749 22.2523 24.5709C22.2444 24.5652 22.2376 24.5585 22.232 24.5525C22.2206 24.5403 22.2082 24.5241 22.1953 24.5059C22.1692 24.4691 22.1367 24.4171 22.1001 24.3546C22.0267 24.2291 21.9343 24.0569 21.8401 23.8681L21.896 23.8402M21.896 23.8402L21.8402 23.8682C21.0478 22.2904 19.1565 19.1604 18.4851 18.2921C18.4532 18.2539 18.435 18.235 18.4098 18.2224C18.3843 18.2096 18.3445 18.2001 18.265 18.2001C18.104 18.2001 17.8153 18.2377 17.2365 18.3149C16.413 18.4266 15.0315 18.4821 13.6794 18.4821C12.3279 18.4821 10.999 18.4267 10.2812 18.3148C8.84494 18.1008 7.46705 17.7754 6.48131 17.432L6.48123 17.432C6.41354 17.4083 6.3497 17.3861 6.28952 17.3651C6.07923 17.2918 5.91366 17.2341 5.78499 17.1851C5.62125 17.1226 5.50863 17.071 5.43755 17.0139C5.40072 16.9842 5.37291 16.9515 5.35503 16.913C5.33713 16.8745 5.33114 16.8345 5.3317 16.7932C5.33254 16.7312 5.34911 16.6568 5.36819 16.5711C5.37289 16.55 5.37774 16.5282 5.38255 16.5057L5.38265 16.5052H5.38266C5.4086 16.3884 5.43893 16.2755 5.46733 16.1869C5.4815 16.1427 5.49547 16.1036 5.50846 16.0728C5.51495 16.0575 5.52153 16.0433 5.52813 16.0313C5.53378 16.021 5.54134 16.0086 5.55103 15.9983C5.56384 15.9839 5.5795 15.9775 5.58972 15.9743C5.60136 15.9708 5.61322 15.9694 5.6236 15.9689C5.64446 15.9679 5.66916 15.97 5.69543 15.9736C5.74858 15.9811 5.81885 15.9967 5.90024 16.0183C6.06359 16.0616 6.27869 16.1306 6.50579 16.2122L6.50663 16.2125C7.52562 16.595 9.08263 16.9786 10.4273 17.1659L10.4279 17.166C11.0544 17.2592 12.3091 17.3127 13.5646 17.3223C14.8201 17.3319 16.0684 17.2977 16.6824 17.2172C16.9035 17.1874 17.1074 17.1555 17.2579 17.129C17.3333 17.1157 17.3947 17.1038 17.438 17.0943C17.4435 17.0931 17.4486 17.092 17.4534 17.0909C17.4397 17.067 17.4182 17.0353 17.3885 16.9958C17.3178 16.9023 17.2075 16.7743 17.0672 16.6232C16.7871 16.3215 16.3916 15.932 15.9662 15.5486L15.966 15.5484C15.5416 15.1621 15.318 14.9638 15.1657 14.8659C15.0911 14.818 15.0377 14.797 14.9895 14.7889C14.9406 14.7806 14.8918 14.7845 14.8226 14.795L14.8132 14.7332M21.896 23.8402C22.0356 24.1199 22.1705 24.3617 22.2445 24.4673M21.896 23.8402C21.1024 22.2598 19.208 19.1244 18.5338 18.253C18.4058 18.0992 18.3802 18.0992 17.2282 18.253C15.5898 18.4752 11.7157 18.4752 10.2907 18.253C8.85706 18.0394 7.48306 17.7148 6.50187 17.373M14.8132 14.7332L14.823 14.7949C14.6561 14.8213 13.8415 14.8727 13.0234 14.8983C11.3121 14.9668 10.2055 14.8639 8.82513 14.5291C8.46823 14.443 7.88589 14.2629 7.37659 14.0898C7.1217 14.0031 6.88423 13.9179 6.7016 13.8467C6.61036 13.8111 6.53216 13.7788 6.47208 13.7514C6.44207 13.7377 6.41595 13.7249 6.3947 13.7133C6.37445 13.7023 6.35507 13.6905 6.34109 13.6782C6.32669 13.6657 6.32083 13.6504 6.3183 13.6408C6.31562 13.6306 6.31511 13.6209 6.31518 13.6135C6.31532 13.5986 6.31797 13.5824 6.32132 13.567C6.32816 13.5357 6.34065 13.4958 6.35636 13.4519C6.38801 13.3635 6.4355 13.2509 6.48665 13.1404C6.53779 13.0299 6.59335 12.92 6.64145 12.837C6.66535 12.7958 6.68835 12.7595 6.70876 12.7329C6.71882 12.7198 6.72974 12.7071 6.74113 12.697C6.74685 12.6919 6.75408 12.6863 6.76265 12.6817C6.77085 12.6772 6.784 12.6717 6.80046 12.6717C6.81248 12.6717 6.82615 12.6745 6.83614 12.6767C6.848 12.6793 6.86232 12.6831 6.87846 12.6877C6.91083 12.6968 6.95266 12.71 7.00072 12.7262C7.09679 12.7586 7.21952 12.8039 7.34451 12.8557C8.82969 13.4418 10.1365 13.6971 12.093 13.7567L12.093 13.7567C12.6303 13.7737 13.0299 13.7779 13.3001 13.7705C13.4354 13.7668 13.5366 13.7602 13.6058 13.7511C13.6216 13.7491 13.6353 13.7469 13.647 13.7448C13.6436 13.7415 13.6399 13.738 13.6359 13.7343C13.5921 13.6943 13.5229 13.6409 13.4319 13.577C13.2506 13.4495 12.9898 13.2846 12.6906 13.1072C12.0924 12.7523 11.3458 12.3499 10.7855 12.0992L10.7855 12.0992C10.2929 11.878 9.40723 11.5369 8.82008 11.3411C8.52529 11.2428 8.25394 11.1486 8.054 11.0768C7.95408 11.041 7.87172 11.0106 7.81309 10.9881C7.78385 10.9769 7.76005 10.9674 7.74276 10.96C7.73419 10.9564 7.72656 10.953 7.72041 10.95C7.71851 10.9491 7.71648 10.9481 7.71443 10.947C7.7132 10.9463 7.71197 10.9457 7.71075 10.945L7.7106 10.9449C7.70859 10.9437 7.70165 10.9397 7.69513 10.9332L7.69487 10.933C7.67591 10.914 7.67213 10.8905 7.67127 10.8774C7.67031 10.8629 7.67215 10.8481 7.67467 10.8351C7.67978 10.8088 7.69012 10.7776 7.70305 10.7447C7.72921 10.6783 7.77005 10.5951 7.81662 10.5105C7.86331 10.4257 7.91663 10.338 7.96833 10.2624C8.01918 10.1881 8.07126 10.1213 8.11569 10.0817L8.11657 10.0809L8.11657 10.081C8.1533 10.0495 8.1948 10.0259 8.25145 10.016C8.30564 10.0066 8.36978 10.0104 8.45124 10.0254C8.61331 10.0552 8.86542 10.1338 9.28645 10.2743L9.28657 10.2744C13.977 11.8509 18.0422 15.1326 20.6267 19.3996L20.6267 19.3997C20.7629 19.6255 20.8903 19.8251 20.9865 19.9659C21.0171 20.0107 21.0443 20.0491 21.0674 20.0803C21.0677 20.0224 21.0646 19.9458 21.0583 19.8521C21.0439 19.6394 21.0132 19.344 20.9703 18.9919C20.8844 18.2878 20.7499 17.3601 20.6001 16.4197C20.4503 15.4793 20.2854 14.527 20.1388 13.7737C20.0655 13.397 19.9968 13.0706 19.937 12.8206C19.9071 12.6955 19.8796 12.5901 19.8549 12.5074C19.8298 12.4234 19.8089 12.3666 19.7928 12.3362L19.7921 12.335L19.7922 12.335C19.7899 12.3305 19.7773 12.3152 19.7393 12.2923C19.7039 12.2709 19.6545 12.2476 19.5917 12.2232C19.4665 12.1745 19.2948 12.124 19.0917 12.0775L19.0916 12.0775C18.1229 11.8543 15.8409 11.084 14.763 10.6216L14.7627 10.6215C13.2653 9.97036 11.8444 9.1479 10.6622 8.23019C10.6621 8.23012 10.662 8.23004 10.6619 8.22996L9.99693 7.72642L9.94596 7.68783L9.9857 7.63775L10.2501 7.30455L10.2505 7.30407C10.3237 7.21361 10.399 7.1253 10.4616 7.05515C10.5224 6.9869 10.5751 6.93129 10.6013 6.91026L10.6119 6.9018L10.6125 6.90309C10.6367 6.89097 10.6625 6.89295 10.6785 6.89545C10.6968 6.89831 10.7165 6.90429 10.7363 6.91176C10.7761 6.92679 10.8244 6.95106 10.8776 6.98178C10.9843 7.04345 11.117 7.13499 11.2512 7.2433C12.7041 8.38306 14.8734 9.52462 16.873 10.206L16.8732 10.2061C17.3922 10.385 18.0351 10.5789 18.5547 10.7218C18.8145 10.7932 19.0428 10.8517 19.2089 10.889C19.2921 10.9077 19.3586 10.9209 19.4053 10.9278C19.4076 10.9281 19.41 10.9285 19.4122 10.9288C19.409 10.9136 19.4049 10.8959 19.3999 10.8755C19.3814 10.7995 19.3518 10.6927 19.3141 10.5644C19.2389 10.3081 19.1325 9.96917 19.0206 9.62671C18.9087 9.28426 18.7915 8.93886 18.695 8.66968C18.6467 8.53503 18.6037 8.41992 18.5692 8.33397C18.552 8.29094 18.5371 8.25579 18.5248 8.22939C18.5187 8.21618 18.5135 8.20564 18.5092 8.19765C18.507 8.19368 18.5052 8.19059 18.5038 8.18828L18.5021 8.18565C18.5017 8.18502 18.5015 8.18475 18.5015 8.18476L18.5508 8.1464M14.8132 14.7332C14.651 14.7588 13.8404 14.8102 13.0212 14.8358L10.4187 17.2278C11.6815 17.4158 15.4532 17.4414 16.6906 17.2792C17.1344 17.2194 17.5098 17.151 17.5268 17.1338C17.5952 17.0656 16.8612 16.271 16.008 15.5022C15.1632 14.7332 15.0948 14.6906 14.8132 14.7332ZM18.5508 8.1464C18.5082 8.09519 18.312 8.0182 18.1156 7.9926L16.8528 10.2652C17.8938 10.624 19.4298 11.0426 19.481 10.9914C19.5322 10.94 18.6704 8.30019 18.5508 8.1464ZM5.44367 16.5188C5.49487 16.2882 5.56307 16.0746 5.59727 16.0404C5.63147 15.9976 6.03247 16.1086 6.48467 16.271L5.44367 16.5188ZM5.44367 16.5188C5.40743 16.6881 5.37653 16.791 5.4058 16.8724C5.45925 17.0208 5.71332 17.0971 6.50187 17.373M5.44367 16.5188L6.50187 17.373M6.50187 17.373L22.2445 24.4673M22.2445 24.4673C22.2441 24.4724 22.2437 24.4772 22.2432 24.4814C22.2421 24.4926 22.2411 24.4984 22.2406 24.5006C22.2403 24.5021 22.2408 24.4989 22.2432 24.494C22.2443 24.4918 22.2473 24.4859 22.2534 24.4797C22.2742 24.5082 22.2893 24.5238 22.297 24.5238C22.3012 24.5238 22.3047 24.5024 22.3076 24.4623C22.3125 24.4632 22.3163 24.4647 22.3186 24.4657C22.3225 24.4674 22.3249 24.4691 22.3256 24.4696C22.326 24.4699 22.3263 24.4701 22.3263 24.4701C22.3263 24.4701 22.3253 24.4693 22.3233 24.4672C22.3196 24.4632 22.3147 24.4572 22.3084 24.449C22.3218 24.2293 22.318 23.551 22.297 22.7468C22.152 18.0566 21.384 13.409 20.0868 9.3254C19.2592 6.7026 17.3476 2.73 16.904 2.6788L22.2445 24.4673Z" fill="#F9F9F9" stroke="white" stroke-width="0.125"/>
<path d="M32.6291 2.96915L32.6292 2.96915C32.6951 2.86801 32.7682 2.77676 32.8361 2.70999C32.8699 2.67668 32.9037 2.64819 32.9357 2.6276C32.9659 2.60821 33.0024 2.59058 33.0399 2.59058C33.0671 2.59058 33.1002 2.59771 33.1331 2.60702C33.1674 2.61672 33.2069 2.63037 33.2489 2.64652C33.3331 2.67885 33.4306 2.72238 33.523 2.76784C33.6154 2.81324 33.7041 2.86128 33.7704 2.90286C33.8033 2.9235 33.8324 2.9436 33.8539 2.96181C33.8646 2.9708 33.8752 2.98086 33.8837 2.99164C33.8903 3.00001 33.9046 3.01959 33.9046 3.04608C33.9046 3.05922 33.9008 3.07097 33.8991 3.07583C33.8968 3.08276 33.8938 3.09025 33.8905 3.09778C33.8839 3.11296 33.8746 3.13202 33.8633 3.15397C33.8406 3.19809 33.8081 3.25715 33.7685 3.32682C33.6892 3.46631 33.58 3.65048 33.4604 3.84723C33.2102 4.26336 32.8294 5.0002 32.5171 5.64475C32.361 5.96685 32.2225 6.26498 32.1264 6.48755C32.0782 6.599 32.0411 6.69055 32.0177 6.75634C32.0118 6.77305 32.0068 6.7877 32.0029 6.80031C32.0063 6.79983 32.0099 6.7993 32.0136 6.7987C32.0627 6.79088 32.1329 6.77405 32.2207 6.74917C32.3954 6.69958 32.6325 6.62008 32.8936 6.52423C33.4162 6.33242 34.0299 6.07719 34.4276 5.86966L34.4276 5.86966C34.8355 5.65697 35.464 5.28285 35.819 5.02042L35.8198 5.01983L35.8198 5.01983L36.4768 4.55004L36.5129 4.52416L36.5492 4.54988L36.8986 4.79736C36.8987 4.79742 36.8988 4.79748 36.8988 4.79754C36.9999 4.86783 37.0906 4.94521 37.1569 5.01489C37.1899 5.04966 37.218 5.08373 37.2383 5.11505C37.2568 5.14368 37.2754 5.17975 37.2754 5.21608C37.2754 5.24328 37.2656 5.26916 37.2543 5.29095C37.2426 5.31362 37.2262 5.33733 37.207 5.36153C37.1684 5.40996 37.1136 5.46576 37.0469 5.52658C36.913 5.6485 36.7249 5.79587 36.5058 5.9525C36.0673 6.26589 35.4994 6.61994 34.98 6.88629L34.9515 6.83067M32.6291 2.96915L35.7877 12.7341M32.6291 2.96915L32.6285 2.97019C32.1569 3.7258 31.2082 5.6344 30.7464 6.77298M32.6291 2.96915L32.6815 3.00328C32.2123 3.75508 31.2651 5.66027 30.8043 6.79647M34.9515 6.83067L34.9802 6.8862C33.9019 7.44319 32.8124 7.85584 31.9769 8.01958C31.8483 8.04535 31.753 8.06469 31.6787 8.08486C31.6045 8.10498 31.556 8.12474 31.5194 8.14918C31.4479 8.19691 31.4094 8.26977 31.331 8.45287L31.2735 8.42827M34.9515 6.83067C33.8763 7.38607 32.7925 7.79607 31.9647 7.95827C31.4527 8.06087 31.4271 8.06947 31.2735 8.42827M34.9515 6.83067C35.9841 6.30107 37.2129 5.42108 37.2129 5.21608C37.2129 5.14768 37.0593 4.98527 36.8629 4.84867L30.4629 10.9997C30.4203 10.9571 31.0517 8.94947 31.2735 8.42827M31.2735 8.42827L31.331 8.45275C31.2215 8.7101 31.0091 9.3394 30.8287 9.91222C30.7387 10.1981 30.657 10.4686 30.6006 10.6701C30.5724 10.7709 30.5506 10.8537 30.5374 10.9122C30.5351 10.9222 30.5331 10.9313 30.5314 10.9395C30.5334 10.9393 30.5354 10.939 30.5374 10.9387C30.5824 10.9326 30.647 10.9201 30.7285 10.9017C30.8911 10.8651 31.1158 10.8064 31.3751 10.7334C31.8934 10.5874 32.5472 10.3849 33.1135 10.1888L33.1136 10.1888C35.1216 9.49877 36.8993 8.57054 38.5067 7.37863C38.5067 7.37857 38.5068 7.37852 38.5069 7.37847L39.1977 6.85757L39.2404 6.82538L39.2788 6.86257L39.5344 7.10997L39.5348 7.11037L39.5462 7.12122C39.6644 7.23354 39.76 7.32437 39.8178 7.40585C39.8484 7.44893 39.8714 7.49326 39.8809 7.54066C39.8906 7.58933 39.8854 7.63715 39.8659 7.68504C39.829 7.77578 39.7403 7.8673 39.6094 7.97693C39.4817 8.08385 39.3041 8.21569 39.0721 8.38782L39.0422 8.41C36.9353 9.97914 33.9236 11.3321 31.0067 12.0344C30.6555 12.1201 30.4478 12.1766 30.3203 12.2318C30.2574 12.259 30.2181 12.2842 30.1917 12.3095C30.1662 12.3339 30.1502 12.3608 30.1379 12.3959L30.1373 12.3977L30.1373 12.3977C30.0501 12.6242 29.9172 13.2138 29.7692 13.9815C29.6218 14.7463 29.4606 15.6811 29.3162 16.5926C29.1717 17.5041 29.0441 18.3918 28.9638 19.0624C28.9237 19.3979 28.8955 19.6782 28.8829 19.8797C28.8778 19.961 28.8753 20.0286 28.8755 20.0813C28.9039 20.0423 28.9383 19.993 28.9776 19.935C29.09 19.7694 29.2409 19.5353 29.4026 19.271L29.4028 19.2707C30.952 16.7773 33.3048 14.3275 35.7527 12.6823M35.7527 12.6823C35.7528 12.6823 35.7528 12.6822 35.7528 12.6822L35.7877 12.7341M35.7527 12.6823C35.7527 12.6823 35.7527 12.6823 35.7527 12.6823L35.7877 12.7341M35.7527 12.6823C36.9437 11.8759 39.3038 10.7203 40.6406 10.2826M35.7877 12.7341C36.9739 11.9309 39.3291 10.7777 40.6603 10.3419M40.6406 10.2826C40.6405 10.2826 40.6404 10.2826 40.6403 10.2827L40.6603 10.3419M40.6406 10.2826C40.9311 10.1842 41.1983 10.0987 41.3942 10.0397C41.4921 10.0102 41.5728 9.98726 41.63 9.97265C41.6583 9.9654 41.6821 9.9599 41.6996 9.95676C41.708 9.95525 41.7173 9.95387 41.7257 9.95352C41.7296 9.95335 41.7366 9.95322 41.7446 9.95467C41.7485 9.9554 41.7555 9.957 41.7631 9.96092C41.7685 9.96365 41.7761 9.9685 41.783 9.97656M40.6406 10.2826C40.6407 10.2825 40.6408 10.2825 40.6408 10.2825L40.6603 10.3419M40.6603 10.3419L41.783 9.97656M41.783 9.97656C41.7819 9.97533 41.7808 9.97416 41.7797 9.97308L41.7355 10.0173L41.7913 9.98906C41.7888 9.98422 41.786 9.98008 41.783 9.97656ZM41.783 9.97656C41.7882 9.98242 41.7935 9.98962 41.7975 9.99507C41.8034 10.0032 41.8107 10.0138 41.8192 10.0262C41.8362 10.0511 41.8586 10.0849 41.8849 10.1251C41.9374 10.2056 42.0059 10.3127 42.0786 10.4282L42.0788 10.4286L42.3432 10.8558L42.385 10.9233L42.3096 10.9481L41.3454 11.2643L41.3259 11.2049M41.783 9.97656L42.0257 10.4615L42.2562 10.834L42.2706 10.8293L42.2901 10.8887L42.2369 10.9216L42.229 10.9087L41.3259 11.2049M41.3259 11.2049L41.3454 11.2643M41.3259 11.2049C40.8053 11.3757 39.9265 11.7089 39.3717 11.9395M41.3454 11.2643L42.0769 13.1013C40.7285 13.5713 39.5681 13.7677 37.8273 13.8191C36.9057 13.8531 36.2741 13.8361 36.2229 13.7849M41.3454 11.2643C40.8268 11.4344 39.9498 11.7669 39.396 11.997M41.3454 11.2643L43.4571 13.0942M39.3717 11.9395C38.1771 12.4521 36.1035 13.6653 36.2229 13.7849M39.3717 11.9395L39.3957 11.9972C39.3958 11.9971 39.3959 11.9971 39.396 11.997M39.3717 11.9395L39.3963 11.9969C39.3962 11.997 39.3961 11.997 39.396 11.997M36.2229 13.7849L36.2671 13.7407C36.2781 13.7517 36.2811 13.7657 36.2803 13.7754C36.28 13.7793 36.2792 13.7818 36.2789 13.7826C36.2786 13.7834 36.2787 13.7829 36.2797 13.7811C36.2834 13.7746 36.2923 13.7632 36.309 13.7464M36.2229 13.7849L36.2671 13.7407C36.2609 13.7344 36.2564 13.7337 36.2615 13.7357C36.2653 13.7371 36.2719 13.7391 36.2822 13.7414C36.2899 13.7431 36.2988 13.7448 36.309 13.7464M36.309 13.7464C36.3262 13.7492 36.3472 13.7519 36.3719 13.7544C36.4504 13.7624 36.561 13.7683 36.7001 13.7714C36.978 13.7778 37.3649 13.7736 37.825 13.7566L37.8255 13.7566C39.5612 13.7053 40.7151 13.5098 42.0563 13.0423L42.0565 13.0422C42.5257 12.88 42.9784 12.7261 43.0555 12.7004L43.0581 12.6995L43.0581 12.6996C43.0965 12.6886 43.1364 12.6859 43.1767 12.6983C43.2165 12.7106 43.2504 12.7356 43.2806 12.769C43.3387 12.8334 43.3933 12.941 43.4571 13.0942M36.309 13.7464C36.3118 13.7436 36.3149 13.7405 36.3182 13.7374C36.3623 13.6951 36.4351 13.6381 36.5326 13.5692C36.7268 13.4321 37.0104 13.2543 37.3361 13.0635C37.9876 12.682 38.802 12.252 39.396 11.997M43.4571 13.0942L43.3995 13.1185M43.4571 13.0942L43.0753 12.7597C43.1947 12.7255 43.2715 12.8109 43.3995 13.1185M43.4571 13.0942C43.5042 13.2058 43.5473 13.3136 43.5786 13.3992C43.5943 13.4419 43.6073 13.4797 43.6165 13.5101C43.621 13.5252 43.6248 13.5391 43.6276 13.5512C43.63 13.5622 43.6326 13.5757 43.6326 13.5883C43.6326 13.6107 43.6224 13.6274 43.616 13.6361C43.6089 13.6458 43.6004 13.654 43.5925 13.6606C43.5767 13.6739 43.5557 13.6876 43.5322 13.7012C43.4846 13.7288 43.4174 13.7615 43.3361 13.7975C43.173 13.8698 42.9473 13.9582 42.6944 14.0497C42.1887 14.2328 41.5698 14.4301 41.1186 14.5376C39.8065 14.8552 38.5463 14.9667 36.8778 14.8981C36.077 14.8726 35.2797 14.8212 35.1125 14.7948C35.0434 14.7844 34.9943 14.7804 34.9465 14.7879C34.8995 14.7953 34.849 14.8146 34.7803 14.8584C34.6392 14.9485 34.4372 15.1314 34.0554 15.488L34.0552 15.4881C33.5866 15.9232 33.1715 16.3302 32.8804 16.6355C32.7346 16.7883 32.6208 16.9147 32.5469 17.006C32.5136 17.0472 32.4897 17.0797 32.4747 17.1035C32.4916 17.1096 32.5137 17.1161 32.5413 17.1229C32.6047 17.1382 32.6918 17.1535 32.8007 17.1682C33.0182 17.1975 33.3171 17.2241 33.6743 17.2465C34.3886 17.2912 35.3323 17.319 36.3169 17.319C38.2015 17.319 38.7697 17.2848 39.7805 17.1317C41.2107 16.9102 42.3327 16.6291 43.4372 16.2124C43.6648 16.1264 43.8781 16.0574 44.0397 16.015C44.1202 15.9939 44.1895 15.979 44.242 15.9722C44.268 15.9689 44.2924 15.9672 44.3131 15.9685C44.3234 15.9692 44.3352 15.9707 44.3467 15.9744C44.357 15.9777 44.3727 15.9846 44.3853 15.9993C44.4029 16.0191 44.4179 16.0482 44.4307 16.077C44.4445 16.1082 44.4587 16.1463 44.4726 16.1882C44.5006 16.2721 44.5288 16.375 44.5526 16.4767C44.5763 16.5783 44.596 16.6804 44.6065 16.7628C44.6117 16.8038 44.6149 16.8415 44.6148 16.8725C44.6147 16.8879 44.6139 16.9032 44.6116 16.9171C44.6097 16.9291 44.6059 16.9458 44.5964 16.961C44.5863 16.9781 44.571 16.9909 44.5597 16.9994C44.5462 17.0095 44.5295 17.0199 44.511 17.0304C44.4738 17.0514 44.424 17.0754 44.3648 17.1016C44.246 17.1541 44.0843 17.2173 43.8976 17.2854C43.524 17.4215 43.047 17.5778 42.6064 17.7063L42.606 17.7064C41.4921 18.0239 39.7729 18.3235 38.4044 18.4433L38.4041 18.4434C36.9663 18.5633 34.0265 18.4949 32.6816 18.3062C32.4258 18.2721 32.1787 18.2402 31.9881 18.2167C31.8928 18.205 31.8118 18.1954 31.751 18.1888C31.6925 18.1824 31.6564 18.1792 31.6431 18.1788C31.6422 18.1791 31.6408 18.1797 31.6388 18.1807C31.6326 18.1838 31.6235 18.1894 31.6114 18.1987C31.5873 18.2173 31.5563 18.2466 31.5185 18.2873C31.4433 18.3685 31.347 18.4889 31.233 18.6437C31.0052 18.953 30.7106 19.3942 30.3793 19.9201C29.7167 20.9717 28.9089 22.3586 28.1971 23.6986M43.4571 13.0942C43.4571 13.0943 43.4572 13.0944 43.4572 13.0945L43.3995 13.1185M43.3995 13.1185L28.1971 23.6986M30.8043 6.79647L30.7464 6.77297C30.7464 6.77298 30.7464 6.77298 30.7464 6.77298M30.8043 6.79647C29.3621 10.3505 28.4491 14.1095 27.9627 18.5007M30.8043 6.79647L27.9627 18.5007M30.7464 6.77298C29.3018 10.333 28.3875 14.0977 27.9006 18.4938L27.9006 18.4938C27.7041 20.2721 27.5502 22.6068 27.5502 23.8145L27.5502 23.8151L27.5588 24.6523L27.6766 24.6809L28.1971 23.6986M30.7464 6.77298L28.1971 23.6986M27.9627 18.5007C27.7663 20.2777 27.6127 22.6099 27.6127 23.8145L27.62 24.5207L27.5661 24.6224L27.6213 24.6517L27.6838 24.651L27.6826 24.536L28.1419 23.6693L27.9627 18.5007ZM32.4593 17.132C32.459 17.1331 32.4588 17.1338 32.4588 17.1337C32.4588 17.1337 32.4589 17.1333 32.4591 17.1324C32.4592 17.1323 32.4592 17.1321 32.4593 17.132ZM38.3989 18.3811C39.7643 18.2615 41.4795 17.9625 42.5889 17.6463L38.3989 18.3811Z" fill="#F9F9F9" stroke="white" stroke-width="0.125"/>
<path d="M10.7972 23.461C11.9226 23.5125 12.8855 23.7364 13.9329 24.1747L13.933 24.1748C14.2594 24.3124 14.4293 24.3794 14.5775 24.4047C14.7229 24.4295 14.8498 24.4144 15.0938 24.3758L15.0945 24.3757C15.3892 24.3323 16.1777 24.2895 16.8612 24.2895C16.8612 24.2895 16.8613 24.2895 16.8614 24.2895L17.9398 24.2822L17.6301 23.9968C17.63 23.9967 17.63 23.9967 17.6299 23.9966C16.7833 23.2255 15.289 22.3495 14.0412 21.8992C11.7515 21.0755 8.99319 21.0923 6.58246 21.9419C6.17362 22.087 5.69042 22.2823 5.50622 22.3745C5.40555 22.426 5.31913 22.4636 5.24664 22.4785C5.17245 22.4937 5.10075 22.4873 5.04539 22.4344C4.99495 22.3862 4.97038 22.3101 4.9565 22.2201C4.94226 22.1278 4.9375 22.0074 4.9375 21.8574C4.9375 21.7616 4.93852 21.6843 4.9452 21.6209C4.95192 21.557 4.96476 21.5027 4.99114 21.4546C5.04361 21.359 5.142 21.3042 5.28718 21.2294L5.28783 21.2291L5.28783 21.2291C6.16593 20.7896 7.82009 20.3266 9.02906 20.1893C9.87243 20.0859 11.6278 20.1548 12.5627 20.3178L12.552 20.3794L12.5627 20.3178C15.026 20.7475 17.4442 22.0786 19.2618 23.9842L19.2618 23.9843C20.866 25.6675 21.8608 27.5831 22.4007 29.9855L22.4008 29.9858C22.5388 30.6156 22.6071 31.5112 22.6071 32.4018C22.6071 33.2924 22.5388 34.1839 22.4008 34.8053C22.0238 36.5123 21.4492 37.895 20.5402 39.2518C20.3904 39.4787 20.2385 39.6994 20.1141 39.8711C20.052 39.9569 19.9964 40.0309 19.9513 40.0875C19.9084 40.1414 19.8704 40.1853 19.8443 40.2058C19.8093 40.2341 19.7613 40.2453 19.7134 40.2492C19.6633 40.2533 19.6032 40.2501 19.5357 40.2414C19.4003 40.2241 19.2259 40.1834 19.0234 40.1245C18.6179 40.0065 18.0919 39.8131 17.5244 39.5772C16.3898 39.1055 15.0825 38.461 14.233 37.9027C12.6844 36.8918 11.2208 35.641 10.1329 34.4059L10.1329 34.4059C9.68859 33.9012 9.31215 33.4473 9.0454 33.0988C8.91212 32.9246 8.80558 32.7759 8.73154 32.6599C8.69457 32.602 8.66504 32.5512 8.64425 32.5088C8.62464 32.4688 8.60878 32.4285 8.60698 32.3945L8.6068 32.3912H8.60689C8.60689 32.3614 8.61845 32.324 8.63184 32.2886C8.64628 32.2503 8.66669 32.2048 8.6912 32.1552C8.7403 32.0558 8.80755 31.9365 8.8811 31.8197L8.88146 31.8191L9.14586 31.4091L9.19621 31.331L9.24956 31.4071L9.59096 31.8939L9.59108 31.8941C10.4322 33.1019 12.2028 34.9598 13.4012 35.8959L13.4013 35.8959C14.2938 36.5938 15.5021 37.3519 16.5483 37.88L16.5483 37.88C17.0199 38.1182 17.6475 38.3951 18.1862 38.6125C18.4554 38.7212 18.7018 38.8147 18.8947 38.881C18.9913 38.9142 19.0738 38.9402 19.1388 38.958C19.2016 38.9751 19.2425 38.9828 19.2635 38.9838C19.2649 38.983 19.2674 38.9817 19.271 38.9794C19.281 38.9728 19.2946 38.9616 19.312 38.9445C19.3467 38.9105 19.3901 38.8592 19.4408 38.7925C19.5418 38.6594 19.6667 38.471 19.8 38.2524C20.0666 37.8155 20.3638 37.2628 20.5672 36.8003C21.874 33.776 21.7722 30.3865 20.2957 27.4386C20.0834 27.0177 19.8436 26.6056 19.6318 26.2853C19.5258 26.125 19.4273 25.9886 19.3433 25.8859C19.2571 25.7806 19.192 25.7183 19.1529 25.697C19.0981 25.6679 18.9848 25.6356 18.8212 25.6044C18.66 25.5736 18.457 25.5449 18.2287 25.5205C17.7722 25.4716 17.2176 25.4397 16.6994 25.4397C14.502 25.4397 12.4317 26.0766 10.5385 27.3175C10.1551 27.5749 9.57177 28.0799 9.02648 28.6077C8.48054 29.1361 7.97938 29.6809 7.75736 30.0164L10.7972 23.461ZM10.7972 23.461C9.58672 23.4008 8.64047 23.5299 7.59171 23.874L7.59158 23.874C7.16149 24.0162 6.63607 24.2417 6.20967 24.453C5.99645 24.5587 5.80681 24.6614 5.66558 24.7489C5.59509 24.7926 5.53545 24.8332 5.49063 24.8692C5.46823 24.8872 5.44856 24.9048 5.43279 24.9217C5.41775 24.9378 5.40283 24.9569 5.39435 24.9782L5.39433 24.9782L5.39376 24.9798C5.3823 25.0108 5.37908 25.0504 5.37914 25.0899C5.37921 25.131 5.38296 25.1787 5.38927 25.2296C5.40191 25.3316 5.42538 25.4508 5.45354 25.5642C5.48167 25.6774 5.51499 25.7868 5.54788 25.869C5.56417 25.9098 5.58136 25.9464 5.59897 25.9738C5.60768 25.9873 5.61813 26.0012 5.63055 26.0124C5.64204 26.0228 5.66281 26.0377 5.6912 26.0377C5.70583 26.0377 5.72034 26.0341 5.73121 26.0308C5.74327 26.0272 5.75659 26.0223 5.77051 26.0166C5.79842 26.0051 5.83217 25.989 5.86926 25.9699C5.94361 25.9317 6.03468 25.8795 6.12535 25.8233L6.1257 25.8231C7.99691 24.6449 10.3001 24.2888 12.4337 24.8482L12.4345 24.8484C12.5167 24.8689 12.5918 24.8955 12.6452 24.9202C12.6588 24.9265 12.6704 24.9325 12.6801 24.9379C12.6697 24.945 12.6567 24.953 12.6412 24.9617C12.5876 24.9915 12.5121 25.0243 12.4289 25.0534L12.4285 25.0535C11.7316 25.3034 10.6434 25.8698 9.90588 26.3677C9.04799 26.9433 7.73739 28.1435 7.16926 28.8931C7.16917 28.8932 7.16908 28.8933 7.16898 28.8934L6.80254 29.3625L6.77913 29.3925L6.79498 29.427L6.93998 29.7432L6.93995 29.7432L6.94089 29.7451L6.94515 29.7536C7.02904 29.9214 7.14783 30.159 7.22648 30.2732L7.35403 30.4689L7.40607 30.5487L7.45856 30.4692L7.75731 30.0165L10.7972 23.461ZM16.5202 37.9358C17.4674 38.4142 19.0374 39.0464 19.2678 39.0464C19.43 39.0464 20.215 37.7564 20.6246 36.8252C21.9387 33.7838 21.8363 30.375 20.3516 27.4106C19.925 26.5648 19.3874 25.7532 19.1826 25.642C18.9266 25.5054 17.7404 25.3772 16.6994 25.3772C14.4892 25.3772 12.407 26.018 10.504 27.2654L16.5202 37.9358ZM16.5202 37.9358C15.4706 37.406 14.2588 36.6458 13.3628 35.9452M16.5202 37.9358L13.3628 35.9452M13.3628 35.9452C12.1596 35.0054 10.3846 33.143 9.53979 31.9298L9.23713 31.4982L9.25091 31.4768L9.19839 31.443L9.14722 31.4789L9.16182 31.4997L8.93399 31.853C8.78879 32.0836 8.66939 32.3228 8.66939 32.3912C8.67799 32.5536 9.29239 33.3566 10.1798 34.3646L13.3628 35.9452Z" fill="#F9F9F9" stroke="white" stroke-width="0.125"/>
<path d="M38.2992 20.1886L38.2993 20.1886C40.2547 19.9826 42.2528 20.2487 44.0713 20.9527C44.0713 20.9527 44.0713 20.9527 44.0713 20.9527L44.0735 20.9535C44.3212 21.049 44.5099 21.1216 44.6508 21.1863C44.7913 21.2507 44.8924 21.3105 44.9589 21.3833C45.0286 21.4595 45.0563 21.5451 45.0616 21.6495C45.0667 21.7486 45.0517 21.8701 45.0331 22.0211L45.0326 22.0252L45.0324 22.0268L44.9814 22.5548L44.9727 22.6448L44.8916 22.6049L44.4052 22.3657L44.4045 22.3654C42.9978 21.6527 41.4803 21.3127 39.6882 21.3127H39.6878C38.3116 21.3043 37.4477 21.4317 36.2169 21.8224L36.2166 21.8225C34.9363 22.2216 33.2722 23.1655 32.4008 23.9784C32.4007 23.9784 32.4007 23.9785 32.4007 23.9785L32.0791 24.2816L33.1174 24.2889C33.1175 24.2889 33.1176 24.2889 33.1177 24.2889L33.1179 24.2889L33.1174 24.3514C33.7746 24.3514 34.5682 24.3942 34.884 24.437L38.2992 20.1886ZM38.2992 20.1886C34.8075 20.558 31.4458 22.6014 29.4731 25.5555L29.4729 25.5557C28.5298 26.9803 27.938 28.3802 27.5779 30.0623C27.4655 30.5861 27.4123 31.5102 27.4145 32.4282C27.4166 33.3461 27.4742 34.2679 27.5865 34.7874L38.2992 20.1886ZM33.5014 37.9352C35.1912 37.0808 36.821 35.9104 38.2204 34.5264C39.0568 33.7062 40.0978 32.4846 40.5416 31.8012L40.7429 31.4987L40.7285 31.4773L40.7804 31.4424L40.8324 31.477L40.8181 31.4985L41.062 31.861L41.1137 31.8259L40.8323 31.4075L40.7801 31.33L40.7284 31.4078L40.4896 31.7666L40.4892 31.7672C40.0487 32.4454 39.0111 33.6635 38.1766 34.4818L38.1765 34.482C36.7816 35.8614 35.1571 37.028 33.4732 37.8794M33.5014 37.9352L33.4734 37.8793C33.4734 37.8793 33.4733 37.8794 33.4732 37.8794M33.5014 37.9352L33.4732 37.8794M33.5014 37.9352C32.7164 38.3282 30.9414 39.0458 30.7452 39.0458C30.4806 39.0458 29.431 37.1406 29.03 35.9274M33.4732 37.8794C33.0829 38.0748 32.4448 38.3517 31.8791 38.5799C31.5964 38.694 31.3325 38.7956 31.1273 38.8686C31.0247 38.9052 30.9373 38.9343 30.87 38.9543C30.8364 38.9642 30.8083 38.9717 30.7863 38.9766C30.763 38.9818 30.7502 38.9833 30.7452 38.9833C30.7453 38.9833 30.7453 38.9833 30.7452 38.9833C30.7441 38.9831 30.7364 38.9816 30.7204 38.9714C30.7032 38.9605 30.6817 38.9427 30.6561 38.9172C30.6048 38.8663 30.5428 38.7903 30.4728 38.6927C30.3329 38.4979 30.1657 38.2243 29.9935 37.9114C29.6491 37.2856 29.2883 36.5097 29.0894 35.9079M29.0894 35.9079L29.03 35.9274M29.0894 35.9079C28.7244 34.795 28.6059 34.1088 28.5549 32.7982L28.5549 32.7981C28.4616 30.4188 29.047 28.279 30.3196 26.3509M29.0894 35.9079C29.0894 35.9079 29.0894 35.9078 29.0894 35.9078L29.03 35.9274M29.03 35.9274C28.663 34.8084 28.5436 34.1164 28.4924 32.8006C28.3986 30.4086 28.9874 28.2558 30.2674 26.3164M30.3196 26.3509L30.2674 26.3164M30.3196 26.3509C30.5395 26.0184 30.6492 25.857 30.7593 25.7627C30.8642 25.6727 30.9707 25.643 31.2026 25.5914C31.5019 25.5248 32.2628 25.4819 33.288 25.4819M30.3196 26.3509C30.3196 26.3509 30.3196 26.3508 30.3196 26.3508L30.2674 26.3164M30.2674 26.3164C30.7026 25.6586 30.7282 25.633 31.189 25.5304C31.4962 25.462 32.2642 25.4194 33.2882 25.4194M33.288 25.4819C33.288 25.4819 33.2879 25.4819 33.2879 25.4819L33.2882 25.4194M33.288 25.4819C34.0267 25.4862 34.4505 25.4926 34.796 25.5244C35.1401 25.5559 35.4074 25.6127 35.833 25.7192M33.288 25.4819C33.2881 25.4819 33.2882 25.4819 33.2882 25.4819V25.4194M33.2882 25.4194C34.7644 25.428 34.9948 25.445 35.8482 25.6586M35.833 25.7192L35.8482 25.6586M35.833 25.7192C38.3371 26.3481 40.4326 27.7072 41.9941 29.7122M35.833 25.7192C35.833 25.7192 35.833 25.7192 35.833 25.7192L35.8482 25.6586M35.8482 25.6586C38.3656 26.2908 40.4732 27.6576 42.0434 29.6738M41.9941 29.7122L41.9939 29.712L42.0434 29.6738M41.9941 29.7122L42.5741 30.4638L42.6345 30.5421L42.6793 30.4539L43.2085 29.4117L43.227 29.3753L43.2011 29.3438L42.7317 28.7714L42.6834 28.811M41.9941 29.7122L42.0434 29.6738M42.0434 29.6738L42.5813 30.3708L42.5679 30.3973L42.6236 30.4256L42.6731 30.3874L42.6549 30.3639L43.1528 29.3834L42.6834 28.811M42.6834 28.811L42.7317 28.7714C41.4019 27.1479 39.6523 25.8947 37.5361 25.0198L37.5354 25.0196L37.3147 24.9312M42.6834 28.811C41.3608 27.1964 39.62 25.949 37.5122 25.0776L37.2201 24.9606L37.3147 24.9312M37.3147 24.9312L37.2228 24.8943M37.3147 24.9312L37.5301 24.8641L37.5122 24.8042M37.2228 24.8943L37.5304 24.864L37.5308 24.8639L37.5122 24.8042M37.2228 24.8943L37.5122 24.8042M37.2228 24.8943L36.0188 24.2574C36.326 24.1208 36.9576 23.8986 37.4098 23.7706C38.1522 23.5656 38.3826 23.5398 39.6456 23.5398C40.917 23.5398 41.1304 23.5656 41.9068 23.779C42.6834 23.9926 44.0658 24.5906 44.4498 24.8812C44.5778 24.9836 44.5864 25.0434 44.501 25.4792C44.4412 25.7526 44.3644 25.9746 44.3304 25.9746C44.2876 25.9746 43.9292 25.7868 43.5368 25.5646C41.7106 24.5138 39.4236 24.2318 37.5122 24.8042M41.3224 32.1603C41.2692 32.0657 41.1957 31.9468 41.1138 31.826L27.6476 34.7742C27.989 36.3546 28.6716 37.9694 29.542 39.2678L29.4901 39.3025C29.4901 39.3025 29.4901 39.3026 29.4901 39.3026C29.534 39.3682 29.575 39.4301 29.6135 39.4883C29.7368 39.6742 29.8348 39.8222 29.9218 39.9347C30.036 40.0827 30.1391 40.1805 30.2676 40.2241C30.3959 40.2675 30.5381 40.2528 30.7206 40.2054C30.8599 40.1691 31.0304 40.1115 31.2449 40.039C31.311 40.0166 31.3813 39.9929 31.4562 39.9679C33.5376 39.2819 36.0447 37.8768 37.7997 36.4112L37.7997 36.4111C38.426 35.8872 39.3265 34.9727 40.0696 34.1475C40.4413 33.7347 40.7747 33.3431 41.0154 33.0328C41.1357 32.8778 41.2337 32.7421 41.3018 32.6336C41.3359 32.5794 41.3633 32.5309 41.3823 32.4893C41.4004 32.4499 41.4147 32.4093 41.4147 32.3736C41.4147 32.3567 41.4093 32.3397 41.4053 32.3284C41.4006 32.3149 41.3941 32.2995 41.3864 32.2828C41.3709 32.2494 41.3489 32.2075 41.3224 32.1603Z" fill="#F9F9F9" stroke="white" stroke-width="0.125"/>
</g>
<defs>
<filter id="filter0_d_1_550" x="0.875" y="0.875" width="48.2501" height="48.25" filterUnits="userSpaceOnUse" color-interpolation-filters="sRGB">
<feFlood flood-opacity="0" result="BackgroundImageFix"/>
<feColorMatrix in="SourceAlpha" type="matrix" values="0 0 0 0 0 0 0 0 0 0 0 0 0 0 0 0 0 0 127 0" result="hardAlpha"/>
<feOffset dy="4"/>
<feGaussianBlur stdDeviation="2"/>
<feComposite in2="hardAlpha" operator="out"/>
<feColorMatrix type="matrix" values="0 0 0 0 0 0 0 0 0 0 0 0 0 0 0 0 0 0 0.25 0"/>
<feBlend mode="normal" in2="BackgroundImageFix" result="effect1_dropShadow_1_550"/>
<feBlend mode="normal" in="SourceGraphic" in2="effect1_dropShadow_1_550" result="shape"/>
</filter>
</defs>
</svg>
