<svg width="81" height="80" viewBox="0 0 81 80" fill="none" xmlns="http://www.w3.org/2000/svg">
<rect x="0.5" width="80" height="80" rx="20" fill="url(#paint0_linear_104_527)"/>
<path d="M49 18H34C33.4696 18 32.9609 18.2107 32.5858 18.5858C32.2107 18.9609 32 19.4696 32 20V23H30V25H32V27H30V29H32V31H30V33H32V36C32 36.5304 32.2107 37.0391 32.5858 37.4142C32.9609 37.7893 33.4696 38 34 38H49C49.2652 38 49.5196 37.8946 49.7071 37.7071C49.8946 37.5196 50 37.2652 50 37V19C50 18.7348 49.8946 18.4804 49.7071 18.2929C49.5196 18.1054 49.2652 18 49 18ZM41 20.999C42.648 20.999 44 22.35 44 23.999C43.9971 24.7938 43.6801 25.5553 43.1182 26.1175C42.5562 26.6796 41.7948 26.9968 41 27C39.353 27 38 25.647 38 23.999C38 22.35 39.353 20.999 41 20.999ZM47 34H35V33.25C35 31.031 37.705 28.75 41 28.75C44.295 28.75 47 31.031 47 33.25V34Z" fill="#F2F7FC"/>
<path d="M17.92 49.68C17.92 49.16 18.012 48.652 18.196 48.156C18.38 47.652 18.648 47.196 19 46.788C19.36 46.372 19.796 46.044 20.308 45.804C20.82 45.556 21.4 45.432 22.048 45.432C22.816 45.432 23.48 45.608 24.04 45.96C24.6 46.304 25.016 46.748 25.288 47.292L24.232 48C24.072 47.656 23.868 47.384 23.62 47.184C23.38 46.984 23.116 46.844 22.828 46.764C22.548 46.684 22.272 46.644 22 46.644C21.552 46.644 21.16 46.736 20.824 46.92C20.488 47.096 20.204 47.332 19.972 47.628C19.748 47.924 19.576 48.256 19.456 48.624C19.344 48.992 19.288 49.36 19.288 49.728C19.288 50.136 19.356 50.532 19.492 50.916C19.628 51.292 19.816 51.628 20.056 51.924C20.304 52.212 20.596 52.44 20.932 52.608C21.268 52.776 21.636 52.86 22.036 52.86C22.308 52.86 22.592 52.812 22.888 52.716C23.184 52.62 23.456 52.472 23.704 52.272C23.96 52.064 24.16 51.792 24.304 51.456L25.42 52.092C25.244 52.516 24.968 52.876 24.592 53.172C24.224 53.468 23.808 53.692 23.344 53.844C22.888 53.996 22.436 54.072 21.988 54.072C21.388 54.072 20.84 53.948 20.344 53.7C19.848 53.444 19.42 53.108 19.06 52.692C18.7 52.268 18.42 51.796 18.22 51.276C18.02 50.748 17.92 50.216 17.92 49.68ZM29.3034 54.12C28.8074 54.12 28.3634 54.036 27.9714 53.868C27.5794 53.692 27.2394 53.452 26.9514 53.148C26.6714 52.844 26.4554 52.5 26.3034 52.116C26.1514 51.724 26.0754 51.308 26.0754 50.868C26.0754 50.428 26.1514 50.012 26.3034 49.62C26.4554 49.228 26.6714 48.884 26.9514 48.588C27.2394 48.284 27.5794 48.048 27.9714 47.88C28.3714 47.704 28.8154 47.616 29.3034 47.616C29.7914 47.616 30.2314 47.704 30.6234 47.88C31.0234 48.048 31.3634 48.284 31.6434 48.588C31.9314 48.884 32.1514 49.228 32.3034 49.62C32.4554 50.012 32.5314 50.428 32.5314 50.868C32.5314 51.308 32.4554 51.724 32.3034 52.116C32.1514 52.5 31.9314 52.844 31.6434 53.148C31.3634 53.452 31.0234 53.692 30.6234 53.868C30.2314 54.036 29.7914 54.12 29.3034 54.12ZM27.4314 50.88C27.4314 51.28 27.5154 51.64 27.6834 51.96C27.8514 52.28 28.0754 52.532 28.3554 52.716C28.6354 52.9 28.9514 52.992 29.3034 52.992C29.6474 52.992 29.9594 52.9 30.2394 52.716C30.5274 52.524 30.7554 52.268 30.9234 51.948C31.0914 51.62 31.1754 51.26 31.1754 50.868C31.1754 50.468 31.0914 50.108 30.9234 49.788C30.7554 49.468 30.5274 49.216 30.2394 49.032C29.9594 48.84 29.6474 48.744 29.3034 48.744C28.9514 48.744 28.6354 48.84 28.3554 49.032C28.0754 49.224 27.8514 49.48 27.6834 49.8C27.5154 50.112 27.4314 50.472 27.4314 50.88ZM39.3302 54H38.0102V50.484C38.0102 49.9 37.9142 49.472 37.7222 49.2C37.5382 48.928 37.2622 48.792 36.8942 48.792C36.6382 48.792 36.3822 48.856 36.1262 48.984C35.8782 49.112 35.6542 49.288 35.4542 49.512C35.2542 49.728 35.1102 49.98 35.0222 50.268V54H33.7022V47.724H34.9022V48.984C35.0622 48.704 35.2702 48.464 35.5262 48.264C35.7902 48.056 36.0862 47.896 36.4142 47.784C36.7422 47.672 37.0902 47.616 37.4582 47.616C37.8342 47.616 38.1422 47.684 38.3822 47.82C38.6302 47.956 38.8222 48.144 38.9582 48.384C39.1022 48.616 39.1982 48.888 39.2462 49.2C39.3022 49.504 39.3302 49.828 39.3302 50.172V54ZM44.3074 53.676C44.1954 53.732 44.0554 53.792 43.8874 53.856C43.7194 53.92 43.5274 53.976 43.3114 54.024C43.1034 54.072 42.8874 54.096 42.6634 54.096C42.3914 54.096 42.1394 54.048 41.9074 53.952C41.6754 53.856 41.4874 53.704 41.3434 53.496C41.2074 53.28 41.1394 53.004 41.1394 52.668V48.744H40.3114V47.724H41.1394V45.66H42.4594V47.724H43.8274V48.744H42.4594V52.248C42.4754 52.464 42.5434 52.624 42.6634 52.728C42.7914 52.832 42.9474 52.884 43.1314 52.884C43.3154 52.884 43.4914 52.852 43.6594 52.788C43.8274 52.724 43.9514 52.672 44.0314 52.632L44.3074 53.676ZM44.7657 52.164C44.7657 51.764 44.8777 51.416 45.1017 51.12C45.3337 50.816 45.6497 50.584 46.0497 50.424C46.4497 50.256 46.9137 50.172 47.4417 50.172C47.7217 50.172 48.0057 50.192 48.2937 50.232C48.5897 50.272 48.8497 50.336 49.0737 50.424V50.028C49.0737 49.588 48.9417 49.244 48.6777 48.996C48.4137 48.748 48.0337 48.624 47.5377 48.624C47.1857 48.624 46.8537 48.688 46.5417 48.816C46.2297 48.936 45.8977 49.108 45.5457 49.332L45.1017 48.444C45.5177 48.164 45.9337 47.956 46.3497 47.82C46.7737 47.684 47.2177 47.616 47.6817 47.616C48.5217 47.616 49.1817 47.84 49.6617 48.288C50.1497 48.728 50.3937 49.356 50.3937 50.172V52.512C50.3937 52.664 50.4177 52.772 50.4657 52.836C50.5217 52.9 50.6137 52.936 50.7417 52.944V54C50.6217 54.024 50.5137 54.04 50.4177 54.048C50.3217 54.056 50.2417 54.06 50.1777 54.06C49.8977 54.06 49.6857 53.992 49.5417 53.856C49.3977 53.72 49.3137 53.56 49.2897 53.376L49.2537 53.016C48.9817 53.368 48.6337 53.64 48.2097 53.832C47.7857 54.024 47.3577 54.12 46.9257 54.12C46.5097 54.12 46.1377 54.036 45.8097 53.868C45.4817 53.692 45.2257 53.456 45.0417 53.16C44.8577 52.864 44.7657 52.532 44.7657 52.164ZM48.7617 52.548C48.8577 52.444 48.9337 52.34 48.9897 52.236C49.0457 52.132 49.0737 52.04 49.0737 51.96V51.24C48.8497 51.152 48.6137 51.088 48.3657 51.048C48.1177 51 47.8737 50.976 47.6337 50.976C47.1537 50.976 46.7617 51.072 46.4577 51.264C46.1617 51.456 46.0137 51.72 46.0137 52.056C46.0137 52.24 46.0617 52.416 46.1577 52.584C46.2617 52.752 46.4057 52.888 46.5897 52.992C46.7817 53.096 47.0177 53.148 47.2977 53.148C47.5857 53.148 47.8617 53.092 48.1257 52.98C48.3897 52.868 48.6017 52.724 48.7617 52.548ZM54.8391 54.12C54.3511 54.12 53.9071 54.036 53.5071 53.868C53.1151 53.692 52.7751 53.452 52.4871 53.148C52.1991 52.844 51.9751 52.496 51.8151 52.104C51.6631 51.712 51.5871 51.296 51.5871 50.856C51.5871 50.264 51.7191 49.724 51.9831 49.236C52.2551 48.748 52.6311 48.356 53.1111 48.06C53.5991 47.764 54.1751 47.616 54.8391 47.616C55.4791 47.616 56.0351 47.76 56.5071 48.048C56.9871 48.328 57.3391 48.704 57.5631 49.176L56.2791 49.584C56.1351 49.32 55.9311 49.116 55.6671 48.972C55.4111 48.82 55.1271 48.744 54.8151 48.744C54.4631 48.744 54.1431 48.836 53.8551 49.02C53.5751 49.196 53.3511 49.444 53.1831 49.764C53.0231 50.076 52.9431 50.44 52.9431 50.856C52.9431 51.256 53.0271 51.62 53.1951 51.948C53.3631 52.268 53.5871 52.524 53.8671 52.716C54.1551 52.9 54.4751 52.992 54.8271 52.992C55.0431 52.992 55.2511 52.956 55.4511 52.884C55.6591 52.804 55.8391 52.7 55.9911 52.572C56.1431 52.436 56.2511 52.288 56.3151 52.128L57.6111 52.512C57.4751 52.824 57.2711 53.1 56.9991 53.34C56.7351 53.58 56.4191 53.772 56.0511 53.916C55.6911 54.052 55.2871 54.12 54.8391 54.12ZM62.1903 53.676C62.0783 53.732 61.9383 53.792 61.7703 53.856C61.6023 53.92 61.4103 53.976 61.1943 54.024C60.9863 54.072 60.7703 54.096 60.5463 54.096C60.2743 54.096 60.0223 54.048 59.7903 53.952C59.5583 53.856 59.3703 53.704 59.2263 53.496C59.0903 53.28 59.0223 53.004 59.0223 52.668V48.744H58.1943V47.724H59.0223V45.66H60.3423V47.724H61.7103V48.744H60.3423V52.248C60.3583 52.464 60.4263 52.624 60.5463 52.728C60.6743 52.832 60.8303 52.884 61.0143 52.884C61.1983 52.884 61.3743 52.852 61.5423 52.788C61.7103 52.724 61.8343 52.672 61.9143 52.632L62.1903 53.676Z" fill="#F2F7FC"/>
<defs>
<linearGradient id="paint0_linear_104_527" x1="6.48131" y1="20" x2="88.7312" y2="22.1352" gradientUnits="userSpaceOnUse">
<stop stop-color="#FF9C1A"/>
<stop offset="1" stop-color="#E80505"/>
</linearGradient>
</defs>
</svg>
