<svg width="333" height="150" viewBox="0 0 333 150" fill="none" xmlns="http://www.w3.org/2000/svg">
<rect width="333" height="150" rx="20" fill="#F2F7FC"/>
<path d="M25.7078 40.0953C25.0478 40.0953 24.5078 39.5553 24.5078 38.8953C24.5078 38.2353 25.0478 37.6953 25.7078 37.6953C26.3678 37.6953 26.9078 38.2353 26.9078 38.8953C26.9078 39.5553 26.3678 40.0953 25.7078 40.0953Z" fill="url(#paint0_linear_125_593)"/>
<path d="M26 44.25C27.3924 44.25 28.7277 43.6969 29.7123 42.7123C30.6969 41.7277 31.25 40.3924 31.25 39C31.25 37.6076 30.6969 36.2723 29.7123 35.2877C28.7277 34.3031 27.3924 33.75 26 33.75C24.6076 33.75 23.2723 34.3031 22.2877 35.2877C21.3031 36.2723 20.75 37.6076 20.75 39C20.75 40.3924 21.3031 41.7277 22.2877 42.7123C23.2723 43.6969 24.6076 44.25 26 44.25ZM26 35.625C27.8375 35.6475 29.33 37.185 29.33 39.0375V39.645C29.33 40.3125 28.7825 40.86 28.115 40.86C27.6575 40.86 27.26 40.605 27.05 40.23C26.705 40.575 26.225 40.7925 25.7 40.7925C24.65 40.7925 23.795 39.9375 23.795 38.8875C23.795 37.8375 24.65 36.9825 25.7 36.9825C26.1575 36.9825 26.57 37.1475 26.9 37.41V37.3425C26.9 37.1475 27.0725 36.99 27.2675 36.99C27.4625 36.99 27.62 37.1475 27.62 37.3425V39.6525C27.62 39.7858 27.6729 39.9136 27.7672 40.0078C27.8614 40.1021 27.9892 40.155 28.1225 40.155C28.2558 40.155 28.3836 40.1021 28.4778 40.0078C28.5721 39.9136 28.625 39.7858 28.625 39.6525V39.045C28.625 37.5675 27.44 36.3525 25.9925 36.33C25.2725 36.33 24.59 36.6 24.08 37.1025C23.57 37.605 23.285 38.28 23.285 39C23.285 40.47 24.485 41.67 25.955 41.67C26.0485 41.67 26.1381 41.7071 26.2043 41.7732C26.2704 41.8394 26.3075 41.929 26.3075 42.0225C26.3075 42.116 26.2704 42.2056 26.2043 42.2718C26.1381 42.3379 26.0485 42.375 25.955 42.375C24.095 42.375 22.58 40.86 22.58 39C22.58 38.0925 22.9325 37.2375 23.585 36.6C24.23 35.955 25.0925 35.61 26 35.625Z" fill="url(#paint1_linear_125_593)"/>
<path d="M14.75 32.2575C14.75 31.4235 15.4235 30.75 16.2575 30.75H35.75C36.5818 30.75 37.25 31.428 37.25 32.2575V45.75C37.25 46.5817 36.572 47.25 35.7425 47.25H16.2575C16.0595 47.2503 15.8633 47.2115 15.6803 47.1359C15.4972 47.0602 15.3309 46.9492 15.1909 46.8091C15.0508 46.6691 14.9398 46.5028 14.8641 46.3197C14.7885 46.1367 14.7497 45.9406 14.75 45.7425V32.2575ZM16.25 32.2538V32.6265L21.0125 35.661C20.731 36.0799 20.5037 36.5327 20.336 37.0087L16.25 34.4048V44.01L20.465 41.3243C20.6596 41.7872 20.9115 42.2239 21.215 42.624L16.31 45.75H35.7013L30.7835 42.6202C31.0871 42.2197 31.3391 41.7825 31.5335 41.319L35.75 44.0033V34.41L31.661 37.0125C31.4938 36.5363 31.267 36.0832 30.986 35.664L35.75 32.6333V32.2522L35.747 32.25H16.2538L16.2515 32.2515L16.2508 32.253L16.25 32.2538Z" fill="url(#paint2_linear_125_593)"/>
<path d="M51.024 34.352V37.616H54.864V39.104H51.024V42.512H55.344V44H49.2V32.864H55.344V34.352H51.024ZM68.6626 35.04C69.356 35.04 69.9746 35.184 70.5186 35.472C71.0733 35.76 71.5053 36.1867 71.8146 36.752C72.1346 37.3173 72.2946 38 72.2946 38.8V44H70.4866V39.072C70.4866 38.2827 70.2893 37.68 69.8946 37.264C69.5 36.8373 68.9613 36.624 68.2786 36.624C67.596 36.624 67.052 36.8373 66.6466 37.264C66.252 37.68 66.0546 38.2827 66.0546 39.072V44H64.2466V39.072C64.2466 38.2827 64.0493 37.68 63.6546 37.264C63.26 36.8373 62.7213 36.624 62.0386 36.624C61.356 36.624 60.812 36.8373 60.4066 37.264C60.012 37.68 59.8146 38.2827 59.8146 39.072V44H57.9906V35.184H59.8146V36.192C60.1133 35.8293 60.492 35.5467 60.9506 35.344C61.4093 35.1413 61.9 35.04 62.4226 35.04C63.1266 35.04 63.756 35.1893 64.3106 35.488C64.8653 35.7867 65.292 36.2187 65.5906 36.784C65.8573 36.2507 66.2733 35.8293 66.8386 35.52C67.404 35.2 68.012 35.04 68.6626 35.04ZM74.4076 39.552C74.4076 38.6667 74.589 37.8827 74.9516 37.2C75.325 36.5173 75.8263 35.9893 76.4556 35.616C77.0956 35.232 77.7996 35.04 78.5676 35.04C79.261 35.04 79.8636 35.1787 80.3756 35.456C80.8983 35.7227 81.3143 36.0587 81.6236 36.464V35.184H83.4636V44H81.6236V42.688C81.3143 43.104 80.893 43.4507 80.3596 43.728C79.8263 44.0053 79.2183 44.144 78.5356 44.144C77.7783 44.144 77.085 43.952 76.4556 43.568C75.8263 43.1733 75.325 42.6293 74.9516 41.936C74.589 41.232 74.4076 40.4373 74.4076 39.552ZM81.6236 39.584C81.6236 38.976 81.4956 38.448 81.2396 38C80.9943 37.552 80.669 37.2107 80.2636 36.976C79.8583 36.7413 79.421 36.624 78.9516 36.624C78.4823 36.624 78.045 36.7413 77.6396 36.976C77.2343 37.2 76.9036 37.536 76.6476 37.984C76.4023 38.4213 76.2796 38.944 76.2796 39.552C76.2796 40.16 76.4023 40.6933 76.6476 41.152C76.9036 41.6107 77.2343 41.9627 77.6396 42.208C78.0556 42.4427 78.493 42.56 78.9516 42.56C79.421 42.56 79.8583 42.4427 80.2636 42.208C80.669 41.9733 80.9943 41.632 81.2396 41.184C81.4956 40.7253 81.6236 40.192 81.6236 39.584ZM87.1874 34.016C86.8567 34.016 86.5794 33.904 86.3554 33.68C86.1314 33.456 86.0194 33.1787 86.0194 32.848C86.0194 32.5173 86.1314 32.24 86.3554 32.016C86.5794 31.792 86.8567 31.68 87.1874 31.68C87.5074 31.68 87.7794 31.792 88.0034 32.016C88.2274 32.24 88.3394 32.5173 88.3394 32.848C88.3394 33.1787 88.2274 33.456 88.0034 33.68C87.7794 33.904 87.5074 34.016 87.1874 34.016ZM88.0834 35.184V44H86.2594V35.184H88.0834ZM92.7021 32.16V44H90.8781V32.16H92.7021ZM95.9909 44.098C95.7015 44.098 95.4589 44 95.2629 43.804C95.0669 43.608 94.9689 43.3653 94.9689 43.076C94.9689 42.7867 95.0669 42.544 95.2629 42.348C95.4589 42.152 95.7015 42.054 95.9909 42.054C96.2709 42.054 96.5089 42.152 96.7049 42.348C96.9009 42.544 96.9989 42.7867 96.9989 43.076C96.9989 43.3653 96.9009 43.608 96.7049 43.804C96.5089 44 96.2709 44.098 95.9909 44.098ZM95.9909 38.218C95.7015 38.218 95.4589 38.12 95.2629 37.924C95.0669 37.728 94.9689 37.4853 94.9689 37.196C94.9689 36.9067 95.0669 36.664 95.2629 36.468C95.4589 36.272 95.7015 36.174 95.9909 36.174C96.2709 36.174 96.5089 36.272 96.7049 36.468C96.9009 36.664 96.9989 36.9067 96.9989 37.196C96.9989 37.4853 96.9009 37.728 96.7049 37.924C96.5089 38.12 96.2709 38.218 95.9909 38.218Z" fill="black"/>
<path d="M51.85 75.126C51.2433 75.126 50.6973 75.0187 50.212 74.804C49.736 74.58 49.358 74.2813 49.078 73.908C48.798 73.5253 48.6487 73.1007 48.63 72.634H50.282C50.31 72.9607 50.464 73.236 50.744 73.46C51.0333 73.6747 51.3927 73.782 51.822 73.782C52.27 73.782 52.6153 73.698 52.858 73.53C53.11 73.3527 53.236 73.1287 53.236 72.858C53.236 72.5687 53.096 72.354 52.816 72.214C52.5453 72.074 52.1113 71.92 51.514 71.752C50.9353 71.5933 50.464 71.4393 50.1 71.29C49.736 71.1407 49.4187 70.912 49.148 70.604C48.8867 70.296 48.756 69.89 48.756 69.386C48.756 68.9753 48.8773 68.602 49.12 68.266C49.3627 67.9207 49.708 67.65 50.156 67.454C50.6133 67.258 51.136 67.16 51.724 67.16C52.6013 67.16 53.306 67.384 53.838 67.832C54.3793 68.2707 54.6687 68.8727 54.706 69.638H53.11C53.082 69.2927 52.942 69.0173 52.69 68.812C52.438 68.6067 52.0973 68.504 51.668 68.504C51.248 68.504 50.926 68.5833 50.702 68.742C50.478 68.9007 50.366 69.1107 50.366 69.372C50.366 69.5773 50.4407 69.75 50.59 69.89C50.7393 70.03 50.9213 70.142 51.136 70.226C51.3507 70.3007 51.668 70.3987 52.088 70.52C52.648 70.6693 53.1053 70.8233 53.46 70.982C53.824 71.1313 54.1367 71.3553 54.398 71.654C54.6593 71.9527 54.7947 72.3493 54.804 72.844C54.804 73.2827 54.6827 73.6747 54.44 74.02C54.1973 74.3653 53.852 74.636 53.404 74.832C52.9653 75.028 52.4473 75.126 51.85 75.126ZM56.3465 71.108C56.3465 70.3333 56.5052 69.6473 56.8225 69.05C57.1492 68.4527 57.5878 67.9907 58.1385 67.664C58.6985 67.328 59.3145 67.16 59.9865 67.16C60.5932 67.16 61.1205 67.2813 61.5685 67.524C62.0258 67.7573 62.3898 68.0513 62.6605 68.406V67.286H64.2705V75H62.6605V73.852C62.3898 74.216 62.0212 74.5193 61.5545 74.762C61.0878 75.0047 60.5558 75.126 59.9585 75.126C59.2958 75.126 58.6892 74.958 58.1385 74.622C57.5878 74.2767 57.1492 73.8007 56.8225 73.194C56.5052 72.578 56.3465 71.8827 56.3465 71.108ZM62.6605 71.136C62.6605 70.604 62.5485 70.142 62.3245 69.75C62.1098 69.358 61.8252 69.0593 61.4705 68.854C61.1158 68.6487 60.7332 68.546 60.3225 68.546C59.9118 68.546 59.5292 68.6487 59.1745 68.854C58.8198 69.05 58.5305 69.344 58.3065 69.736C58.0918 70.1187 57.9845 70.576 57.9845 71.108C57.9845 71.64 58.0918 72.1067 58.3065 72.508C58.5305 72.9093 58.8198 73.2173 59.1745 73.432C59.5385 73.6373 59.9212 73.74 60.3225 73.74C60.7332 73.74 61.1158 73.6373 61.4705 73.432C61.8252 73.2267 62.1098 72.928 62.3245 72.536C62.5485 72.1347 62.6605 71.668 62.6605 71.136ZM76.0548 67.16C76.6615 67.16 77.2028 67.286 77.6788 67.538C78.1641 67.79 78.5421 68.1633 78.8128 68.658C79.0928 69.1527 79.2328 69.75 79.2328 70.45V75H77.6508V70.688C77.6508 69.9973 77.4781 69.47 77.1328 69.106C76.7875 68.7327 76.3161 68.546 75.7188 68.546C75.1215 68.546 74.6455 68.7327 74.2908 69.106C73.9455 69.47 73.7728 69.9973 73.7728 70.688V75H72.1908V70.688C72.1908 69.9973 72.0181 69.47 71.6728 69.106C71.3275 68.7327 70.8561 68.546 70.2588 68.546C69.6615 68.546 69.1855 68.7327 68.8308 69.106C68.4855 69.47 68.3128 69.9973 68.3128 70.688V75H66.7168V67.286H68.3128V68.168C68.5741 67.8507 68.9055 67.6033 69.3068 67.426C69.7081 67.2487 70.1375 67.16 70.5948 67.16C71.2108 67.16 71.7615 67.2907 72.2468 67.552C72.7321 67.8133 73.1055 68.1913 73.3668 68.686C73.6001 68.2193 73.9641 67.8507 74.4588 67.58C74.9535 67.3 75.4855 67.16 76.0548 67.16ZM81.0817 71.108C81.0817 70.3333 81.2403 69.6473 81.5577 69.05C81.8843 68.4527 82.323 67.9907 82.8737 67.664C83.4337 67.328 84.0497 67.16 84.7217 67.16C85.3283 67.16 85.8557 67.2813 86.3037 67.524C86.761 67.7573 87.125 68.0513 87.3957 68.406V67.286H89.0057V75H87.3957V73.852C87.125 74.216 86.7563 74.5193 86.2897 74.762C85.823 75.0047 85.291 75.126 84.6937 75.126C84.031 75.126 83.4243 74.958 82.8737 74.622C82.323 74.2767 81.8843 73.8007 81.5577 73.194C81.2403 72.578 81.0817 71.8827 81.0817 71.108ZM87.3957 71.136C87.3957 70.604 87.2837 70.142 87.0597 69.75C86.845 69.358 86.5603 69.0593 86.2057 68.854C85.851 68.6487 85.4683 68.546 85.0577 68.546C84.647 68.546 84.2643 68.6487 83.9097 68.854C83.555 69.05 83.2657 69.344 83.0417 69.736C82.827 70.1187 82.7197 70.576 82.7197 71.108C82.7197 71.64 82.827 72.1067 83.0417 72.508C83.2657 72.9093 83.555 73.2173 83.9097 73.432C84.2737 73.6373 84.6563 73.74 85.0577 73.74C85.4683 73.74 85.851 73.6373 86.2057 73.432C86.5603 73.2267 86.845 72.928 87.0597 72.536C87.2837 72.1347 87.3957 71.668 87.3957 71.136ZM93.048 68.406C93.2813 68.014 93.5893 67.7107 93.972 67.496C94.364 67.272 94.826 67.16 95.358 67.16V68.812H94.952C94.3266 68.812 93.8506 68.9707 93.524 69.288C93.2066 69.6053 93.048 70.156 93.048 70.94V75H91.452V67.286H93.048V68.406ZM99.037 68.588V72.858C99.037 73.1473 99.1023 73.3573 99.233 73.488C99.373 73.6093 99.6063 73.67 99.933 73.67H100.913V75H99.653C98.9343 75 98.3837 74.832 98.001 74.496C97.6183 74.16 97.427 73.614 97.427 72.858V68.588H96.517V67.286H97.427V65.368H99.037V67.286H100.913V68.588H99.037ZM106.724 67.16C107.312 67.16 107.835 67.286 108.292 67.538C108.759 67.79 109.123 68.1633 109.384 68.658C109.655 69.1527 109.79 69.75 109.79 70.45V75H108.208V70.688C108.208 69.9973 108.035 69.47 107.69 69.106C107.345 68.7327 106.873 68.546 106.276 68.546C105.679 68.546 105.203 68.7327 104.848 69.106C104.503 69.47 104.33 69.9973 104.33 70.688V75H102.734V64.64H104.33V68.182C104.601 67.8553 104.941 67.6033 105.352 67.426C105.772 67.2487 106.229 67.16 106.724 67.16ZM111.644 71.108C111.644 70.3333 111.802 69.6473 112.12 69.05C112.446 68.4527 112.885 67.9907 113.436 67.664C113.996 67.328 114.612 67.16 115.284 67.16C115.89 67.16 116.418 67.2813 116.866 67.524C117.323 67.7573 117.687 68.0513 117.958 68.406V67.286H119.568V75H117.958V73.852C117.687 74.216 117.318 74.5193 116.852 74.762C116.385 75.0047 115.853 75.126 115.256 75.126C114.593 75.126 113.986 74.958 113.436 74.622C112.885 74.2767 112.446 73.8007 112.12 73.194C111.802 72.578 111.644 71.8827 111.644 71.108ZM117.958 71.136C117.958 70.604 117.846 70.142 117.622 69.75C117.407 69.358 117.122 69.0593 116.768 68.854C116.413 68.6487 116.03 68.546 115.62 68.546C115.209 68.546 114.826 68.6487 114.472 68.854C114.117 69.05 113.828 69.344 113.604 69.736C113.389 70.1187 113.282 70.576 113.282 71.108C113.282 71.64 113.389 72.1067 113.604 72.508C113.828 72.9093 114.117 73.2173 114.472 73.432C114.836 73.6373 115.218 73.74 115.62 73.74C116.03 73.74 116.413 73.6373 116.768 73.432C117.122 73.2267 117.407 72.928 117.622 72.536C117.846 72.1347 117.958 71.668 117.958 71.136ZM123.876 68.588V72.858C123.876 73.1473 123.941 73.3573 124.072 73.488C124.212 73.6093 124.445 73.67 124.772 73.67H125.752V75H124.492C123.773 75 123.223 74.832 122.84 74.496C122.457 74.16 122.266 73.614 122.266 72.858V68.588H121.356V67.286H122.266V65.368H123.876V67.286H125.752V68.588H123.876ZM131.563 67.16C132.151 67.16 132.674 67.286 133.131 67.538C133.598 67.79 133.962 68.1633 134.223 68.658C134.494 69.1527 134.629 69.75 134.629 70.45V75H133.047V70.688C133.047 69.9973 132.874 69.47 132.529 69.106C132.184 68.7327 131.712 68.546 131.115 68.546C130.518 68.546 130.042 68.7327 129.687 69.106C129.342 69.47 129.169 69.9973 129.169 70.688V75H127.573V64.64H129.169V68.182C129.44 67.8553 129.78 67.6033 130.191 67.426C130.611 67.2487 131.068 67.16 131.563 67.16ZM136.483 71.108C136.483 70.3333 136.642 69.6473 136.959 69.05C137.286 68.4527 137.724 67.9907 138.275 67.664C138.835 67.328 139.451 67.16 140.123 67.16C140.73 67.16 141.257 67.2813 141.705 67.524C142.162 67.7573 142.526 68.0513 142.797 68.406V67.286H144.407V75H142.797V73.852C142.526 74.216 142.158 74.5193 141.691 74.762C141.224 75.0047 140.692 75.126 140.095 75.126C139.432 75.126 138.826 74.958 138.275 74.622C137.724 74.2767 137.286 73.8007 136.959 73.194C136.642 72.578 136.483 71.8827 136.483 71.108ZM142.797 71.136C142.797 70.604 142.685 70.142 142.461 69.75C142.246 69.358 141.962 69.0593 141.607 68.854C141.252 68.6487 140.87 68.546 140.459 68.546C140.048 68.546 139.666 68.6487 139.311 68.854C138.956 69.05 138.667 69.344 138.443 69.736C138.228 70.1187 138.121 70.576 138.121 71.108C138.121 71.64 138.228 72.1067 138.443 72.508C138.667 72.9093 138.956 73.2173 139.311 73.432C139.675 73.6373 140.058 73.74 140.459 73.74C140.87 73.74 141.252 73.6373 141.607 73.432C141.962 73.2267 142.246 72.928 142.461 72.536C142.685 72.1347 142.797 71.668 142.797 71.136ZM148.449 68.406C148.682 68.014 148.99 67.7107 149.373 67.496C149.765 67.272 150.227 67.16 150.759 67.16V68.812H150.353C149.728 68.812 149.252 68.9707 148.925 69.288C148.608 69.6053 148.449 70.156 148.449 70.94V75H146.853V67.286H148.449V68.406ZM155.558 73.572L157.742 67.286H159.436L156.496 75H154.592L151.666 67.286H153.374L155.558 73.572ZM160.461 71.108C160.461 70.3333 160.619 69.6473 160.937 69.05C161.263 68.4527 161.702 67.9907 162.253 67.664C162.813 67.328 163.429 67.16 164.101 67.16C164.707 67.16 165.235 67.2813 165.683 67.524C166.14 67.7573 166.504 68.0513 166.775 68.406V67.286H168.385V75H166.775V73.852C166.504 74.216 166.135 74.5193 165.669 74.762C165.202 75.0047 164.67 75.126 164.073 75.126C163.41 75.126 162.803 74.958 162.253 74.622C161.702 74.2767 161.263 73.8007 160.937 73.194C160.619 72.578 160.461 71.8827 160.461 71.108ZM166.775 71.136C166.775 70.604 166.663 70.142 166.439 69.75C166.224 69.358 165.939 69.0593 165.585 68.854C165.23 68.6487 164.847 68.546 164.437 68.546C164.026 68.546 163.643 68.6487 163.289 68.854C162.934 69.05 162.645 69.344 162.421 69.736C162.206 70.1187 162.099 70.576 162.099 71.108C162.099 71.64 162.206 72.1067 162.421 72.508C162.645 72.9093 162.934 73.2173 163.289 73.432C163.653 73.6373 164.035 73.74 164.437 73.74C164.847 73.74 165.23 73.6373 165.585 73.432C165.939 73.2267 166.224 72.928 166.439 72.536C166.663 72.1347 166.775 71.668 166.775 71.136ZM170.411 66.25V64.794H173.323V75H171.713V66.25H170.411ZM175.655 66.25V64.794H178.567V75H176.957V66.25H175.655ZM180.9 66.25V64.794H183.812V75H182.202V66.25H180.9ZM186.144 66.25V64.794H189.056V75H187.446V66.25H186.144ZM191.599 69.764C191.599 68.1493 191.87 66.8893 192.411 65.984C192.962 65.0693 193.904 64.612 195.239 64.612C196.574 64.612 197.512 65.0693 198.053 65.984C198.604 66.8893 198.879 68.1493 198.879 69.764C198.879 71.3973 198.604 72.676 198.053 73.6C197.512 74.5147 196.574 74.972 195.239 74.972C193.904 74.972 192.962 74.5147 192.411 73.6C191.87 72.676 191.599 71.3973 191.599 69.764ZM197.311 69.764C197.311 69.008 197.26 68.3687 197.157 67.846C197.064 67.3233 196.868 66.8987 196.569 66.572C196.27 66.236 195.827 66.068 195.239 66.068C194.651 66.068 194.208 66.236 193.909 66.572C193.61 66.8987 193.41 67.3233 193.307 67.846C193.214 68.3687 193.167 69.008 193.167 69.764C193.167 70.548 193.214 71.206 193.307 71.738C193.4 72.27 193.596 72.6993 193.895 73.026C194.203 73.3527 194.651 73.516 195.239 73.516C195.827 73.516 196.27 73.3527 196.569 73.026C196.877 72.6993 197.078 72.27 197.171 71.738C197.264 71.206 197.311 70.548 197.311 69.764ZM201.8 72.83C202.696 72.0553 203.4 71.4207 203.914 70.926C204.436 70.422 204.87 69.8993 205.216 69.358C205.561 68.8167 205.734 68.2753 205.734 67.734C205.734 67.174 205.598 66.7353 205.328 66.418C205.066 66.1007 204.651 65.942 204.082 65.942C203.531 65.942 203.102 66.1193 202.794 66.474C202.495 66.8193 202.336 67.286 202.318 67.874H200.778C200.806 66.81 201.123 65.998 201.73 65.438C202.346 64.8687 203.125 64.584 204.068 64.584C205.085 64.584 205.878 64.864 206.448 65.424C207.026 65.984 207.316 66.7307 207.316 67.664C207.316 68.336 207.143 68.9847 206.798 69.61C206.462 70.226 206.056 70.7813 205.58 71.276C205.113 71.7613 204.516 72.326 203.788 72.97L203.158 73.53H207.596V74.86H200.792V73.698L201.8 72.83ZM216.74 65.956C217.804 65.956 218.723 66.152 219.498 66.544C220.272 66.936 220.86 67.4867 221.262 68.196C221.672 68.896 221.878 69.7127 221.878 70.646C221.878 71.3927 221.747 72.1067 221.486 72.788C221.234 73.4693 220.865 74.0247 220.38 74.454C219.904 74.8833 219.339 75.098 218.686 75.098C218.21 75.098 217.836 74.9953 217.566 74.79C217.295 74.5753 217.127 74.2767 217.062 73.894C216.772 74.2673 216.408 74.5613 215.97 74.776C215.531 74.9907 215.074 75.098 214.598 75.098C213.879 75.098 213.314 74.8833 212.904 74.454C212.502 74.0153 212.302 73.4227 212.302 72.676C212.302 71.9667 212.446 71.304 212.736 70.688C213.034 70.072 213.45 69.582 213.982 69.218C214.514 68.8447 215.111 68.658 215.774 68.658C216.586 68.658 217.155 68.9333 217.482 69.484L217.608 68.784H218.994L218.294 72.788C218.266 72.984 218.252 73.1567 218.252 73.306C218.252 73.5487 218.298 73.7307 218.392 73.852C218.494 73.9733 218.672 74.034 218.924 74.034C219.278 74.034 219.582 73.8613 219.834 73.516C220.086 73.1613 220.272 72.7273 220.394 72.214C220.524 71.7007 220.59 71.2013 220.59 70.716C220.59 69.5307 220.244 68.6253 219.554 68C218.863 67.3747 217.86 67.062 216.544 67.062C215.442 67.062 214.453 67.3233 213.576 67.846C212.708 68.3687 212.026 69.0873 211.532 70.002C211.037 70.9167 210.79 71.934 210.79 73.054C210.79 74.2487 211.144 75.1587 211.854 75.784C212.563 76.4093 213.576 76.722 214.892 76.722C215.778 76.722 216.553 76.5587 217.216 76.232L217.426 77.296C216.576 77.66 215.624 77.842 214.57 77.842C213.552 77.842 212.661 77.6507 211.896 77.268C211.13 76.8853 210.538 76.3393 210.118 75.63C209.698 74.93 209.488 74.1133 209.488 73.18C209.488 71.8453 209.796 70.6273 210.412 69.526C211.037 68.4247 211.9 67.5567 213.002 66.922C214.103 66.278 215.349 65.956 216.74 65.956ZM215.088 73.866C215.48 73.866 215.834 73.754 216.152 73.53C216.478 73.2967 216.735 72.9933 216.922 72.62C217.108 72.2373 217.202 71.8313 217.202 71.402C217.202 70.954 217.076 70.59 216.824 70.31C216.581 70.0207 216.236 69.876 215.788 69.876C215.386 69.876 215.032 70.002 214.724 70.254C214.425 70.4967 214.192 70.814 214.024 71.206C213.865 71.598 213.786 72.0087 213.786 72.438C213.786 72.8767 213.893 73.2267 214.108 73.488C214.322 73.74 214.649 73.866 215.088 73.866ZM227.371 67.16C227.969 67.16 228.496 67.2813 228.953 67.524C229.42 67.7573 229.784 68.0513 230.045 68.406V67.286H231.655V75.126C231.655 75.8353 231.506 76.4653 231.207 77.016C230.909 77.576 230.475 78.0147 229.905 78.332C229.345 78.6493 228.673 78.808 227.889 78.808C226.844 78.808 225.976 78.5607 225.285 78.066C224.595 77.5807 224.203 76.918 224.109 76.078H225.691C225.813 76.4793 226.069 76.8013 226.461 77.044C226.863 77.296 227.339 77.422 227.889 77.422C228.533 77.422 229.051 77.226 229.443 76.834C229.845 76.442 230.045 75.8727 230.045 75.126V73.838C229.775 74.202 229.406 74.51 228.939 74.762C228.482 75.0047 227.959 75.126 227.371 75.126C226.699 75.126 226.083 74.958 225.523 74.622C224.973 74.2767 224.534 73.8007 224.207 73.194C223.89 72.578 223.731 71.8827 223.731 71.108C223.731 70.3333 223.89 69.6473 224.207 69.05C224.534 68.4527 224.973 67.9907 225.523 67.664C226.083 67.328 226.699 67.16 227.371 67.16ZM230.045 71.136C230.045 70.604 229.933 70.142 229.709 69.75C229.495 69.358 229.21 69.0593 228.855 68.854C228.501 68.6487 228.118 68.546 227.707 68.546C227.297 68.546 226.914 68.6487 226.559 68.854C226.205 69.05 225.915 69.344 225.691 69.736C225.477 70.1187 225.369 70.576 225.369 71.108C225.369 71.64 225.477 72.1067 225.691 72.508C225.915 72.9093 226.205 73.2173 226.559 73.432C226.923 73.6373 227.306 73.74 227.707 73.74C228.118 73.74 228.501 73.6373 228.855 73.432C229.21 73.2267 229.495 72.928 229.709 72.536C229.933 72.1347 230.045 71.668 230.045 71.136ZM243.44 67.16C244.046 67.16 244.588 67.286 245.064 67.538C245.549 67.79 245.927 68.1633 246.198 68.658C246.478 69.1527 246.618 69.75 246.618 70.45V75H245.036V70.688C245.036 69.9973 244.863 69.47 244.518 69.106C244.172 68.7327 243.701 68.546 243.104 68.546C242.506 68.546 242.03 68.7327 241.676 69.106C241.33 69.47 241.158 69.9973 241.158 70.688V75H239.576V70.688C239.576 69.9973 239.403 69.47 239.058 69.106C238.712 68.7327 238.241 68.546 237.644 68.546C237.046 68.546 236.57 68.7327 236.216 69.106C235.87 69.47 235.698 69.9973 235.698 70.688V75H234.102V67.286H235.698V68.168C235.959 67.8507 236.29 67.6033 236.692 67.426C237.093 67.2487 237.522 67.16 237.98 67.16C238.596 67.16 239.146 67.2907 239.632 67.552C240.117 67.8133 240.49 68.1913 240.752 68.686C240.985 68.2193 241.349 67.8507 241.844 67.58C242.338 67.3 242.87 67.16 243.44 67.16ZM248.466 71.108C248.466 70.3333 248.625 69.6473 248.942 69.05C249.269 68.4527 249.708 67.9907 250.258 67.664C250.818 67.328 251.434 67.16 252.106 67.16C252.713 67.16 253.24 67.2813 253.688 67.524C254.146 67.7573 254.51 68.0513 254.78 68.406V67.286H256.39V75H254.78V73.852C254.51 74.216 254.141 74.5193 253.674 74.762C253.208 75.0047 252.676 75.126 252.078 75.126C251.416 75.126 250.809 74.958 250.258 74.622C249.708 74.2767 249.269 73.8007 248.942 73.194C248.625 72.578 248.466 71.8827 248.466 71.108ZM254.78 71.136C254.78 70.604 254.668 70.142 254.444 69.75C254.23 69.358 253.945 69.0593 253.59 68.854C253.236 68.6487 252.853 68.546 252.442 68.546C252.032 68.546 251.649 68.6487 251.294 68.854C250.94 69.05 250.65 69.344 250.426 69.736C250.212 70.1187 250.104 70.576 250.104 71.108C250.104 71.64 250.212 72.1067 250.426 72.508C250.65 72.9093 250.94 73.2173 251.294 73.432C251.658 73.6373 252.041 73.74 252.442 73.74C252.853 73.74 253.236 73.6373 253.59 73.432C253.945 73.2267 254.23 72.928 254.444 72.536C254.668 72.1347 254.78 71.668 254.78 71.136ZM259.649 66.264C259.359 66.264 259.117 66.166 258.921 65.97C258.725 65.774 258.627 65.5313 258.627 65.242C258.627 64.9527 258.725 64.71 258.921 64.514C259.117 64.318 259.359 64.22 259.649 64.22C259.929 64.22 260.167 64.318 260.363 64.514C260.559 64.71 260.657 64.9527 260.657 65.242C260.657 65.5313 260.559 65.774 260.363 65.97C260.167 66.166 259.929 66.264 259.649 66.264ZM260.433 67.286V75H258.837V67.286H260.433ZM264.474 64.64V75H262.878V64.64H264.474ZM267.564 75.098C267.274 75.098 267.032 75 266.836 74.804C266.64 74.608 266.542 74.3653 266.542 74.076C266.542 73.7867 266.64 73.544 266.836 73.348C267.032 73.152 267.274 73.054 267.564 73.054C267.844 73.054 268.082 73.152 268.278 73.348C268.474 73.544 268.572 73.7867 268.572 74.076C268.572 74.3653 268.474 74.608 268.278 74.804C268.082 75 267.844 75.098 267.564 75.098ZM270.114 71.136C270.114 70.3427 270.273 69.6473 270.59 69.05C270.917 68.4433 271.365 67.9767 271.934 67.65C272.504 67.3233 273.157 67.16 273.894 67.16C274.828 67.16 275.598 67.384 276.204 67.832C276.82 68.2707 277.236 68.9007 277.45 69.722H275.728C275.588 69.3393 275.364 69.0407 275.056 68.826C274.748 68.6113 274.361 68.504 273.894 68.504C273.241 68.504 272.718 68.7373 272.326 69.204C271.944 69.6613 271.752 70.3053 271.752 71.136C271.752 71.9667 271.944 72.6153 272.326 73.082C272.718 73.5487 273.241 73.782 273.894 73.782C274.818 73.782 275.43 73.376 275.728 72.564H277.45C277.226 73.348 276.806 73.9733 276.19 74.44C275.574 74.8973 274.809 75.126 273.894 75.126C273.157 75.126 272.504 74.9627 271.934 74.636C271.365 74.3 270.917 73.8333 270.59 73.236C270.273 72.6293 270.114 71.9293 270.114 71.136ZM282.737 75.126C282.009 75.126 281.351 74.9627 280.763 74.636C280.175 74.3 279.713 73.8333 279.377 73.236C279.041 72.6293 278.873 71.9293 278.873 71.136C278.873 70.352 279.046 69.6567 279.391 69.05C279.736 68.4433 280.208 67.9767 280.805 67.65C281.402 67.3233 282.07 67.16 282.807 67.16C283.544 67.16 284.212 67.3233 284.809 67.65C285.406 67.9767 285.878 68.4433 286.223 69.05C286.568 69.6567 286.741 70.352 286.741 71.136C286.741 71.92 286.564 72.6153 286.209 73.222C285.854 73.8287 285.369 74.3 284.753 74.636C284.146 74.9627 283.474 75.126 282.737 75.126ZM282.737 73.74C283.148 73.74 283.53 73.642 283.885 73.446C284.249 73.25 284.543 72.956 284.767 72.564C284.991 72.172 285.103 71.696 285.103 71.136C285.103 70.576 284.996 70.1047 284.781 69.722C284.566 69.33 284.282 69.036 283.927 68.84C283.572 68.644 283.19 68.546 282.779 68.546C282.368 68.546 281.986 68.644 281.631 68.84C281.286 69.036 281.01 69.33 280.805 69.722C280.6 70.1047 280.497 70.576 280.497 71.136C280.497 71.9667 280.707 72.6107 281.127 73.068C281.556 73.516 282.093 73.74 282.737 73.74ZM298.007 67.16C298.613 67.16 299.155 67.286 299.631 67.538C300.116 67.79 300.494 68.1633 300.765 68.658C301.045 69.1527 301.185 69.75 301.185 70.45V75H299.603V70.688C299.603 69.9973 299.43 69.47 299.085 69.106C298.739 68.7327 298.268 68.546 297.671 68.546C297.073 68.546 296.597 68.7327 296.243 69.106C295.897 69.47 295.725 69.9973 295.725 70.688V75H294.143V70.688C294.143 69.9973 293.97 69.47 293.625 69.106C293.279 68.7327 292.808 68.546 292.211 68.546C291.613 68.546 291.137 68.7327 290.783 69.106C290.437 69.47 290.265 69.9973 290.265 70.688V75H288.669V67.286H290.265V68.168C290.526 67.8507 290.857 67.6033 291.259 67.426C291.66 67.2487 292.089 67.16 292.547 67.16C293.163 67.16 293.713 67.2907 294.199 67.552C294.684 67.8133 295.057 68.1913 295.319 68.686C295.552 68.2193 295.916 67.8507 296.411 67.58C296.905 67.3 297.437 67.16 298.007 67.16Z" fill="black"/>
<defs>
<linearGradient id="paint0_linear_125_593" x1="25.7078" y1="37.6953" x2="25.7078" y2="40.0953" gradientUnits="userSpaceOnUse">
<stop stop-color="#FF961A"/>
<stop offset="1" stop-color="#EC1908"/>
</linearGradient>
<linearGradient id="paint1_linear_125_593" x1="26" y1="33.75" x2="26" y2="44.25" gradientUnits="userSpaceOnUse">
<stop stop-color="#FF961A"/>
<stop offset="1" stop-color="#EC1908"/>
</linearGradient>
<linearGradient id="paint2_linear_125_593" x1="26" y1="30.75" x2="26" y2="47.25" gradientUnits="userSpaceOnUse">
<stop stop-color="#FF961A"/>
<stop offset="1" stop-color="#EC1908"/>
</linearGradient>
</defs>
</svg>
