<svg width="294" height="63" viewBox="0 0 294 63" fill="none" xmlns="http://www.w3.org/2000/svg">
<line y1="62.5" x2="256" y2="62.5" stroke="#CDCDCD" stroke-opacity="0.5"/>
<rect width="44" height="41.36" rx="8" transform="matrix(-1 0 0 1 53.5 0)" fill="#F2F7FC"/>
<rect width="24" height="21.36" rx="8.26855" transform="matrix(-1 0 0 1 43.5 10)" fill="#F2F7FC"/>
<path d="M22.47 16.65L31.5 11L40.53 16.65C41.11 17 41.5 17.63 41.5 18.36V28.36C41.5 29.46 40.6 30.36 39.5 30.36H23.5C22.4 30.36 21.5 29.46 21.5 28.36V18.36C21.5 17.63 21.89 17 22.47 16.65ZM23.5 28.36H39.5V20.36L31.5 25.36L23.5 20.36V28.36ZM31.5 23.36L39.5 18.36L31.5 13.36L23.5 18.36L31.5 23.36Z" fill="#FF9C1B"/>
<path d="M73.438 16.114V17.5H66.62V7.56H73.312V8.946H68.188V11.774H72.626V13.076H68.188V16.114H73.438ZM86.0049 17.5H84.4649V13.398C84.4649 12.7167 84.3529 12.2173 84.1289 11.9C83.9049 11.5827 83.5782 11.424 83.1489 11.424C82.7195 11.424 82.3182 11.5873 81.9449 11.914C81.5809 12.2313 81.3242 12.6467 81.1749 13.16V17.5H79.6349V13.398C79.6349 12.7167 79.5229 12.2173 79.2989 11.9C79.0749 11.5827 78.7529 11.424 78.3329 11.424C77.9035 11.424 77.5022 11.5827 77.1289 11.9C76.7649 12.2173 76.5035 12.6327 76.3449 13.146V17.5H74.8049V10.178H76.2049V11.648C76.4942 11.1347 76.8722 10.7427 77.3389 10.472C77.8149 10.192 78.3562 10.052 78.9629 10.052C79.5695 10.052 80.0455 10.2107 80.3909 10.528C80.7455 10.8453 80.9649 11.242 81.0489 11.718C81.3662 11.1767 81.7535 10.766 82.2109 10.486C82.6775 10.1967 83.2095 10.052 83.8069 10.052C84.2362 10.052 84.5955 10.1313 84.8849 10.29C85.1742 10.4487 85.3982 10.668 85.5569 10.948C85.7155 11.2187 85.8275 11.536 85.8929 11.9C85.9675 12.2547 86.0049 12.6327 86.0049 13.034V17.5ZM87.2475 15.358C87.2475 14.8913 87.3781 14.4853 87.6395 14.14C87.9101 13.7853 88.2788 13.5147 88.7455 13.328C89.2121 13.132 89.7535 13.034 90.3695 13.034C90.6961 13.034 91.0275 13.0573 91.3635 13.104C91.7088 13.1507 92.0121 13.2253 92.2735 13.328V12.866C92.2735 12.3527 92.1195 11.9513 91.8115 11.662C91.5035 11.3727 91.0601 11.228 90.4815 11.228C90.0708 11.228 89.6835 11.3027 89.3195 11.452C88.9555 11.592 88.5681 11.7927 88.1575 12.054L87.6395 11.018C88.1248 10.6913 88.6101 10.4487 89.0955 10.29C89.5901 10.1313 90.1081 10.052 90.6495 10.052C91.6295 10.052 92.3995 10.3133 92.9595 10.836C93.5288 11.3493 93.8135 12.082 93.8135 13.034V15.764C93.8135 15.9413 93.8415 16.0673 93.8975 16.142C93.9628 16.2167 94.0701 16.2587 94.2195 16.268V17.5C94.0795 17.528 93.9535 17.5467 93.8415 17.556C93.7295 17.5653 93.6361 17.57 93.5615 17.57C93.2348 17.57 92.9875 17.4907 92.8195 17.332C92.6515 17.1733 92.5535 16.9867 92.5255 16.772L92.4835 16.352C92.1661 16.7627 91.7601 17.08 91.2655 17.304C90.7708 17.528 90.2715 17.64 89.7675 17.64C89.2821 17.64 88.8481 17.542 88.4655 17.346C88.0828 17.1407 87.7841 16.8653 87.5695 16.52C87.3548 16.1747 87.2475 15.7873 87.2475 15.358ZM91.9095 15.806C92.0215 15.6847 92.1101 15.5633 92.1755 15.442C92.2408 15.3207 92.2735 15.2133 92.2735 15.12V14.28C92.0121 14.1773 91.7368 14.1027 91.4475 14.056C91.1581 14 90.8735 13.972 90.5935 13.972C90.0335 13.972 89.5761 14.084 89.2215 14.308C88.8761 14.532 88.7035 14.84 88.7035 15.232C88.7035 15.4467 88.7595 15.652 88.8715 15.848C88.9928 16.044 89.1608 16.2027 89.3755 16.324C89.5995 16.4453 89.8748 16.506 90.2015 16.506C90.5375 16.506 90.8595 16.4407 91.1675 16.31C91.4755 16.1793 91.7228 16.0113 91.9095 15.806ZM95.6818 17.5V10.178H97.2218V17.5H95.6818ZM95.6818 8.974V7.28H97.2218V8.974H95.6818ZM99.0864 7.28H100.626V15.386C100.626 15.7593 100.682 15.9973 100.794 16.1C100.906 16.2027 101.046 16.254 101.214 16.254C101.401 16.254 101.574 16.2353 101.732 16.198C101.9 16.1607 102.045 16.114 102.166 16.058L102.39 17.276C102.166 17.3693 101.9 17.4487 101.592 17.514C101.284 17.5793 101.009 17.612 100.766 17.612C100.244 17.612 99.8331 17.4673 99.5344 17.178C99.2358 16.8793 99.0864 16.4687 99.0864 15.946V7.28Z" fill="#1A1003" fill-opacity="0.5"/>
<path d="M69.028 35.14C68.412 35.14 67.8287 35.042 67.278 34.846C66.7273 34.6407 66.256 34.3373 65.864 33.936L66.438 32.9C66.858 33.2733 67.278 33.544 67.698 33.712C68.1273 33.88 68.552 33.964 68.972 33.964C69.4013 33.964 69.7513 33.8847 70.022 33.726C70.2927 33.558 70.428 33.3153 70.428 32.998C70.428 32.7647 70.358 32.592 70.218 32.48C70.078 32.368 69.8727 32.27 69.602 32.186C69.3407 32.102 69.0233 32.0087 68.65 31.906C68.1273 31.7473 67.6887 31.584 67.334 31.416C66.9793 31.2387 66.7133 31.024 66.536 30.772C66.3587 30.52 66.27 30.198 66.27 29.806C66.27 29.33 66.3913 28.924 66.634 28.588C66.8767 28.252 67.2127 27.9953 67.642 27.818C68.0807 27.6407 68.5847 27.552 69.154 27.552C69.686 27.552 70.176 27.636 70.624 27.804C71.0813 27.9627 71.4827 28.2147 71.828 28.56L71.17 29.582C70.8433 29.2833 70.5073 29.064 70.162 28.924C69.826 28.784 69.462 28.714 69.07 28.714C68.846 28.714 68.6313 28.742 68.426 28.798C68.2207 28.8447 68.048 28.938 67.908 29.078C67.7773 29.2087 67.712 29.3953 67.712 29.638C67.712 29.834 67.768 29.9927 67.88 30.114C67.992 30.2353 68.16 30.338 68.384 30.422C68.608 30.506 68.8833 30.5993 69.21 30.702C69.7793 30.87 70.2647 31.038 70.666 31.206C71.0673 31.3647 71.3753 31.5747 71.59 31.836C71.814 32.088 71.926 32.438 71.926 32.886C71.926 33.5953 71.66 34.1507 71.128 34.552C70.6053 34.944 69.9053 35.14 69.028 35.14ZM72.769 32.858C72.769 32.3913 72.8996 31.9853 73.161 31.64C73.4316 31.2853 73.8003 31.0147 74.267 30.828C74.7336 30.632 75.275 30.534 75.891 30.534C76.2176 30.534 76.549 30.5573 76.885 30.604C77.2303 30.6507 77.5336 30.7253 77.795 30.828V30.366C77.795 29.8527 77.641 29.4513 77.333 29.162C77.025 28.8727 76.5816 28.728 76.003 28.728C75.5923 28.728 75.205 28.8027 74.841 28.952C74.477 29.092 74.0896 29.2927 73.679 29.554L73.161 28.518C73.6463 28.1913 74.1316 27.9487 74.617 27.79C75.1116 27.6313 75.6296 27.552 76.171 27.552C77.151 27.552 77.921 27.8133 78.481 28.336C79.0503 28.8493 79.335 29.582 79.335 30.534V33.264C79.335 33.4413 79.363 33.5673 79.419 33.642C79.4843 33.7167 79.5916 33.7587 79.741 33.768V35C79.601 35.028 79.475 35.0467 79.363 35.056C79.251 35.0653 79.1576 35.07 79.083 35.07C78.7563 35.07 78.509 34.9907 78.341 34.832C78.173 34.6733 78.075 34.4867 78.047 34.272L78.005 33.852C77.6876 34.2627 77.2816 34.58 76.787 34.804C76.2923 35.028 75.793 35.14 75.289 35.14C74.8036 35.14 74.3696 35.042 73.987 34.846C73.6043 34.6407 73.3056 34.3653 73.091 34.02C72.8763 33.6747 72.769 33.2873 72.769 32.858ZM77.431 33.306C77.543 33.1847 77.6316 33.0633 77.697 32.942C77.7623 32.8207 77.795 32.7133 77.795 32.62V31.78C77.5336 31.6773 77.2583 31.6027 76.969 31.556C76.6796 31.5 76.395 31.472 76.115 31.472C75.555 31.472 75.0976 31.584 74.743 31.808C74.3976 32.032 74.225 32.34 74.225 32.732C74.225 32.9467 74.281 33.152 74.393 33.348C74.5143 33.544 74.6823 33.7027 74.897 33.824C75.121 33.9453 75.3963 34.006 75.723 34.006C76.059 34.006 76.381 33.9407 76.689 33.81C76.997 33.6793 77.2443 33.5113 77.431 33.306ZM92.4033 35H90.8633V30.898C90.8633 30.2167 90.7513 29.7173 90.5273 29.4C90.3033 29.0827 89.9766 28.924 89.5473 28.924C89.118 28.924 88.7166 29.0873 88.3433 29.414C87.9793 29.7313 87.7226 30.1467 87.5733 30.66V35H86.0333V30.898C86.0333 30.2167 85.9213 29.7173 85.6973 29.4C85.4733 29.0827 85.1513 28.924 84.7313 28.924C84.302 28.924 83.9006 29.0827 83.5273 29.4C83.1633 29.7173 82.902 30.1327 82.7433 30.646V35H81.2033V27.678H82.6033V29.148C82.8926 28.6347 83.2706 28.2427 83.7373 27.972C84.2133 27.692 84.7546 27.552 85.3613 27.552C85.968 27.552 86.444 27.7107 86.7893 28.028C87.144 28.3453 87.3633 28.742 87.4473 29.218C87.7646 28.6767 88.152 28.266 88.6093 27.986C89.076 27.6967 89.608 27.552 90.2053 27.552C90.6346 27.552 90.994 27.6313 91.2833 27.79C91.5726 27.9487 91.7966 28.168 91.9553 28.448C92.114 28.7187 92.226 29.036 92.2913 29.4C92.366 29.7547 92.4033 30.1327 92.4033 30.534V35ZM93.6459 32.858C93.6459 32.3913 93.7766 31.9853 94.0379 31.64C94.3086 31.2853 94.6772 31.0147 95.1439 30.828C95.6106 30.632 96.1519 30.534 96.7679 30.534C97.0946 30.534 97.4259 30.5573 97.7619 30.604C98.1072 30.6507 98.4106 30.7253 98.6719 30.828V30.366C98.6719 29.8527 98.5179 29.4513 98.2099 29.162C97.9019 28.8727 97.4586 28.728 96.8799 28.728C96.4692 28.728 96.0819 28.8027 95.7179 28.952C95.3539 29.092 94.9666 29.2927 94.5559 29.554L94.0379 28.518C94.5232 28.1913 95.0086 27.9487 95.4939 27.79C95.9886 27.6313 96.5066 27.552 97.0479 27.552C98.0279 27.552 98.7979 27.8133 99.3579 28.336C99.9272 28.8493 100.212 29.582 100.212 30.534V33.264C100.212 33.4413 100.24 33.5673 100.296 33.642C100.361 33.7167 100.469 33.7587 100.618 33.768V35C100.478 35.028 100.352 35.0467 100.24 35.056C100.128 35.0653 100.035 35.07 99.9599 35.07C99.6332 35.07 99.3859 34.9907 99.2179 34.832C99.0499 34.6733 98.9519 34.4867 98.9239 34.272L98.8819 33.852C98.5646 34.2627 98.1586 34.58 97.6639 34.804C97.1692 35.028 96.6699 35.14 96.1659 35.14C95.6806 35.14 95.2466 35.042 94.8639 34.846C94.4812 34.6407 94.1826 34.3653 93.9679 34.02C93.7532 33.6747 93.6459 33.2873 93.6459 32.858ZM98.3079 33.306C98.4199 33.1847 98.5086 33.0633 98.5739 32.942C98.6392 32.8207 98.6719 32.7133 98.6719 32.62V31.78C98.4106 31.6773 98.1352 31.6027 97.8459 31.556C97.5566 31.5 97.2719 31.472 96.9919 31.472C96.4319 31.472 95.9746 31.584 95.6199 31.808C95.2746 32.032 95.1019 32.34 95.1019 32.732C95.1019 32.9467 95.1579 33.152 95.2699 33.348C95.3912 33.544 95.5592 33.7027 95.7739 33.824C95.9979 33.9453 96.2732 34.006 96.5999 34.006C96.9359 34.006 97.2579 33.9407 97.5659 33.81C97.8739 33.6793 98.1212 33.5113 98.3079 33.306ZM106.196 29.008C105.599 29.0173 105.067 29.1527 104.6 29.414C104.143 29.6753 103.816 30.044 103.62 30.52V35H102.08V27.678H103.508V29.316C103.76 28.812 104.092 28.4107 104.502 28.112C104.913 27.804 105.347 27.636 105.804 27.608C105.898 27.608 105.972 27.608 106.028 27.608C106.094 27.608 106.15 27.6127 106.196 27.622V29.008ZM111.391 34.622C111.26 34.6873 111.097 34.7573 110.901 34.832C110.705 34.9067 110.481 34.972 110.229 35.028C109.986 35.084 109.734 35.112 109.473 35.112C109.155 35.112 108.861 35.056 108.591 34.944C108.32 34.832 108.101 34.6547 107.933 34.412C107.774 34.16 107.695 33.838 107.695 33.446V28.868H106.729V27.678H107.695V25.27H109.235V27.678H110.831V28.868H109.235V32.956C109.253 33.208 109.333 33.3947 109.473 33.516C109.622 33.6373 109.804 33.698 110.019 33.698C110.233 33.698 110.439 33.6607 110.635 33.586C110.831 33.5113 110.975 33.4507 111.069 33.404L111.391 34.622ZM119.023 35H117.483V30.898C117.483 30.2353 117.362 29.7407 117.119 29.414C116.877 29.0873 116.536 28.924 116.097 28.924C115.827 28.924 115.547 28.9987 115.257 29.148C114.968 29.2973 114.711 29.5027 114.487 29.764C114.263 30.016 114.1 30.31 113.997 30.646V35H112.457V24.78H113.997V29.148C114.277 28.6533 114.66 28.266 115.145 27.986C115.631 27.6967 116.153 27.552 116.713 27.552C117.171 27.552 117.549 27.6313 117.847 27.79C118.146 27.9487 118.379 28.168 118.547 28.448C118.725 28.7187 118.846 29.036 118.911 29.4C118.986 29.7547 119.023 30.1327 119.023 30.534V35ZM120.279 32.858C120.279 32.3913 120.409 31.9853 120.671 31.64C120.941 31.2853 121.31 31.0147 121.777 30.828C122.243 30.632 122.785 30.534 123.401 30.534C123.727 30.534 124.059 30.5573 124.395 30.604C124.74 30.6507 125.043 30.7253 125.305 30.828V30.366C125.305 29.8527 125.151 29.4513 124.843 29.162C124.535 28.8727 124.091 28.728 123.513 28.728C123.102 28.728 122.715 28.8027 122.351 28.952C121.987 29.092 121.599 29.2927 121.189 29.554L120.671 28.518C121.156 28.1913 121.641 27.9487 122.127 27.79C122.621 27.6313 123.139 27.552 123.681 27.552C124.661 27.552 125.431 27.8133 125.991 28.336C126.56 28.8493 126.845 29.582 126.845 30.534V33.264C126.845 33.4413 126.873 33.5673 126.929 33.642C126.994 33.7167 127.101 33.7587 127.251 33.768V35C127.111 35.028 126.985 35.0467 126.873 35.056C126.761 35.0653 126.667 35.07 126.593 35.07C126.266 35.07 126.019 34.9907 125.851 34.832C125.683 34.6733 125.585 34.4867 125.557 34.272L125.515 33.852C125.197 34.2627 124.791 34.58 124.297 34.804C123.802 35.028 123.303 35.14 122.799 35.14C122.313 35.14 121.879 35.042 121.497 34.846C121.114 34.6407 120.815 34.3653 120.601 34.02C120.386 33.6747 120.279 33.2873 120.279 32.858ZM124.941 33.306C125.053 33.1847 125.141 33.0633 125.207 32.942C125.272 32.8207 125.305 32.7133 125.305 32.62V31.78C125.043 31.6773 124.768 31.6027 124.479 31.556C124.189 31.5 123.905 31.472 123.625 31.472C123.065 31.472 122.607 31.584 122.253 31.808C121.907 32.032 121.735 32.34 121.735 32.732C121.735 32.9467 121.791 33.152 121.903 33.348C122.024 33.544 122.192 33.7027 122.407 33.824C122.631 33.9453 122.906 34.006 123.233 34.006C123.569 34.006 123.891 33.9407 124.199 33.81C124.507 33.6793 124.754 33.5113 124.941 33.306ZM132.732 34.622C132.602 34.6873 132.438 34.7573 132.242 34.832C132.046 34.9067 131.822 34.972 131.57 35.028C131.328 35.084 131.076 35.112 130.814 35.112C130.497 35.112 130.203 35.056 129.932 34.944C129.662 34.832 129.442 34.6547 129.274 34.412C129.116 34.16 129.036 33.838 129.036 33.446V28.868H128.07V27.678H129.036V25.27H130.576V27.678H132.172V28.868H130.576V32.956C130.595 33.208 130.674 33.3947 130.814 33.516C130.964 33.6373 131.146 33.698 131.36 33.698C131.575 33.698 131.78 33.6607 131.976 33.586C132.172 33.5113 132.317 33.4507 132.41 33.404L132.732 34.622ZM140.365 35H138.825V30.898C138.825 30.2353 138.704 29.7407 138.461 29.414C138.218 29.0873 137.878 28.924 137.439 28.924C137.168 28.924 136.888 28.9987 136.599 29.148C136.31 29.2973 136.053 29.5027 135.829 29.764C135.605 30.016 135.442 30.31 135.339 30.646V35H133.799V24.78H135.339V29.148C135.619 28.6533 136.002 28.266 136.487 27.986C136.972 27.6967 137.495 27.552 138.055 27.552C138.512 27.552 138.89 27.6313 139.189 27.79C139.488 27.9487 139.721 28.168 139.889 28.448C140.066 28.7187 140.188 29.036 140.253 29.4C140.328 29.7547 140.365 30.1327 140.365 30.534V35ZM141.621 32.858C141.621 32.3913 141.751 31.9853 142.013 31.64C142.283 31.2853 142.652 31.0147 143.119 30.828C143.585 30.632 144.127 30.534 144.743 30.534C145.069 30.534 145.401 30.5573 145.737 30.604C146.082 30.6507 146.385 30.7253 146.647 30.828V30.366C146.647 29.8527 146.493 29.4513 146.185 29.162C145.877 28.8727 145.433 28.728 144.855 28.728C144.444 28.728 144.057 28.8027 143.693 28.952C143.329 29.092 142.941 29.2927 142.531 29.554L142.013 28.518C142.498 28.1913 142.983 27.9487 143.469 27.79C143.963 27.6313 144.481 27.552 145.023 27.552C146.003 27.552 146.773 27.8133 147.333 28.336C147.902 28.8493 148.187 29.582 148.187 30.534V33.264C148.187 33.4413 148.215 33.5673 148.271 33.642C148.336 33.7167 148.443 33.7587 148.593 33.768V35C148.453 35.028 148.327 35.0467 148.215 35.056C148.103 35.0653 148.009 35.07 147.935 35.07C147.608 35.07 147.361 34.9907 147.193 34.832C147.025 34.6733 146.927 34.4867 146.899 34.272L146.857 33.852C146.539 34.2627 146.133 34.58 145.639 34.804C145.144 35.028 144.645 35.14 144.141 35.14C143.655 35.14 143.221 35.042 142.839 34.846C142.456 34.6407 142.157 34.3653 141.943 34.02C141.728 33.6747 141.621 33.2873 141.621 32.858ZM146.283 33.306C146.395 33.1847 146.483 33.0633 146.549 32.942C146.614 32.8207 146.647 32.7133 146.647 32.62V31.78C146.385 31.6773 146.11 31.6027 145.821 31.556C145.531 31.5 145.247 31.472 144.967 31.472C144.407 31.472 143.949 31.584 143.595 31.808C143.249 32.032 143.077 32.34 143.077 32.732C143.077 32.9467 143.133 33.152 143.245 33.348C143.366 33.544 143.534 33.7027 143.749 33.824C143.973 33.9453 144.248 34.006 144.575 34.006C144.911 34.006 145.233 33.9407 145.541 33.81C145.849 33.6793 146.096 33.5113 146.283 33.306ZM154.171 29.008C153.574 29.0173 153.042 29.1527 152.575 29.414C152.118 29.6753 151.791 30.044 151.595 30.52V35H150.055V27.678H151.483V29.316C151.735 28.812 152.066 28.4107 152.477 28.112C152.888 27.804 153.322 27.636 153.779 27.608C153.872 27.608 153.947 27.608 154.003 27.608C154.068 27.608 154.124 27.6127 154.171 27.622V29.008ZM157.335 35L154.549 27.678H156.145L158.231 33.572L160.317 27.678H161.801L159.015 35H157.335ZM162.197 32.858C162.197 32.3913 162.327 31.9853 162.589 31.64C162.859 31.2853 163.228 31.0147 163.695 30.828C164.161 30.632 164.703 30.534 165.319 30.534C165.645 30.534 165.977 30.5573 166.313 30.604C166.658 30.6507 166.961 30.7253 167.223 30.828V30.366C167.223 29.8527 167.069 29.4513 166.761 29.162C166.453 28.8727 166.009 28.728 165.431 28.728C165.02 28.728 164.633 28.8027 164.269 28.952C163.905 29.092 163.517 29.2927 163.107 29.554L162.589 28.518C163.074 28.1913 163.559 27.9487 164.045 27.79C164.539 27.6313 165.057 27.552 165.599 27.552C166.579 27.552 167.349 27.8133 167.909 28.336C168.478 28.8493 168.763 29.582 168.763 30.534V33.264C168.763 33.4413 168.791 33.5673 168.847 33.642C168.912 33.7167 169.019 33.7587 169.169 33.768V35C169.029 35.028 168.903 35.0467 168.791 35.056C168.679 35.0653 168.585 35.07 168.511 35.07C168.184 35.07 167.937 34.9907 167.769 34.832C167.601 34.6733 167.503 34.4867 167.475 34.272L167.433 33.852C167.115 34.2627 166.709 34.58 166.215 34.804C165.72 35.028 165.221 35.14 164.717 35.14C164.231 35.14 163.797 35.042 163.415 34.846C163.032 34.6407 162.733 34.3653 162.519 34.02C162.304 33.6747 162.197 33.2873 162.197 32.858ZM166.859 33.306C166.971 33.1847 167.059 33.0633 167.125 32.942C167.19 32.8207 167.223 32.7133 167.223 32.62V31.78C166.961 31.6773 166.686 31.6027 166.397 31.556C166.107 31.5 165.823 31.472 165.543 31.472C164.983 31.472 164.525 31.584 164.171 31.808C163.825 32.032 163.653 32.34 163.653 32.732C163.653 32.9467 163.709 33.152 163.821 33.348C163.942 33.544 164.11 33.7027 164.325 33.824C164.549 33.9453 164.824 34.006 165.151 34.006C165.487 34.006 165.809 33.9407 166.117 33.81C166.425 33.6793 166.672 33.5113 166.859 33.306ZM175.965 33.614V35H170.617V33.614H172.605V28.728C172.521 28.84 172.39 28.9567 172.213 29.078C172.036 29.1993 171.835 29.316 171.611 29.428C171.396 29.5307 171.177 29.6147 170.953 29.68C170.729 29.7453 170.524 29.778 170.337 29.778V28.336C170.524 28.336 170.738 28.28 170.981 28.168C171.224 28.056 171.462 27.9253 171.695 27.776C171.938 27.6173 172.143 27.468 172.311 27.328C172.479 27.1787 172.577 27.0713 172.605 27.006H174.187V33.614H175.965ZM182.555 33.614V35H177.207V33.614H179.195V28.728C179.111 28.84 178.98 28.9567 178.803 29.078C178.626 29.1993 178.425 29.316 178.201 29.428C177.986 29.5307 177.767 29.6147 177.543 29.68C177.319 29.7453 177.114 29.778 176.927 29.778V28.336C177.114 28.336 177.328 28.28 177.571 28.168C177.814 28.056 178.052 27.9253 178.285 27.776C178.528 27.6173 178.733 27.468 178.901 27.328C179.069 27.1787 179.167 27.0713 179.195 27.006H180.777V33.614H182.555ZM189.145 33.614V35H183.797V33.614H185.785V28.728C185.701 28.84 185.57 28.9567 185.393 29.078C185.215 29.1993 185.015 29.316 184.791 29.428C184.576 29.5307 184.357 29.6147 184.133 29.68C183.909 29.7453 183.703 29.778 183.517 29.778V28.336C183.703 28.336 183.918 28.28 184.161 28.168C184.403 28.056 184.641 27.9253 184.875 27.776C185.117 27.6173 185.323 27.468 185.491 27.328C185.659 27.1787 185.757 27.0713 185.785 27.006H187.367V33.614H189.145ZM195.735 33.614V35H190.387V33.614H192.375V28.728C192.291 28.84 192.16 28.9567 191.983 29.078C191.805 29.1993 191.605 29.316 191.381 29.428C191.166 29.5307 190.947 29.6147 190.723 29.68C190.499 29.7453 190.293 29.778 190.107 29.778V28.336C190.293 28.336 190.508 28.28 190.751 28.168C190.993 28.056 191.231 27.9253 191.465 27.776C191.707 27.6173 191.913 27.468 192.081 27.328C192.249 27.1787 192.347 27.0713 192.375 27.006H193.957V33.614H195.735ZM203.948 30.898C203.948 31.7193 203.79 32.452 203.472 33.096C203.164 33.7307 202.74 34.23 202.198 34.594C201.666 34.958 201.055 35.14 200.364 35.14C199.683 35.14 199.072 34.958 198.53 34.594C197.989 34.23 197.56 33.7307 197.242 33.096C196.934 32.452 196.78 31.7193 196.78 30.898C196.78 30.0767 196.934 29.3487 197.242 28.714C197.56 28.07 197.989 27.566 198.53 27.202C199.072 26.8287 199.683 26.642 200.364 26.642C201.055 26.642 201.666 26.8287 202.198 27.202C202.74 27.566 203.164 28.07 203.472 28.714C203.79 29.3487 203.948 30.0767 203.948 30.898ZM202.38 30.898C202.38 30.338 202.296 29.848 202.128 29.428C201.96 28.9987 201.722 28.6673 201.414 28.434C201.106 28.1913 200.756 28.07 200.364 28.07C199.963 28.07 199.608 28.1913 199.3 28.434C198.992 28.6673 198.75 28.9987 198.572 29.428C198.404 29.848 198.32 30.338 198.32 30.898C198.32 31.458 198.404 31.948 198.572 32.368C198.75 32.788 198.992 33.1193 199.3 33.362C199.608 33.5953 199.963 33.712 200.364 33.712C200.756 33.712 201.102 33.5953 201.4 33.362C201.708 33.1193 201.946 32.788 202.114 32.368C202.292 31.948 202.38 31.458 202.38 30.898ZM205.226 35C205.226 34.608 205.259 34.2487 205.324 33.922C205.389 33.586 205.501 33.2687 205.66 32.97C205.828 32.6713 206.057 32.3913 206.346 32.13C206.645 31.8593 207.023 31.6027 207.48 31.36C207.807 31.1733 208.115 31.01 208.404 30.87C208.693 30.7207 208.95 30.576 209.174 30.436C209.398 30.2867 209.571 30.128 209.692 29.96C209.823 29.792 209.888 29.6007 209.888 29.386C209.888 29.1807 209.832 28.9893 209.72 28.812C209.608 28.6347 209.44 28.4947 209.216 28.392C208.992 28.28 208.721 28.224 208.404 28.224C208.152 28.224 207.919 28.2567 207.704 28.322C207.499 28.3873 207.307 28.476 207.13 28.588C206.962 28.6907 206.808 28.8073 206.668 28.938C206.528 29.0593 206.407 29.1807 206.304 29.302L205.338 28.196C205.431 28.084 205.576 27.958 205.772 27.818C205.977 27.6687 206.22 27.524 206.5 27.384C206.789 27.2347 207.116 27.1133 207.48 27.02C207.844 26.9173 208.241 26.866 208.67 26.866C209.277 26.866 209.795 26.9687 210.224 27.174C210.653 27.37 210.98 27.6453 211.204 28C211.437 28.3453 211.554 28.7373 211.554 29.176C211.554 29.5213 211.484 29.8247 211.344 30.086C211.213 30.3473 211.041 30.5807 210.826 30.786C210.611 30.982 210.383 31.1547 210.14 31.304C209.907 31.444 209.687 31.57 209.482 31.682C209.118 31.8593 208.801 32.0227 208.53 32.172C208.269 32.3213 208.045 32.4707 207.858 32.62C207.671 32.76 207.517 32.9093 207.396 33.068C207.275 33.2173 207.172 33.3993 207.088 33.614H211.708V35H205.226ZM218.23 26.558C218.92 26.558 219.574 26.6793 220.19 26.922C220.815 27.1553 221.37 27.5053 221.856 27.972C222.341 28.4293 222.724 28.9893 223.004 29.652C223.284 30.3053 223.424 31.052 223.424 31.892C223.424 32.0507 223.41 32.2653 223.382 32.536C223.363 32.8067 223.316 33.096 223.242 33.404C223.167 33.712 223.05 34.006 222.892 34.286C222.742 34.5567 222.537 34.7807 222.276 34.958C222.014 35.1353 221.688 35.224 221.296 35.224C220.969 35.224 220.717 35.1633 220.54 35.042C220.362 34.9207 220.236 34.7713 220.162 34.594C220.096 34.4073 220.05 34.216 220.022 34.02C219.751 34.3093 219.406 34.5473 218.986 34.734C218.575 34.9113 218.127 35 217.642 35C216.96 35 216.433 34.818 216.06 34.454C215.696 34.09 215.514 33.628 215.514 33.068C215.514 32.564 215.64 32.1673 215.892 31.878C216.153 31.5887 216.484 31.3833 216.886 31.262C217.296 31.1407 217.707 31.08 218.118 31.08C218.51 31.08 218.85 31.1173 219.14 31.192C219.429 31.2667 219.644 31.332 219.784 31.388C219.784 31.0147 219.737 30.6833 219.644 30.394C219.55 30.1047 219.382 29.8807 219.14 29.722C218.906 29.5633 218.57 29.484 218.132 29.484C217.758 29.484 217.408 29.54 217.082 29.652C216.764 29.764 216.48 29.918 216.228 30.114L215.92 29.274C216.256 29.05 216.624 28.8773 217.026 28.756C217.427 28.6347 217.842 28.574 218.272 28.574C218.85 28.574 219.303 28.6627 219.63 28.84C219.966 29.008 220.208 29.2413 220.358 29.54C220.516 29.8293 220.619 30.1467 220.666 30.492C220.712 30.828 220.736 31.1547 220.736 31.472V32.984C220.736 33.2547 220.745 33.5067 220.764 33.74C220.792 33.9733 220.857 34.16 220.96 34.3C221.062 34.4307 221.221 34.496 221.436 34.496C221.706 34.496 221.926 34.4027 222.094 34.216C222.262 34.0293 222.392 33.796 222.486 33.516C222.579 33.2267 222.644 32.9327 222.682 32.634C222.719 32.3353 222.738 32.0787 222.738 31.864C222.738 31.2013 222.626 30.59 222.402 30.03C222.178 29.4607 221.86 28.966 221.45 28.546C221.048 28.126 220.572 27.7993 220.022 27.566C219.471 27.3233 218.86 27.202 218.188 27.202C217.544 27.202 216.942 27.3187 216.382 27.552C215.831 27.776 215.35 28.0933 214.94 28.504C214.538 28.9147 214.221 29.4 213.988 29.96C213.764 30.52 213.652 31.1267 213.652 31.78C213.652 32.424 213.759 33.026 213.974 33.586C214.188 34.1367 214.492 34.622 214.884 35.042C215.276 35.462 215.738 35.7933 216.27 36.036C216.811 36.2787 217.408 36.4 218.062 36.4C218.491 36.4 218.874 36.3487 219.21 36.246C219.546 36.1433 219.886 36.0173 220.232 35.868L220.456 36.484C220.073 36.6707 219.676 36.8107 219.266 36.904C218.855 36.9973 218.449 37.044 218.048 37.044C217.348 37.044 216.69 36.9133 216.074 36.652C215.467 36.4 214.93 36.0407 214.464 35.574C213.997 35.1073 213.628 34.552 213.358 33.908C213.096 33.264 212.966 32.5547 212.966 31.78C212.966 30.9587 213.106 30.226 213.386 29.582C213.675 28.938 214.067 28.392 214.562 27.944C215.056 27.496 215.616 27.1553 216.242 26.922C216.876 26.6793 217.539 26.558 218.23 26.558ZM218.986 33.866C219.191 33.7633 219.35 33.6513 219.462 33.53C219.574 33.3993 219.653 33.264 219.7 33.124C219.746 32.9747 219.77 32.8253 219.77 32.676V32.144C219.639 32.116 219.429 32.06 219.14 31.976C218.85 31.892 218.51 31.85 218.118 31.85C217.819 31.85 217.544 31.8873 217.292 31.962C217.04 32.0367 216.839 32.1627 216.69 32.34C216.54 32.508 216.466 32.7367 216.466 33.026C216.466 33.2407 216.517 33.4367 216.62 33.614C216.722 33.782 216.867 33.9173 217.054 34.02C217.24 34.1133 217.464 34.16 217.726 34.16C217.931 34.16 218.146 34.132 218.37 34.076C218.603 34.02 218.808 33.95 218.986 33.866ZM227.97 35.07C227.476 35.07 227.023 34.972 226.612 34.776C226.202 34.5707 225.847 34.2953 225.548 33.95C225.259 33.6047 225.03 33.208 224.862 32.76C224.704 32.312 224.624 31.8407 224.624 31.346C224.624 30.8233 224.708 30.3333 224.876 29.876C225.044 29.4187 225.278 29.0173 225.576 28.672C225.884 28.3173 226.244 28.042 226.654 27.846C227.065 27.65 227.522 27.552 228.026 27.552C228.614 27.552 229.128 27.692 229.566 27.972C230.014 28.252 230.383 28.616 230.672 29.064V27.678H232.03V34.79C232.03 35.4993 231.858 36.1013 231.512 36.596C231.176 37.0907 230.714 37.4687 230.126 37.73C229.538 37.9913 228.876 38.122 228.138 38.122C227.326 38.122 226.654 37.982 226.122 37.702C225.59 37.422 225.138 37.0393 224.764 36.554L225.632 35.742C225.912 36.134 226.272 36.4327 226.71 36.638C227.158 36.8433 227.634 36.946 228.138 36.946C228.558 36.946 228.946 36.8667 229.3 36.708C229.664 36.5587 229.954 36.3207 230.168 35.994C230.383 35.6767 230.49 35.2753 230.49 34.79V33.67C230.229 34.1087 229.87 34.454 229.412 34.706C228.955 34.9487 228.474 35.07 227.97 35.07ZM228.474 33.824C228.708 33.824 228.932 33.7867 229.146 33.712C229.361 33.628 229.557 33.5207 229.734 33.39C229.921 33.25 230.08 33.096 230.21 32.928C230.341 32.7507 230.434 32.564 230.49 32.368V30.45C230.369 30.1327 230.196 29.8573 229.972 29.624C229.748 29.3813 229.496 29.1947 229.216 29.064C228.936 28.9333 228.652 28.868 228.362 28.868C228.026 28.868 227.723 28.9427 227.452 29.092C227.191 29.232 226.967 29.4233 226.78 29.666C226.594 29.8993 226.449 30.1653 226.346 30.464C226.244 30.7627 226.192 31.0707 226.192 31.388C226.192 31.724 226.248 32.0367 226.36 32.326C226.482 32.6153 226.645 32.8767 226.85 33.11C227.056 33.334 227.298 33.5113 227.578 33.642C227.858 33.7633 228.157 33.824 228.474 33.824ZM245.077 35H243.537V30.898C243.537 30.2167 243.425 29.7173 243.201 29.4C242.977 29.0827 242.65 28.924 242.221 28.924C241.792 28.924 241.39 29.0873 241.017 29.414C240.653 29.7313 240.396 30.1467 240.247 30.66V35H238.707V30.898C238.707 30.2167 238.595 29.7173 238.371 29.4C238.147 29.0827 237.825 28.924 237.405 28.924C236.976 28.924 236.574 29.0827 236.201 29.4C235.837 29.7173 235.576 30.1327 235.417 30.646V35H233.877V27.678H235.277V29.148C235.566 28.6347 235.944 28.2427 236.411 27.972C236.887 27.692 237.428 27.552 238.035 27.552C238.642 27.552 239.118 27.7107 239.463 28.028C239.818 28.3453 240.037 28.742 240.121 29.218C240.438 28.6767 240.826 28.266 241.283 27.986C241.75 27.6967 242.282 27.552 242.879 27.552C243.308 27.552 243.668 27.6313 243.957 27.79C244.246 27.9487 244.47 28.168 244.629 28.448C244.788 28.7187 244.9 29.036 244.965 29.4C245.04 29.7547 245.077 30.1327 245.077 30.534V35ZM246.32 32.858C246.32 32.3913 246.45 31.9853 246.712 31.64C246.982 31.2853 247.351 31.0147 247.818 30.828C248.284 30.632 248.826 30.534 249.442 30.534C249.768 30.534 250.1 30.5573 250.436 30.604C250.781 30.6507 251.084 30.7253 251.346 30.828V30.366C251.346 29.8527 251.192 29.4513 250.884 29.162C250.576 28.8727 250.132 28.728 249.554 28.728C249.143 28.728 248.756 28.8027 248.392 28.952C248.028 29.092 247.64 29.2927 247.23 29.554L246.712 28.518C247.197 28.1913 247.682 27.9487 248.168 27.79C248.662 27.6313 249.18 27.552 249.722 27.552C250.702 27.552 251.472 27.8133 252.032 28.336C252.601 28.8493 252.886 29.582 252.886 30.534V33.264C252.886 33.4413 252.914 33.5673 252.97 33.642C253.035 33.7167 253.142 33.7587 253.292 33.768V35C253.152 35.028 253.026 35.0467 252.914 35.056C252.802 35.0653 252.708 35.07 252.634 35.07C252.307 35.07 252.06 34.9907 251.892 34.832C251.724 34.6733 251.626 34.4867 251.598 34.272L251.556 33.852C251.238 34.2627 250.832 34.58 250.338 34.804C249.843 35.028 249.344 35.14 248.84 35.14C248.354 35.14 247.92 35.042 247.538 34.846C247.155 34.6407 246.856 34.3653 246.642 34.02C246.427 33.6747 246.32 33.2873 246.32 32.858ZM250.982 33.306C251.094 33.1847 251.182 33.0633 251.248 32.942C251.313 32.8207 251.346 32.7133 251.346 32.62V31.78C251.084 31.6773 250.809 31.6027 250.52 31.556C250.23 31.5 249.946 31.472 249.666 31.472C249.106 31.472 248.648 31.584 248.294 31.808C247.948 32.032 247.776 32.34 247.776 32.732C247.776 32.9467 247.832 33.152 247.944 33.348C248.065 33.544 248.233 33.7027 248.448 33.824C248.672 33.9453 248.947 34.006 249.274 34.006C249.61 34.006 249.932 33.9407 250.24 33.81C250.548 33.6793 250.795 33.5113 250.982 33.306ZM254.754 35V27.678H256.294V35H254.754ZM254.754 26.474V24.78H256.294V26.474H254.754ZM258.159 24.78H259.699V32.886C259.699 33.2593 259.755 33.4973 259.867 33.6C259.979 33.7027 260.119 33.754 260.287 33.754C260.473 33.754 260.646 33.7353 260.805 33.698C260.973 33.6607 261.117 33.614 261.239 33.558L261.463 34.776C261.239 34.8693 260.973 34.9487 260.665 35.014C260.357 35.0793 260.081 35.112 259.839 35.112C259.316 35.112 258.905 34.9673 258.607 34.678C258.308 34.3793 258.159 33.9687 258.159 33.446V24.78ZM262.286 35V33.208H263.56V35H262.286ZM268.435 35.14C267.866 35.14 267.348 35.042 266.881 34.846C266.424 34.6407 266.027 34.3607 265.691 34.006C265.355 33.6513 265.094 33.2453 264.907 32.788C264.73 32.3307 264.641 31.8453 264.641 31.332C264.641 30.6413 264.795 30.0113 265.103 29.442C265.421 28.8727 265.859 28.4153 266.419 28.07C266.989 27.7247 267.661 27.552 268.435 27.552C269.182 27.552 269.831 27.72 270.381 28.056C270.941 28.3827 271.352 28.8213 271.613 29.372L270.115 29.848C269.947 29.54 269.709 29.302 269.401 29.134C269.103 28.9567 268.771 28.868 268.407 28.868C267.997 28.868 267.623 28.9753 267.287 29.19C266.961 29.3953 266.699 29.6847 266.503 30.058C266.317 30.422 266.223 30.8467 266.223 31.332C266.223 31.7987 266.321 32.2233 266.517 32.606C266.713 32.9793 266.975 33.278 267.301 33.502C267.637 33.7167 268.011 33.824 268.421 33.824C268.673 33.824 268.916 33.782 269.149 33.698C269.392 33.6047 269.602 33.4833 269.779 33.334C269.957 33.1753 270.083 33.0027 270.157 32.816L271.669 33.264C271.511 33.628 271.273 33.95 270.955 34.23C270.647 34.51 270.279 34.734 269.849 34.902C269.429 35.0607 268.958 35.14 268.435 35.14ZM276.159 35.14C275.581 35.14 275.063 35.042 274.605 34.846C274.148 34.6407 273.751 34.3607 273.415 34.006C273.089 33.6513 272.837 33.25 272.659 32.802C272.482 32.3447 272.393 31.8593 272.393 31.346C272.393 30.8327 272.482 30.3473 272.659 29.89C272.837 29.4327 273.089 29.0313 273.415 28.686C273.751 28.3313 274.148 28.056 274.605 27.86C275.072 27.6547 275.59 27.552 276.159 27.552C276.729 27.552 277.242 27.6547 277.699 27.86C278.166 28.056 278.563 28.3313 278.889 28.686C279.225 29.0313 279.482 29.4327 279.659 29.89C279.837 30.3473 279.925 30.8327 279.925 31.346C279.925 31.8593 279.837 32.3447 279.659 32.802C279.482 33.25 279.225 33.6513 278.889 34.006C278.563 34.3607 278.166 34.6407 277.699 34.846C277.242 35.042 276.729 35.14 276.159 35.14ZM273.975 31.36C273.975 31.8267 274.073 32.2467 274.269 32.62C274.465 32.9933 274.727 33.2873 275.053 33.502C275.38 33.7167 275.749 33.824 276.159 33.824C276.561 33.824 276.925 33.7167 277.251 33.502C277.587 33.278 277.853 32.9793 278.049 32.606C278.245 32.2233 278.343 31.8033 278.343 31.346C278.343 30.8793 278.245 30.4593 278.049 30.086C277.853 29.7127 277.587 29.4187 277.251 29.204C276.925 28.98 276.561 28.868 276.159 28.868C275.749 28.868 275.38 28.98 275.053 29.204C274.727 29.428 274.465 29.7267 274.269 30.1C274.073 30.464 273.975 30.884 273.975 31.36ZM292.491 35H290.951V30.898C290.951 30.2167 290.839 29.7173 290.615 29.4C290.391 29.0827 290.065 28.924 289.635 28.924C289.206 28.924 288.805 29.0873 288.431 29.414C288.067 29.7313 287.811 30.1467 287.661 30.66V35H286.121V30.898C286.121 30.2167 286.009 29.7173 285.785 29.4C285.561 29.0827 285.239 28.924 284.819 28.924C284.39 28.924 283.989 29.0827 283.615 29.4C283.251 29.7173 282.99 30.1327 282.831 30.646V35H281.291V27.678H282.691V29.148C282.981 28.6347 283.359 28.2427 283.825 27.972C284.301 27.692 284.843 27.552 285.449 27.552C286.056 27.552 286.532 27.7107 286.877 28.028C287.232 28.3453 287.451 28.742 287.535 29.218C287.853 28.6767 288.24 28.266 288.697 27.986C289.164 27.6967 289.696 27.552 290.293 27.552C290.723 27.552 291.082 27.6313 291.371 27.79C291.661 27.9487 291.885 28.168 292.043 28.448C292.202 28.7187 292.314 29.036 292.379 29.4C292.454 29.7547 292.491 30.1327 292.491 30.534V35Z" fill="black"/>
</svg>
