<svg width="256" height="66" viewBox="0 0 256 66" fill="none" xmlns="http://www.w3.org/2000/svg">
<line y1="65.5" x2="256" y2="65.5" stroke="#CDCDCD" stroke-opacity="0.5"/>
<rect width="43.5" height="43.499" rx="8" transform="matrix(-1 0 0 1 45 0)" fill="#F2F7FC"/>
<rect width="23.5" height="23.499" rx="8.26855" transform="matrix(-1 0 0 1 35 10)" fill="#F2F7FC"/>
<path d="M23.25 12C26.9766 12 30 14.8777 30 18.4219C30 22.5 25.5 28.9627 23.8477 31.1948C23.7791 31.2891 23.6892 31.3657 23.5853 31.4186C23.4814 31.4715 23.3665 31.499 23.25 31.499C23.1335 31.499 23.0186 31.4715 22.9147 31.4186C22.8108 31.3657 22.7209 31.2891 22.6523 31.1948C21 28.9636 16.5 22.5033 16.5 18.4219C16.5 14.8777 19.5234 12 23.25 12Z" stroke="#E80505" stroke-width="1.5" stroke-linecap="round" stroke-linejoin="round"/>
<path d="M23.25 21.0154C22.0332 21.0154 21.0469 20.0291 21.0469 18.8124C21.0469 17.5957 22.0332 16.6094 23.25 16.6094C24.4668 16.6094 25.4531 17.5957 25.4531 18.8124C25.4531 20.0291 24.4668 21.0154 23.25 21.0154Z" stroke="#E80505" stroke-width="1.5" stroke-linecap="round" stroke-linejoin="round"/>
<path d="M56.12 17.5V7.56H57.688V16.114H63.022V17.5H56.12ZM67.3078 17.64C66.7291 17.64 66.2111 17.542 65.7538 17.346C65.2964 17.1407 64.8998 16.8607 64.5638 16.506C64.2371 16.1513 63.9851 15.75 63.8078 15.302C63.6304 14.8447 63.5418 14.3593 63.5418 13.846C63.5418 13.3327 63.6304 12.8473 63.8078 12.39C63.9851 11.9327 64.2371 11.5313 64.5638 11.186C64.8998 10.8313 65.2964 10.556 65.7538 10.36C66.2204 10.1547 66.7384 10.052 67.3078 10.052C67.8771 10.052 68.3904 10.1547 68.8478 10.36C69.3144 10.556 69.7111 10.8313 70.0378 11.186C70.3738 11.5313 70.6304 11.9327 70.8077 12.39C70.9851 12.8473 71.0738 13.3327 71.0738 13.846C71.0738 14.3593 70.9851 14.8447 70.8077 15.302C70.6304 15.75 70.3738 16.1513 70.0378 16.506C69.7111 16.8607 69.3144 17.1407 68.8478 17.346C68.3904 17.542 67.8771 17.64 67.3078 17.64ZM65.1238 13.86C65.1238 14.3267 65.2218 14.7467 65.4178 15.12C65.6138 15.4933 65.8751 15.7873 66.2018 16.002C66.5284 16.2167 66.8971 16.324 67.3078 16.324C67.7091 16.324 68.0731 16.2167 68.3998 16.002C68.7358 15.778 69.0018 15.4793 69.1978 15.106C69.3938 14.7233 69.4918 14.3033 69.4918 13.846C69.4918 13.3793 69.3938 12.9593 69.1978 12.586C69.0018 12.2127 68.7358 11.9187 68.3998 11.704C68.0731 11.48 67.7091 11.368 67.3078 11.368C66.8971 11.368 66.5284 11.48 66.2018 11.704C65.8751 11.928 65.6138 12.2267 65.4178 12.6C65.2218 12.964 65.1238 13.384 65.1238 13.86ZM75.7576 17.64C75.1883 17.64 74.6703 17.542 74.2036 17.346C73.7463 17.1407 73.3496 16.8607 73.0136 16.506C72.6776 16.1513 72.4163 15.7453 72.2296 15.288C72.0523 14.8307 71.9636 14.3453 71.9636 13.832C71.9636 13.1413 72.1176 12.5113 72.4256 11.942C72.743 11.3727 73.1816 10.9153 73.7416 10.57C74.311 10.2247 74.983 10.052 75.7576 10.052C76.5043 10.052 77.153 10.22 77.7036 10.556C78.2636 10.8827 78.6743 11.3213 78.9356 11.872L77.4376 12.348C77.2696 12.04 77.0316 11.802 76.7236 11.634C76.425 11.4567 76.0936 11.368 75.7296 11.368C75.319 11.368 74.9456 11.4753 74.6096 11.69C74.283 11.8953 74.0216 12.1847 73.8256 12.558C73.639 12.922 73.5456 13.3467 73.5456 13.832C73.5456 14.2987 73.6436 14.7233 73.8396 15.106C74.0356 15.4793 74.297 15.778 74.6236 16.002C74.9596 16.2167 75.333 16.324 75.7436 16.324C75.9956 16.324 76.2383 16.282 76.4716 16.198C76.7143 16.1047 76.9243 15.9833 77.1016 15.834C77.279 15.6753 77.405 15.5027 77.4796 15.316L78.9916 15.764C78.833 16.128 78.595 16.45 78.2776 16.73C77.9696 17.01 77.601 17.234 77.1716 17.402C76.7516 17.5607 76.2803 17.64 75.7576 17.64ZM79.7279 15.358C79.7279 14.8913 79.8586 14.4853 80.1199 14.14C80.3906 13.7853 80.7593 13.5147 81.2259 13.328C81.6926 13.132 82.2339 13.034 82.8499 13.034C83.1766 13.034 83.5079 13.0573 83.8439 13.104C84.1893 13.1507 84.4926 13.2253 84.7539 13.328V12.866C84.7539 12.3527 84.5999 11.9513 84.2919 11.662C83.9839 11.3727 83.5406 11.228 82.9619 11.228C82.5513 11.228 82.1639 11.3027 81.7999 11.452C81.4359 11.592 81.0486 11.7927 80.6379 12.054L80.1199 11.018C80.6053 10.6913 81.0906 10.4487 81.5759 10.29C82.0706 10.1313 82.5886 10.052 83.1299 10.052C84.1099 10.052 84.8799 10.3133 85.4399 10.836C86.0093 11.3493 86.2939 12.082 86.2939 13.034V15.764C86.2939 15.9413 86.3219 16.0673 86.3779 16.142C86.4433 16.2167 86.5506 16.2587 86.6999 16.268V17.5C86.5599 17.528 86.4339 17.5467 86.3219 17.556C86.2099 17.5653 86.1166 17.57 86.0419 17.57C85.7153 17.57 85.4679 17.4907 85.2999 17.332C85.1319 17.1733 85.0339 16.9867 85.0059 16.772L84.9639 16.352C84.6466 16.7627 84.2406 17.08 83.7459 17.304C83.2513 17.528 82.7519 17.64 82.2479 17.64C81.7626 17.64 81.3286 17.542 80.9459 17.346C80.5633 17.1407 80.2646 16.8653 80.0499 16.52C79.8353 16.1747 79.7279 15.7873 79.7279 15.358ZM84.3899 15.806C84.5019 15.6847 84.5906 15.5633 84.6559 15.442C84.7213 15.3207 84.7539 15.2133 84.7539 15.12V14.28C84.4926 14.1773 84.2173 14.1027 83.9279 14.056C83.6386 14 83.3539 13.972 83.0739 13.972C82.5139 13.972 82.0566 14.084 81.7019 14.308C81.3566 14.532 81.1839 14.84 81.1839 15.232C81.1839 15.4467 81.2399 15.652 81.3519 15.848C81.4733 16.044 81.6413 16.2027 81.8559 16.324C82.0799 16.4453 82.3553 16.506 82.6819 16.506C83.0179 16.506 83.3399 16.4407 83.6479 16.31C83.9559 16.1793 84.2033 16.0113 84.3899 15.806ZM92.1816 17.122C92.0509 17.1873 91.8876 17.2573 91.6916 17.332C91.4956 17.4067 91.2716 17.472 91.0196 17.528C90.7769 17.584 90.5249 17.612 90.2636 17.612C89.9463 17.612 89.6523 17.556 89.3816 17.444C89.1109 17.332 88.8916 17.1547 88.7236 16.912C88.5649 16.66 88.4856 16.338 88.4856 15.946V11.368H87.5196V10.178H88.4856V7.77H90.0256V10.178H91.6216V11.368H90.0256V15.456C90.0443 15.708 90.1236 15.8947 90.2636 16.016C90.4129 16.1373 90.5949 16.198 90.8096 16.198C91.0243 16.198 91.2296 16.1607 91.4256 16.086C91.6216 16.0113 91.7663 15.9507 91.8596 15.904L92.1816 17.122ZM93.2482 17.5V10.178H94.7882V17.5H93.2482ZM93.2482 8.974V7.28H94.7882V8.974H93.2482ZM99.9288 17.64C99.3502 17.64 98.8322 17.542 98.3748 17.346C97.9175 17.1407 97.5208 16.8607 97.1848 16.506C96.8582 16.1513 96.6062 15.75 96.4288 15.302C96.2515 14.8447 96.1628 14.3593 96.1628 13.846C96.1628 13.3327 96.2515 12.8473 96.4288 12.39C96.6062 11.9327 96.8582 11.5313 97.1848 11.186C97.5208 10.8313 97.9175 10.556 98.3748 10.36C98.8415 10.1547 99.3595 10.052 99.9288 10.052C100.498 10.052 101.012 10.1547 101.469 10.36C101.936 10.556 102.332 10.8313 102.659 11.186C102.995 11.5313 103.252 11.9327 103.429 12.39C103.606 12.8473 103.695 13.3327 103.695 13.846C103.695 14.3593 103.606 14.8447 103.429 15.302C103.252 15.75 102.995 16.1513 102.659 16.506C102.332 16.8607 101.936 17.1407 101.469 17.346C101.012 17.542 100.498 17.64 99.9288 17.64ZM97.7448 13.86C97.7448 14.3267 97.8428 14.7467 98.0388 15.12C98.2348 15.4933 98.4962 15.7873 98.8228 16.002C99.1495 16.2167 99.5182 16.324 99.9288 16.324C100.33 16.324 100.694 16.2167 101.021 16.002C101.357 15.778 101.623 15.4793 101.819 15.106C102.015 14.7233 102.113 14.3033 102.113 13.846C102.113 13.3793 102.015 12.9593 101.819 12.586C101.623 12.2127 101.357 11.9187 101.021 11.704C100.694 11.48 100.33 11.368 99.9288 11.368C99.5182 11.368 99.1495 11.48 98.8228 11.704C98.4962 11.928 98.2348 12.2267 98.0388 12.6C97.8428 12.964 97.7448 13.384 97.7448 13.86ZM111.627 17.5H110.087V13.398C110.087 12.7167 109.975 12.2173 109.751 11.9C109.536 11.5827 109.214 11.424 108.785 11.424C108.486 11.424 108.187 11.4987 107.889 11.648C107.599 11.7973 107.338 12.0027 107.105 12.264C106.871 12.516 106.703 12.81 106.601 13.146V17.5H105.061V10.178H106.461V11.648C106.647 11.3213 106.89 11.0413 107.189 10.808C107.497 10.5653 107.842 10.3787 108.225 10.248C108.607 10.1173 109.013 10.052 109.443 10.052C109.881 10.052 110.241 10.1313 110.521 10.29C110.81 10.4487 111.034 10.668 111.193 10.948C111.361 11.2187 111.473 11.536 111.529 11.9C111.594 12.2547 111.627 12.6327 111.627 13.034V17.5Z" fill="#1A1003" fill-opacity="0.5"/>
<path d="M58.99 25.06H60.474L64.338 35H62.686L61.636 32.298H57.8L56.764 35H55.098L58.99 25.06ZM61.328 31.136L59.732 26.782L58.08 31.136H61.328ZM65.1645 32.158V27.678H66.7045V31.85C66.7045 32.5033 66.8212 32.998 67.0545 33.334C67.2972 33.6607 67.6472 33.824 68.1045 33.824C68.3939 33.824 68.6739 33.7633 68.9445 33.642C69.2245 33.5207 69.4765 33.3433 69.7005 33.11C69.9339 32.8673 70.1205 32.578 70.2605 32.242V27.678H71.8005V33.264C71.8005 33.4413 71.8332 33.5673 71.8985 33.642C71.9639 33.7167 72.0712 33.7587 72.2205 33.768V35C72.0619 35.028 71.9312 35.0467 71.8285 35.056C71.7259 35.0653 71.6279 35.07 71.5345 35.07C71.2545 35.07 71.0212 34.9953 70.8345 34.846C70.6479 34.6873 70.5405 34.4867 70.5125 34.244L70.4845 33.516C70.1579 34.048 69.7332 34.454 69.2105 34.734C68.6879 35.0047 68.1139 35.14 67.4885 35.14C66.7232 35.14 66.1445 34.888 65.7525 34.384C65.3605 33.88 65.1645 33.138 65.1645 32.158ZM77.8818 29.008C77.2845 29.0173 76.7525 29.1527 76.2858 29.414C75.8285 29.6753 75.5018 30.044 75.3058 30.52V35H73.7658V27.678H75.1938V29.316C75.4458 28.812 75.7771 28.4107 76.1878 28.112C76.5985 27.804 77.0325 27.636 77.4898 27.608C77.5831 27.608 77.6578 27.608 77.7138 27.608C77.7791 27.608 77.8351 27.6127 77.8818 27.622V29.008ZM78.4565 32.858C78.4565 32.3913 78.5871 31.9853 78.8485 31.64C79.1191 31.2853 79.4878 31.0147 79.9545 30.828C80.4211 30.632 80.9625 30.534 81.5785 30.534C81.9051 30.534 82.2365 30.5573 82.5725 30.604C82.9178 30.6507 83.2211 30.7253 83.4825 30.828V30.366C83.4825 29.8527 83.3285 29.4513 83.0205 29.162C82.7125 28.8727 82.2691 28.728 81.6905 28.728C81.2798 28.728 80.8925 28.8027 80.5285 28.952C80.1645 29.092 79.7771 29.2927 79.3665 29.554L78.8485 28.518C79.3338 28.1913 79.8191 27.9487 80.3045 27.79C80.7991 27.6313 81.3171 27.552 81.8585 27.552C82.8385 27.552 83.6085 27.8133 84.1685 28.336C84.7378 28.8493 85.0225 29.582 85.0225 30.534V33.264C85.0225 33.4413 85.0505 33.5673 85.1065 33.642C85.1718 33.7167 85.2791 33.7587 85.4285 33.768V35C85.2885 35.028 85.1625 35.0467 85.0505 35.056C84.9385 35.0653 84.8451 35.07 84.7705 35.07C84.4438 35.07 84.1965 34.9907 84.0285 34.832C83.8605 34.6733 83.7625 34.4867 83.7345 34.272L83.6925 33.852C83.3751 34.2627 82.9691 34.58 82.4745 34.804C81.9798 35.028 81.4805 35.14 80.9765 35.14C80.4911 35.14 80.0571 35.042 79.6745 34.846C79.2918 34.6407 78.9931 34.3653 78.7785 34.02C78.5638 33.6747 78.4565 33.2873 78.4565 32.858ZM83.1185 33.306C83.2305 33.1847 83.3191 33.0633 83.3845 32.942C83.4498 32.8207 83.4825 32.7133 83.4825 32.62V31.78C83.2211 31.6773 82.9458 31.6027 82.6565 31.556C82.3671 31.5 82.0825 31.472 81.8025 31.472C81.2425 31.472 80.7851 31.584 80.4305 31.808C80.0851 32.032 79.9125 32.34 79.9125 32.732C79.9125 32.9467 79.9685 33.152 80.0805 33.348C80.2018 33.544 80.3698 33.7027 80.5845 33.824C80.8085 33.9453 81.0838 34.006 81.4105 34.006C81.7465 34.006 82.0685 33.9407 82.3765 33.81C82.6845 33.6793 82.9318 33.5113 83.1185 33.306ZM93.4568 35H91.9168V30.898C91.9168 30.2167 91.8048 29.7173 91.5808 29.4C91.3661 29.0827 91.0441 28.924 90.6148 28.924C90.3161 28.924 90.0175 28.9987 89.7188 29.148C89.4295 29.2973 89.1681 29.5027 88.9348 29.764C88.7015 30.016 88.5335 30.31 88.4308 30.646V35H86.8908V27.678H88.2908V29.148C88.4775 28.8213 88.7201 28.5413 89.0188 28.308C89.3268 28.0653 89.6721 27.8787 90.0548 27.748C90.4375 27.6173 90.8435 27.552 91.2728 27.552C91.7115 27.552 92.0708 27.6313 92.3508 27.79C92.6401 27.9487 92.8641 28.168 93.0228 28.448C93.1908 28.7187 93.3028 29.036 93.3588 29.4C93.4241 29.7547 93.4568 30.1327 93.4568 30.534V35ZM98.1423 35.07C97.6476 35.07 97.195 34.972 96.7843 34.776C96.3736 34.5707 96.019 34.2953 95.7203 33.95C95.431 33.6047 95.2023 33.208 95.0343 32.76C94.8756 32.312 94.7963 31.8407 94.7963 31.346C94.7963 30.8233 94.8803 30.3333 95.0483 29.876C95.2163 29.4187 95.4496 29.0173 95.7483 28.672C96.0563 28.3173 96.4156 28.042 96.8263 27.846C97.237 27.65 97.6943 27.552 98.1983 27.552C98.7863 27.552 99.2996 27.692 99.7383 27.972C100.186 28.252 100.555 28.616 100.844 29.064V27.678H102.202V34.79C102.202 35.4993 102.03 36.1013 101.684 36.596C101.348 37.0907 100.886 37.4687 100.298 37.73C99.7103 37.9913 99.0476 38.122 98.3103 38.122C97.4983 38.122 96.8263 37.982 96.2943 37.702C95.7623 37.422 95.3096 37.0393 94.9363 36.554L95.8043 35.742C96.0843 36.134 96.4436 36.4327 96.8823 36.638C97.3303 36.8433 97.8063 36.946 98.3103 36.946C98.7303 36.946 99.1176 36.8667 99.4723 36.708C99.8363 36.5587 100.126 36.3207 100.34 35.994C100.555 35.6767 100.662 35.2753 100.662 34.79V33.67C100.401 34.1087 100.042 34.454 99.5843 34.706C99.127 34.9487 98.6463 35.07 98.1423 35.07ZM98.6463 33.824C98.8796 33.824 99.1036 33.7867 99.3183 33.712C99.533 33.628 99.729 33.5207 99.9063 33.39C100.093 33.25 100.252 33.096 100.382 32.928C100.513 32.7507 100.606 32.564 100.662 32.368V30.45C100.541 30.1327 100.368 29.8573 100.144 29.624C99.9203 29.3813 99.6683 29.1947 99.3883 29.064C99.1083 28.9333 98.8236 28.868 98.5343 28.868C98.1983 28.868 97.895 28.9427 97.6243 29.092C97.363 29.232 97.139 29.4233 96.9523 29.666C96.7656 29.8993 96.621 30.1653 96.5183 30.464C96.4156 30.7627 96.3643 31.0707 96.3643 31.388C96.3643 31.724 96.4203 32.0367 96.5323 32.326C96.6536 32.6153 96.817 32.8767 97.0223 33.11C97.2276 33.334 97.4703 33.5113 97.7503 33.642C98.0303 33.7633 98.329 33.824 98.6463 33.824ZM103.517 32.858C103.517 32.3913 103.648 31.9853 103.909 31.64C104.18 31.2853 104.548 31.0147 105.015 30.828C105.482 30.632 106.023 30.534 106.639 30.534C106.966 30.534 107.297 30.5573 107.633 30.604C107.978 30.6507 108.282 30.7253 108.543 30.828V30.366C108.543 29.8527 108.389 29.4513 108.081 29.162C107.773 28.8727 107.33 28.728 106.751 28.728C106.34 28.728 105.953 28.8027 105.589 28.952C105.225 29.092 104.838 29.2927 104.427 29.554L103.909 28.518C104.394 28.1913 104.88 27.9487 105.365 27.79C105.86 27.6313 106.378 27.552 106.919 27.552C107.899 27.552 108.669 27.8133 109.229 28.336C109.798 28.8493 110.083 29.582 110.083 30.534V33.264C110.083 33.4413 110.111 33.5673 110.167 33.642C110.232 33.7167 110.34 33.7587 110.489 33.768V35C110.349 35.028 110.223 35.0467 110.111 35.056C109.999 35.0653 109.906 35.07 109.831 35.07C109.504 35.07 109.257 34.9907 109.089 34.832C108.921 34.6733 108.823 34.4867 108.795 34.272L108.753 33.852C108.436 34.2627 108.03 34.58 107.535 34.804C107.04 35.028 106.541 35.14 106.037 35.14C105.552 35.14 105.118 35.042 104.735 34.846C104.352 34.6407 104.054 34.3653 103.839 34.02C103.624 33.6747 103.517 33.2873 103.517 32.858ZM108.179 33.306C108.291 33.1847 108.38 33.0633 108.445 32.942C108.51 32.8207 108.543 32.7133 108.543 32.62V31.78C108.282 31.6773 108.006 31.6027 107.717 31.556C107.428 31.5 107.143 31.472 106.863 31.472C106.303 31.472 105.846 31.584 105.491 31.808C105.146 32.032 104.973 32.34 104.973 32.732C104.973 32.9467 105.029 33.152 105.141 33.348C105.262 33.544 105.43 33.7027 105.645 33.824C105.869 33.9453 106.144 34.006 106.471 34.006C106.807 34.006 107.129 33.9407 107.437 33.81C107.745 33.6793 107.992 33.5113 108.179 33.306ZM115.899 35.14C115.339 35.14 114.831 35.0093 114.373 34.748C113.925 34.4773 113.571 34.118 113.309 33.67V35H111.951V24.78H113.491V29.064C113.781 28.5973 114.14 28.2287 114.569 27.958C115.008 27.6873 115.521 27.552 116.109 27.552C116.595 27.552 117.038 27.6547 117.439 27.86C117.841 28.0653 118.181 28.3453 118.461 28.7C118.751 29.0547 118.97 29.4607 119.119 29.918C119.278 30.3753 119.357 30.8607 119.357 31.374C119.357 31.8873 119.269 32.3727 119.091 32.83C118.923 33.2873 118.681 33.6887 118.363 34.034C118.046 34.3793 117.677 34.65 117.257 34.846C116.847 35.042 116.394 35.14 115.899 35.14ZM115.493 33.824C115.829 33.824 116.137 33.7587 116.417 33.628C116.697 33.488 116.94 33.306 117.145 33.082C117.351 32.858 117.505 32.5967 117.607 32.298C117.719 31.9993 117.775 31.6913 117.775 31.374C117.775 30.9353 117.682 30.5247 117.495 30.142C117.318 29.7593 117.066 29.4513 116.739 29.218C116.413 28.9847 116.035 28.868 115.605 28.868C115.297 28.868 115.008 28.9427 114.737 29.092C114.467 29.232 114.224 29.4233 114.009 29.666C113.804 29.8993 113.631 30.1607 113.491 30.45V32.382C113.547 32.5967 113.645 32.7927 113.785 32.97C113.925 33.138 114.089 33.2873 114.275 33.418C114.462 33.5393 114.663 33.6373 114.877 33.712C115.092 33.7867 115.297 33.824 115.493 33.824ZM120.21 32.858C120.21 32.3913 120.341 31.9853 120.602 31.64C120.873 31.2853 121.242 31.0147 121.708 30.828C122.175 30.632 122.716 30.534 123.332 30.534C123.659 30.534 123.99 30.5573 124.326 30.604C124.672 30.6507 124.975 30.7253 125.236 30.828V30.366C125.236 29.8527 125.082 29.4513 124.774 29.162C124.466 28.8727 124.023 28.728 123.444 28.728C123.034 28.728 122.646 28.8027 122.282 28.952C121.918 29.092 121.531 29.2927 121.12 29.554L120.602 28.518C121.088 28.1913 121.573 27.9487 122.058 27.79C122.553 27.6313 123.071 27.552 123.612 27.552C124.592 27.552 125.362 27.8133 125.922 28.336C126.492 28.8493 126.776 29.582 126.776 30.534V33.264C126.776 33.4413 126.804 33.5673 126.86 33.642C126.926 33.7167 127.033 33.7587 127.182 33.768V35C127.042 35.028 126.916 35.0467 126.804 35.056C126.692 35.0653 126.599 35.07 126.524 35.07C126.198 35.07 125.95 34.9907 125.782 34.832C125.614 34.6733 125.516 34.4867 125.488 34.272L125.446 33.852C125.129 34.2627 124.723 34.58 124.228 34.804C123.734 35.028 123.234 35.14 122.73 35.14C122.245 35.14 121.811 35.042 121.428 34.846C121.046 34.6407 120.747 34.3653 120.532 34.02C120.318 33.6747 120.21 33.2873 120.21 32.858ZM124.872 33.306C124.984 33.1847 125.073 33.0633 125.138 32.942C125.204 32.8207 125.236 32.7133 125.236 32.62V31.78C124.975 31.6773 124.7 31.6027 124.41 31.556C124.121 31.5 123.836 31.472 123.556 31.472C122.996 31.472 122.539 31.584 122.184 31.808C121.839 32.032 121.666 32.34 121.666 32.732C121.666 32.9467 121.722 33.152 121.834 33.348C121.956 33.544 122.124 33.7027 122.338 33.824C122.562 33.9453 122.838 34.006 123.164 34.006C123.5 34.006 123.822 33.9407 124.13 33.81C124.438 33.6793 124.686 33.5113 124.872 33.306ZM128.183 31.346C128.183 30.646 128.323 30.0113 128.603 29.442C128.892 28.8633 129.284 28.406 129.779 28.07C130.273 27.7247 130.843 27.552 131.487 27.552C132.047 27.552 132.551 27.6967 132.999 27.986C133.456 28.2753 133.811 28.6347 134.063 29.064V24.78H135.603V33.264C135.603 33.4413 135.635 33.5673 135.701 33.642C135.766 33.7167 135.873 33.7587 136.023 33.768V35C135.733 35.0467 135.509 35.07 135.351 35.07C135.061 35.07 134.814 34.986 134.609 34.818C134.413 34.65 134.31 34.4493 134.301 34.216L134.287 33.67C134.007 34.1367 133.629 34.5007 133.153 34.762C132.677 35.014 132.182 35.14 131.669 35.14C131.165 35.14 130.698 35.042 130.269 34.846C129.849 34.65 129.48 34.3747 129.163 34.02C128.855 33.6653 128.612 33.2593 128.435 32.802C128.267 32.3447 128.183 31.8593 128.183 31.346ZM134.063 32.368V30.45C133.96 30.1513 133.792 29.8853 133.559 29.652C133.335 29.4093 133.078 29.218 132.789 29.078C132.509 28.938 132.229 28.868 131.949 28.868C131.622 28.868 131.323 28.938 131.053 29.078C130.791 29.218 130.563 29.4047 130.367 29.638C130.18 29.8713 130.035 30.1373 129.933 30.436C129.83 30.7347 129.779 31.0473 129.779 31.374C129.779 31.71 129.835 32.0273 129.947 32.326C130.059 32.6153 130.217 32.8767 130.423 33.11C130.637 33.334 130.88 33.5113 131.151 33.642C131.431 33.7633 131.734 33.824 132.061 33.824C132.266 33.824 132.471 33.7867 132.677 33.712C132.891 33.6373 133.092 33.5347 133.279 33.404C133.475 33.2733 133.638 33.1193 133.769 32.942C133.909 32.7647 134.007 32.5733 134.063 32.368ZM137.657 36.358L137.993 34.916H137.489V33.208H138.875V34.916L138.385 36.358H137.657ZM152.662 35V27.916L149.736 33.292H148.812L145.872 27.916V35H144.304V25.06H145.984L149.274 31.136L152.564 25.06H154.244V35H152.662ZM155.675 32.858C155.675 32.3913 155.806 31.9853 156.067 31.64C156.338 31.2853 156.707 31.0147 157.173 30.828C157.64 30.632 158.181 30.534 158.797 30.534C159.124 30.534 159.455 30.5573 159.791 30.604C160.137 30.6507 160.44 30.7253 160.701 30.828V30.366C160.701 29.8527 160.547 29.4513 160.239 29.162C159.931 28.8727 159.488 28.728 158.909 28.728C158.499 28.728 158.111 28.8027 157.747 28.952C157.383 29.092 156.996 29.2927 156.585 29.554L156.067 28.518C156.553 28.1913 157.038 27.9487 157.523 27.79C158.018 27.6313 158.536 27.552 159.077 27.552C160.057 27.552 160.827 27.8133 161.387 28.336C161.957 28.8493 162.241 29.582 162.241 30.534V33.264C162.241 33.4413 162.269 33.5673 162.325 33.642C162.391 33.7167 162.498 33.7587 162.647 33.768V35C162.507 35.028 162.381 35.0467 162.269 35.056C162.157 35.0653 162.064 35.07 161.989 35.07C161.663 35.07 161.415 34.9907 161.247 34.832C161.079 34.6733 160.981 34.4867 160.953 34.272L160.911 33.852C160.594 34.2627 160.188 34.58 159.693 34.804C159.199 35.028 158.699 35.14 158.195 35.14C157.71 35.14 157.276 35.042 156.893 34.846C156.511 34.6407 156.212 34.3653 155.997 34.02C155.783 33.6747 155.675 33.2873 155.675 32.858ZM160.337 33.306C160.449 33.1847 160.538 33.0633 160.603 32.942C160.669 32.8207 160.701 32.7133 160.701 32.62V31.78C160.44 31.6773 160.165 31.6027 159.875 31.556C159.586 31.5 159.301 31.472 159.021 31.472C158.461 31.472 158.004 31.584 157.649 31.808C157.304 32.032 157.131 32.34 157.131 32.732C157.131 32.9467 157.187 33.152 157.299 33.348C157.421 33.544 157.589 33.7027 157.803 33.824C158.027 33.9453 158.303 34.006 158.629 34.006C158.965 34.006 159.287 33.9407 159.595 33.81C159.903 33.6793 160.151 33.5113 160.337 33.306ZM170.676 35H169.136V30.898C169.136 30.2353 169.014 29.7407 168.772 29.414C168.529 29.0873 168.188 28.924 167.75 28.924C167.479 28.924 167.199 28.9987 166.91 29.148C166.62 29.2973 166.364 29.5027 166.14 29.764C165.916 30.016 165.752 30.31 165.65 30.646V35H164.11V24.78H165.65V29.148C165.93 28.6533 166.312 28.266 166.798 27.986C167.283 27.6967 167.806 27.552 168.366 27.552C168.823 27.552 169.201 27.6313 169.5 27.79C169.798 27.9487 170.032 28.168 170.2 28.448C170.377 28.7187 170.498 29.036 170.564 29.4C170.638 29.7547 170.676 30.1327 170.676 30.534V35ZM171.931 32.858C171.931 32.3913 172.062 31.9853 172.323 31.64C172.594 31.2853 172.962 31.0147 173.429 30.828C173.896 30.632 174.437 30.534 175.053 30.534C175.38 30.534 175.711 30.5573 176.047 30.604C176.392 30.6507 176.696 30.7253 176.957 30.828V30.366C176.957 29.8527 176.803 29.4513 176.495 29.162C176.187 28.8727 175.744 28.728 175.165 28.728C174.754 28.728 174.367 28.8027 174.003 28.952C173.639 29.092 173.252 29.2927 172.841 29.554L172.323 28.518C172.808 28.1913 173.294 27.9487 173.779 27.79C174.274 27.6313 174.792 27.552 175.333 27.552C176.313 27.552 177.083 27.8133 177.643 28.336C178.212 28.8493 178.497 29.582 178.497 30.534V33.264C178.497 33.4413 178.525 33.5673 178.581 33.642C178.646 33.7167 178.754 33.7587 178.903 33.768V35C178.763 35.028 178.637 35.0467 178.525 35.056C178.413 35.0653 178.32 35.07 178.245 35.07C177.918 35.07 177.671 34.9907 177.503 34.832C177.335 34.6733 177.237 34.4867 177.209 34.272L177.167 33.852C176.85 34.2627 176.444 34.58 175.949 34.804C175.454 35.028 174.955 35.14 174.451 35.14C173.966 35.14 173.532 35.042 173.149 34.846C172.766 34.6407 172.468 34.3653 172.253 34.02C172.038 33.6747 171.931 33.2873 171.931 32.858ZM176.593 33.306C176.705 33.1847 176.794 33.0633 176.859 32.942C176.924 32.8207 176.957 32.7133 176.957 32.62V31.78C176.696 31.6773 176.42 31.6027 176.131 31.556C175.842 31.5 175.557 31.472 175.277 31.472C174.717 31.472 174.26 31.584 173.905 31.808C173.56 32.032 173.387 32.34 173.387 32.732C173.387 32.9467 173.443 33.152 173.555 33.348C173.676 33.544 173.844 33.7027 174.059 33.824C174.283 33.9453 174.558 34.006 174.885 34.006C175.221 34.006 175.543 33.9407 175.851 33.81C176.159 33.6793 176.406 33.5113 176.593 33.306ZM184.481 29.008C183.884 29.0173 183.352 29.1527 182.885 29.414C182.428 29.6753 182.101 30.044 181.905 30.52V35H180.365V27.678H181.793V29.316C182.045 28.812 182.377 28.4107 182.787 28.112C183.198 27.804 183.632 27.636 184.089 27.608C184.183 27.608 184.257 27.608 184.313 27.608C184.379 27.608 184.435 27.6127 184.481 27.622V29.008ZM185.056 32.858C185.056 32.3913 185.187 31.9853 185.448 31.64C185.719 31.2853 186.087 31.0147 186.554 30.828C187.021 30.632 187.562 30.534 188.178 30.534C188.505 30.534 188.836 30.5573 189.172 30.604C189.517 30.6507 189.821 30.7253 190.082 30.828V30.366C190.082 29.8527 189.928 29.4513 189.62 29.162C189.312 28.8727 188.869 28.728 188.29 28.728C187.879 28.728 187.492 28.8027 187.128 28.952C186.764 29.092 186.377 29.2927 185.966 29.554L185.448 28.518C185.933 28.1913 186.419 27.9487 186.904 27.79C187.399 27.6313 187.917 27.552 188.458 27.552C189.438 27.552 190.208 27.8133 190.768 28.336C191.337 28.8493 191.622 29.582 191.622 30.534V33.264C191.622 33.4413 191.65 33.5673 191.706 33.642C191.771 33.7167 191.879 33.7587 192.028 33.768V35C191.888 35.028 191.762 35.0467 191.65 35.056C191.538 35.0653 191.445 35.07 191.37 35.07C191.043 35.07 190.796 34.9907 190.628 34.832C190.46 34.6733 190.362 34.4867 190.334 34.272L190.292 33.852C189.975 34.2627 189.569 34.58 189.074 34.804C188.579 35.028 188.08 35.14 187.576 35.14C187.091 35.14 186.657 35.042 186.274 34.846C185.891 34.6407 185.593 34.3653 185.378 34.02C185.163 33.6747 185.056 33.2873 185.056 32.858ZM189.718 33.306C189.83 33.1847 189.919 33.0633 189.984 32.942C190.049 32.8207 190.082 32.7133 190.082 32.62V31.78C189.821 31.6773 189.545 31.6027 189.256 31.556C188.967 31.5 188.682 31.472 188.402 31.472C187.842 31.472 187.385 31.584 187.03 31.808C186.685 32.032 186.512 32.34 186.512 32.732C186.512 32.9467 186.568 33.152 186.68 33.348C186.801 33.544 186.969 33.7027 187.184 33.824C187.408 33.9453 187.683 34.006 188.01 34.006C188.346 34.006 188.668 33.9407 188.976 33.81C189.284 33.6793 189.531 33.5113 189.718 33.306ZM196.094 35.14C195.478 35.14 194.895 35.042 194.344 34.846C193.794 34.6407 193.322 34.3373 192.93 33.936L193.504 32.9C193.924 33.2733 194.344 33.544 194.764 33.712C195.194 33.88 195.618 33.964 196.038 33.964C196.468 33.964 196.818 33.8847 197.088 33.726C197.359 33.558 197.494 33.3153 197.494 32.998C197.494 32.7647 197.424 32.592 197.284 32.48C197.144 32.368 196.939 32.27 196.668 32.186C196.407 32.102 196.09 32.0087 195.716 31.906C195.194 31.7473 194.755 31.584 194.4 31.416C194.046 31.2387 193.78 31.024 193.602 30.772C193.425 30.52 193.336 30.198 193.336 29.806C193.336 29.33 193.458 28.924 193.7 28.588C193.943 28.252 194.279 27.9953 194.708 27.818C195.147 27.6407 195.651 27.552 196.22 27.552C196.752 27.552 197.242 27.636 197.69 27.804C198.148 27.9627 198.549 28.2147 198.894 28.56L198.236 29.582C197.91 29.2833 197.574 29.064 197.228 28.924C196.892 28.784 196.528 28.714 196.136 28.714C195.912 28.714 195.698 28.742 195.492 28.798C195.287 28.8447 195.114 28.938 194.974 29.078C194.844 29.2087 194.778 29.3953 194.778 29.638C194.778 29.834 194.834 29.9927 194.946 30.114C195.058 30.2353 195.226 30.338 195.45 30.422C195.674 30.506 195.95 30.5993 196.276 30.702C196.846 30.87 197.331 31.038 197.732 31.206C198.134 31.3647 198.442 31.5747 198.656 31.836C198.88 32.088 198.992 32.438 198.992 32.886C198.992 33.5953 198.726 34.1507 198.194 34.552C197.672 34.944 196.972 35.14 196.094 35.14ZM206.933 35H205.393V30.898C205.393 30.2353 205.272 29.7407 205.029 29.414C204.787 29.0873 204.446 28.924 204.007 28.924C203.737 28.924 203.457 28.9987 203.167 29.148C202.878 29.2973 202.621 29.5027 202.397 29.764C202.173 30.016 202.01 30.31 201.907 30.646V35H200.367V24.78H201.907V29.148C202.187 28.6533 202.57 28.266 203.055 27.986C203.541 27.6967 204.063 27.552 204.623 27.552C205.081 27.552 205.459 27.6313 205.757 27.79C206.056 27.9487 206.289 28.168 206.457 28.448C206.635 28.7187 206.756 29.036 206.821 29.4C206.896 29.7547 206.933 30.1327 206.933 30.534V35ZM212.74 34.622C212.61 34.6873 212.446 34.7573 212.25 34.832C212.054 34.9067 211.83 34.972 211.578 35.028C211.336 35.084 211.084 35.112 210.822 35.112C210.505 35.112 210.211 35.056 209.94 34.944C209.67 34.832 209.45 34.6547 209.282 34.412C209.124 34.16 209.044 33.838 209.044 33.446V28.868H208.078V27.678H209.044V25.27H210.584V27.678H212.18V28.868H210.584V32.956C210.603 33.208 210.682 33.3947 210.822 33.516C210.972 33.6373 211.154 33.698 211.368 33.698C211.583 33.698 211.788 33.6607 211.984 33.586C212.18 33.5113 212.325 33.4507 212.418 33.404L212.74 34.622ZM217.923 29.008C217.325 29.0173 216.793 29.1527 216.327 29.414C215.869 29.6753 215.543 30.044 215.347 30.52V35H213.807V27.678H215.235V29.316C215.487 28.812 215.818 28.4107 216.229 28.112C216.639 27.804 217.073 27.636 217.531 27.608C217.624 27.608 217.699 27.608 217.755 27.608C217.82 27.608 217.876 27.6127 217.923 27.622V29.008ZM218.497 32.858C218.497 32.3913 218.628 31.9853 218.889 31.64C219.16 31.2853 219.529 31.0147 219.995 30.828C220.462 30.632 221.003 30.534 221.619 30.534C221.946 30.534 222.277 30.5573 222.613 30.604C222.959 30.6507 223.262 30.7253 223.523 30.828V30.366C223.523 29.8527 223.369 29.4513 223.061 29.162C222.753 28.8727 222.31 28.728 221.731 28.728C221.321 28.728 220.933 28.8027 220.569 28.952C220.205 29.092 219.818 29.2927 219.407 29.554L218.889 28.518C219.375 28.1913 219.86 27.9487 220.345 27.79C220.84 27.6313 221.358 27.552 221.899 27.552C222.879 27.552 223.649 27.8133 224.209 28.336C224.779 28.8493 225.063 29.582 225.063 30.534V33.264C225.063 33.4413 225.091 33.5673 225.147 33.642C225.213 33.7167 225.32 33.7587 225.469 33.768V35C225.329 35.028 225.203 35.0467 225.091 35.056C224.979 35.0653 224.886 35.07 224.811 35.07C224.485 35.07 224.237 34.9907 224.069 34.832C223.901 34.6733 223.803 34.4867 223.775 34.272L223.733 33.852C223.416 34.2627 223.01 34.58 222.515 34.804C222.021 35.028 221.521 35.14 221.017 35.14C220.532 35.14 220.098 35.042 219.715 34.846C219.333 34.6407 219.034 34.3653 218.819 34.02C218.605 33.6747 218.497 33.2873 218.497 32.858ZM223.159 33.306C223.271 33.1847 223.36 33.0633 223.425 32.942C223.491 32.8207 223.523 32.7133 223.523 32.62V31.78C223.262 31.6773 222.987 31.6027 222.697 31.556C222.408 31.5 222.123 31.472 221.843 31.472C221.283 31.472 220.826 31.584 220.471 31.808C220.126 32.032 219.953 32.34 219.953 32.732C219.953 32.9467 220.009 33.152 220.121 33.348C220.243 33.544 220.411 33.7027 220.625 33.824C220.849 33.9453 221.125 34.006 221.451 34.006C221.787 34.006 222.109 33.9407 222.417 33.81C222.725 33.6793 222.973 33.5113 223.159 33.306Z" fill="black"/>
</svg>
