<svg width="333" height="150" viewBox="0 0 333 150" fill="none" xmlns="http://www.w3.org/2000/svg">
<rect width="333" height="150" rx="20" fill="#FFEED9"/>
<path d="M48 42C47.9995 39.348 46.9457 36.8048 45.0705 34.9295C43.1952 33.0543 40.652 32.0005 38 32V34C39.5821 34.0004 41.1286 34.4696 42.4441 35.3485C43.7596 36.2274 44.7851 37.4765 45.391 38.938C45.7931 39.9088 46.0001 40.9492 46 42H48ZM28 40V35C28 34.7348 28.1054 34.4804 28.2929 34.2929C28.4804 34.1054 28.7348 34 29 34H34C34.2652 34 34.5196 34.1054 34.7071 34.2929C34.8946 34.4804 35 34.7348 35 35V39C35 39.2652 34.8946 39.5196 34.7071 39.7071C34.5196 39.8946 34.2652 40 34 40H32C32 42.1217 32.8429 44.1566 34.3431 45.6569C35.8434 47.1571 37.8783 48 40 48V46C40 45.7348 40.1054 45.4804 40.2929 45.2929C40.4804 45.1054 40.7348 45 41 45H45C45.2652 45 45.5196 45.1054 45.7071 45.2929C45.8946 45.4804 46 45.7348 46 46V51C46 51.2652 45.8946 51.5196 45.7071 51.7071C45.5196 51.8946 45.2652 52 45 52H40C33.373 52 28 46.627 28 40Z" fill="url(#paint0_linear_125_592)"/>
<path d="M43.543 39.704C43.8449 40.4318 44.0002 41.2121 44 42H42.2C42.2001 41.4484 42.0916 40.9022 41.8806 40.3926C41.6695 39.8829 41.3602 39.4199 40.9701 39.0299C40.5801 38.6398 40.1171 38.3305 39.6074 38.1194C39.0978 37.9084 38.5516 37.7999 38 37.8V36C39.1867 36.0001 40.3466 36.352 41.3333 37.0113C42.3199 37.6706 43.0889 38.6077 43.543 39.704Z" fill="url(#paint1_linear_125_592)"/>
<path d="M68.976 41.192C68.976 41.7573 68.8427 42.2907 68.576 42.792C68.3093 43.2933 67.8827 43.704 67.296 44.024C66.7093 44.3333 65.9573 44.488 65.04 44.488H63.024V49H61.2V37.88H65.04C65.8933 37.88 66.6133 38.0293 67.2 38.328C67.7973 38.616 68.24 39.0107 68.528 39.512C68.8267 40.0133 68.976 40.5733 68.976 41.192ZM65.04 43C65.7333 43 66.2507 42.8453 66.592 42.536C66.9333 42.216 67.104 41.768 67.104 41.192C67.104 39.976 66.416 39.368 65.04 39.368H63.024V43H65.04ZM75.6756 40.04C76.3476 40.04 76.945 40.184 77.4676 40.472C78.001 40.76 78.417 41.1867 78.7156 41.752C79.025 42.3173 79.1796 43 79.1796 43.8V49H77.3716V44.072C77.3716 43.2827 77.1743 42.68 76.7796 42.264C76.385 41.8373 75.8463 41.624 75.1636 41.624C74.481 41.624 73.937 41.8373 73.5316 42.264C73.137 42.68 72.9396 43.2827 72.9396 44.072V49H71.1156V37.16H72.9396V41.208C73.249 40.8347 73.6383 40.5467 74.1076 40.344C74.5876 40.1413 75.1103 40.04 75.6756 40.04ZM85.7302 49.144C84.8982 49.144 84.1462 48.9573 83.4742 48.584C82.8022 48.2 82.2742 47.6667 81.8902 46.984C81.5062 46.2907 81.3142 45.4907 81.3142 44.584C81.3142 43.688 81.5116 42.8933 81.9062 42.2C82.3009 41.5067 82.8396 40.9733 83.5222 40.6C84.2049 40.2267 84.9676 40.04 85.8102 40.04C86.6529 40.04 87.4156 40.2267 88.0982 40.6C88.7809 40.9733 89.3196 41.5067 89.7142 42.2C90.1089 42.8933 90.3062 43.688 90.3062 44.584C90.3062 45.48 90.1036 46.2747 89.6982 46.968C89.2929 47.6613 88.7382 48.2 88.0342 48.584C87.3409 48.9573 86.5729 49.144 85.7302 49.144ZM85.7302 47.56C86.1996 47.56 86.6369 47.448 87.0422 47.224C87.4582 47 87.7942 46.664 88.0502 46.216C88.3062 45.768 88.4342 45.224 88.4342 44.584C88.4342 43.944 88.3116 43.4053 88.0662 42.968C87.8209 42.52 87.4956 42.184 87.0902 41.96C86.6849 41.736 86.2476 41.624 85.7782 41.624C85.3089 41.624 84.8716 41.736 84.4662 41.96C84.0716 42.184 83.7569 42.52 83.5222 42.968C83.2876 43.4053 83.1702 43.944 83.1702 44.584C83.1702 45.5333 83.4102 46.2693 83.8902 46.792C84.3809 47.304 84.9942 47.56 85.7302 47.56ZM96.9574 40.04C97.6507 40.04 98.2694 40.184 98.8134 40.472C99.368 40.76 99.8 41.1867 100.109 41.752C100.419 42.3173 100.573 43 100.573 43.8V49H98.7654V44.072C98.7654 43.2827 98.568 42.68 98.1734 42.264C97.7787 41.8373 97.24 41.624 96.5574 41.624C95.8747 41.624 95.3307 41.8373 94.9254 42.264C94.5307 42.68 94.3334 43.2827 94.3334 44.072V49H92.5094V40.184H94.3334V41.192C94.632 40.8293 95.0107 40.5467 95.4694 40.344C95.9387 40.1413 96.4347 40.04 96.9574 40.04ZM111.38 44.376C111.38 44.7067 111.359 45.0053 111.316 45.272H104.58C104.633 45.976 104.895 46.5413 105.364 46.968C105.833 47.3947 106.409 47.608 107.092 47.608C108.073 47.608 108.767 47.1973 109.172 46.376H111.14C110.873 47.1867 110.388 47.8533 109.684 48.376C108.991 48.888 108.127 49.144 107.092 49.144C106.249 49.144 105.492 48.9573 104.82 48.584C104.159 48.2 103.636 47.6667 103.252 46.984C102.879 46.2907 102.692 45.4907 102.692 44.584C102.692 43.6773 102.873 42.8827 103.236 42.2C103.609 41.5067 104.127 40.9733 104.788 40.6C105.46 40.2267 106.228 40.04 107.092 40.04C107.924 40.04 108.665 40.2213 109.316 40.584C109.967 40.9467 110.473 41.4587 110.836 42.12C111.199 42.7707 111.38 43.5227 111.38 44.376ZM109.476 43.8C109.465 43.128 109.225 42.5893 108.756 42.184C108.287 41.7787 107.705 41.576 107.012 41.576C106.383 41.576 105.844 41.7787 105.396 42.184C104.948 42.5787 104.681 43.1173 104.596 43.8H109.476ZM114.795 49.14C114.382 49.14 114.035 49 113.755 48.72C113.475 48.44 113.335 48.0933 113.335 47.68C113.335 47.2667 113.475 46.92 113.755 46.64C114.035 46.36 114.382 46.22 114.795 46.22C115.195 46.22 115.535 46.36 115.815 46.64C116.095 46.92 116.235 47.2667 116.235 47.68C116.235 48.0933 116.095 48.44 115.815 48.72C115.535 49 115.195 49.14 114.795 49.14ZM114.795 40.74C114.382 40.74 114.035 40.6 113.755 40.32C113.475 40.04 113.335 39.6933 113.335 39.28C113.335 38.8667 113.475 38.52 113.755 38.24C114.035 37.96 114.382 37.82 114.795 37.82C115.195 37.82 115.535 37.96 115.815 38.24C116.095 38.52 116.235 38.8667 116.235 39.28C116.235 39.6933 116.095 40.04 115.815 40.32C115.535 40.6 115.195 40.74 114.795 40.74Z" fill="black"/>
<path d="M68.568 75.618H65.74V78.516H64.256V75.618H61.428V74.274H64.256V71.376H65.74V74.274H68.568V75.618ZM73.1721 77.228C73.2655 77.6947 73.4661 78.0493 73.7741 78.292C74.0821 78.5347 74.4975 78.656 75.0201 78.656C75.6828 78.656 76.1681 78.3947 76.4761 77.872C76.7841 77.3493 76.9381 76.458 76.9381 75.198C76.7141 75.5153 76.3968 75.7627 75.9861 75.94C75.5848 76.108 75.1461 76.192 74.6701 76.192C74.0635 76.192 73.5128 76.0707 73.0181 75.828C72.5235 75.576 72.1315 75.2073 71.8421 74.722C71.5621 74.2273 71.4221 73.63 71.4221 72.93C71.4221 71.9033 71.7208 71.0867 72.3181 70.48C72.9248 69.864 73.7555 69.556 74.8101 69.556C76.0795 69.556 76.9801 69.9807 77.5121 70.83C78.0535 71.67 78.3241 72.9627 78.3241 74.708C78.3241 75.912 78.2215 76.8967 78.0161 77.662C77.8201 78.4273 77.4748 79.006 76.9801 79.398C76.4855 79.79 75.7995 79.986 74.9221 79.986C73.9235 79.986 73.1535 79.7247 72.6121 79.202C72.0708 78.6793 71.7675 78.0213 71.7021 77.228H73.1721ZM74.9501 74.848C75.5101 74.848 75.9488 74.6753 76.2661 74.33C76.5928 73.9753 76.7561 73.5087 76.7561 72.93C76.7561 72.286 76.5835 71.7867 76.2381 71.432C75.9021 71.068 75.4401 70.886 74.8521 70.886C74.2641 70.886 73.7975 71.0727 73.4521 71.446C73.1161 71.81 72.9481 72.2907 72.9481 72.888C72.9481 73.4573 73.1115 73.9287 73.4381 74.302C73.7741 74.666 74.2781 74.848 74.9501 74.848ZM80.2109 71.25V69.794H83.1229V80H81.5129V71.25H80.2109ZM91.3741 74.666C90.4034 74.1807 89.9181 73.4153 89.9181 72.37C89.9181 71.866 90.0441 71.404 90.2961 70.984C90.5481 70.564 90.9261 70.2327 91.4301 69.99C91.9341 69.738 92.5501 69.612 93.2781 69.612C93.9968 69.612 94.6081 69.738 95.1121 69.99C95.6254 70.2327 96.0081 70.564 96.2601 70.984C96.5121 71.404 96.6381 71.866 96.6381 72.37C96.6381 72.8927 96.5028 73.3547 96.2321 73.756C95.9708 74.148 95.6208 74.4513 95.1821 74.666C95.7141 74.862 96.1341 75.184 96.4421 75.632C96.7501 76.0707 96.9041 76.5887 96.9041 77.186C96.9041 77.7927 96.7501 78.3293 96.4421 78.796C96.1341 79.2627 95.7048 79.622 95.1541 79.874C94.6034 80.126 93.9781 80.252 93.2781 80.252C92.5781 80.252 91.9528 80.126 91.4021 79.874C90.8608 79.622 90.4361 79.2627 90.1281 78.796C89.8201 78.3293 89.6661 77.7927 89.6661 77.186C89.6661 76.5793 89.8201 76.0567 90.1281 75.618C90.4361 75.1793 90.8514 74.862 91.3741 74.666ZM95.1121 72.566C95.1121 72.0433 94.9488 71.642 94.6221 71.362C94.2954 71.082 93.8474 70.942 93.2781 70.942C92.7181 70.942 92.2748 71.082 91.9481 71.362C91.6214 71.642 91.4581 72.048 91.4581 72.58C91.4581 73.0467 91.6261 73.4293 91.9621 73.728C92.3074 74.0173 92.7461 74.162 93.2781 74.162C93.8101 74.162 94.2488 74.0127 94.5941 73.714C94.9394 73.4153 95.1121 73.0327 95.1121 72.566ZM93.2781 75.366C92.6621 75.366 92.1581 75.52 91.7661 75.828C91.3834 76.1267 91.1921 76.5607 91.1921 77.13C91.1921 77.662 91.3788 78.096 91.7521 78.432C92.1254 78.7587 92.6341 78.922 93.2781 78.922C93.9128 78.922 94.4121 78.754 94.7761 78.418C95.1494 78.082 95.3361 77.6527 95.3361 77.13C95.3361 76.57 95.1448 76.136 94.7621 75.828C94.3888 75.52 93.8941 75.366 93.2781 75.366ZM98.7338 77.872V76.668L103.438 69.92H105.37V76.486H106.672V77.872H105.37V80H103.802V77.872H98.7338ZM103.872 71.544L100.568 76.486H103.872V71.544ZM109.226 77.83C110.122 77.0553 110.827 76.4207 111.34 75.926C111.863 75.422 112.297 74.8993 112.642 74.358C112.988 73.8167 113.16 73.2753 113.16 72.734C113.16 72.174 113.025 71.7353 112.754 71.418C112.493 71.1007 112.078 70.942 111.508 70.942C110.958 70.942 110.528 71.1193 110.22 71.474C109.922 71.8193 109.763 72.286 109.744 72.874H108.204C108.232 71.81 108.55 70.998 109.156 70.438C109.772 69.8687 110.552 69.584 111.494 69.584C112.512 69.584 113.305 69.864 113.874 70.424C114.453 70.984 114.742 71.7307 114.742 72.664C114.742 73.336 114.57 73.9847 114.224 74.61C113.888 75.226 113.482 75.7813 113.006 76.276C112.54 76.7613 111.942 77.326 111.214 77.97L110.584 78.53H115.022V79.86H108.218V78.698L109.226 77.83ZM116.564 71.25V69.794H119.476V80H117.866V71.25H116.564ZM122.019 74.764C122.019 73.1493 122.29 71.8893 122.831 70.984C123.382 70.0693 124.324 69.612 125.659 69.612C126.994 69.612 127.932 70.0693 128.473 70.984C129.024 71.8893 129.299 73.1493 129.299 74.764C129.299 76.3973 129.024 77.676 128.473 78.6C127.932 79.5147 126.994 79.972 125.659 79.972C124.324 79.972 123.382 79.5147 122.831 78.6C122.29 77.676 122.019 76.3973 122.019 74.764ZM127.731 74.764C127.731 74.008 127.68 73.3687 127.577 72.846C127.484 72.3233 127.288 71.8987 126.989 71.572C126.69 71.236 126.247 71.068 125.659 71.068C125.071 71.068 124.628 71.236 124.329 71.572C124.03 71.8987 123.83 72.3233 123.727 72.846C123.634 73.3687 123.587 74.008 123.587 74.764C123.587 75.548 123.634 76.206 123.727 76.738C123.82 77.27 124.016 77.6993 124.315 78.026C124.623 78.3527 125.071 78.516 125.659 78.516C126.247 78.516 126.69 78.3527 126.989 78.026C127.297 77.6993 127.498 77.27 127.591 76.738C127.684 76.206 127.731 75.548 127.731 74.764ZM131.128 71.25V69.794H134.04V80H132.43V71.25H131.128ZM137.464 77.83C138.36 77.0553 139.065 76.4207 139.578 75.926C140.101 75.422 140.535 74.8993 140.88 74.358C141.226 73.8167 141.398 73.2753 141.398 72.734C141.398 72.174 141.263 71.7353 140.992 71.418C140.731 71.1007 140.316 70.942 139.746 70.942C139.196 70.942 138.766 71.1193 138.458 71.474C138.16 71.8193 138.001 72.286 137.982 72.874H136.442C136.47 71.81 136.788 70.998 137.394 70.438C138.01 69.8687 138.79 69.584 139.732 69.584C140.75 69.584 141.543 69.864 142.112 70.424C142.691 70.984 142.98 71.7307 142.98 72.664C142.98 73.336 142.808 73.9847 142.462 74.61C142.126 75.226 141.72 75.7813 141.244 76.276C140.778 76.7613 140.18 77.326 139.452 77.97L138.822 78.53H143.26V79.86H136.456V78.698L137.464 77.83ZM144.984 72.314C145.04 71.446 145.372 70.7693 145.978 70.284C146.594 69.7987 147.378 69.556 148.33 69.556C148.984 69.556 149.548 69.6727 150.024 69.906C150.5 70.1393 150.86 70.4567 151.102 70.858C151.345 71.2593 151.466 71.712 151.466 72.216C151.466 72.7947 151.312 73.2893 151.004 73.7C150.696 74.1107 150.328 74.386 149.898 74.526V74.582C150.449 74.75 150.878 75.058 151.186 75.506C151.494 75.9447 151.648 76.5093 151.648 77.2C151.648 77.7507 151.522 78.2407 151.27 78.67C151.018 79.0993 150.645 79.44 150.15 79.692C149.656 79.9347 149.063 80.056 148.372 80.056C147.364 80.056 146.534 79.7993 145.88 79.286C145.236 78.7633 144.891 78.0167 144.844 77.046H146.384C146.422 77.5407 146.613 77.9467 146.958 78.264C147.304 78.572 147.77 78.726 148.358 78.726C148.928 78.726 149.366 78.572 149.674 78.264C149.982 77.9467 150.136 77.5407 150.136 77.046C150.136 76.3927 149.926 75.9307 149.506 75.66C149.096 75.38 148.461 75.24 147.602 75.24H147.238V73.924H147.616C148.372 73.9147 148.946 73.7887 149.338 73.546C149.74 73.3033 149.94 72.9207 149.94 72.398C149.94 71.95 149.796 71.5953 149.506 71.334C149.217 71.0633 148.806 70.928 148.274 70.928C147.752 70.928 147.346 71.0633 147.056 71.334C146.767 71.5953 146.594 71.922 146.538 72.314H144.984ZM160.255 71.166H155.565V73.952C155.761 73.6907 156.05 73.4713 156.433 73.294C156.825 73.1167 157.24 73.028 157.679 73.028C158.463 73.028 159.097 73.196 159.583 73.532C160.077 73.868 160.427 74.2927 160.633 74.806C160.847 75.3193 160.955 75.8607 160.955 76.43C160.955 77.1207 160.819 77.7367 160.549 78.278C160.287 78.81 159.891 79.23 159.359 79.538C158.836 79.846 158.192 80 157.427 80C156.409 80 155.593 79.748 154.977 79.244C154.361 78.74 153.992 78.0727 153.871 77.242H155.425C155.527 77.6807 155.756 78.0307 156.111 78.292C156.465 78.544 156.909 78.67 157.441 78.67C158.103 78.67 158.598 78.4693 158.925 78.068C159.261 77.6667 159.429 77.1347 159.429 76.472C159.429 75.8 159.261 75.2867 158.925 74.932C158.589 74.568 158.094 74.386 157.441 74.386C156.983 74.386 156.596 74.5027 156.279 74.736C155.971 74.96 155.747 75.268 155.607 75.66H154.095V69.766H160.255V71.166ZM163.848 77.83C164.744 77.0553 165.449 76.4207 165.962 75.926C166.485 75.422 166.919 74.8993 167.264 74.358C167.61 73.8167 167.782 73.2753 167.782 72.734C167.782 72.174 167.647 71.7353 167.376 71.418C167.115 71.1007 166.7 70.942 166.13 70.942C165.58 70.942 165.15 71.1193 164.842 71.474C164.544 71.8193 164.385 72.286 164.366 72.874H162.826C162.854 71.81 163.172 70.998 163.778 70.438C164.394 69.8687 165.174 69.584 166.116 69.584C167.134 69.584 167.927 69.864 168.496 70.424C169.075 70.984 169.364 71.7307 169.364 72.664C169.364 73.336 169.192 73.9847 168.846 74.61C168.51 75.226 168.104 75.7813 167.628 76.276C167.162 76.7613 166.564 77.326 165.836 77.97L165.206 78.53H169.644V79.86H162.84V78.698L163.848 77.83Z" fill="black" fill-opacity="0.85"/>
<defs>
<linearGradient id="paint0_linear_125_592" x1="38" y1="32" x2="38" y2="52" gradientUnits="userSpaceOnUse">
<stop stop-color="#FF9A1A"/>
<stop offset="1" stop-color="#E80505"/>
</linearGradient>
<linearGradient id="paint1_linear_125_592" x1="41" y1="36" x2="41" y2="42" gradientUnits="userSpaceOnUse">
<stop stop-color="#FF9A1A"/>
<stop offset="1" stop-color="#E80505"/>
</linearGradient>
</defs>
</svg>
