<svg width="256" height="63" viewBox="0 0 256 63" fill="none" xmlns="http://www.w3.org/2000/svg">
<line y1="62.5" x2="256" y2="62.5" stroke="#CDCDCD" stroke-opacity="0.5"/>
<rect x="2" y="0.5" width="44" height="44" rx="8" fill="#F2F7FC"/>
<rect x="12" y="10.5" width="24" height="24" rx="8.26855" fill="#F2F7FC"/>
<path d="M28 12.5H20C19.4696 12.5 18.9609 12.7107 18.5858 13.0858C18.2107 13.4609 18 13.9696 18 14.5V30.5C18 31.0304 18.2107 31.5391 18.5858 31.9142C18.9609 32.2893 19.4696 32.5 20 32.5H28C28.5304 32.5 29.0391 32.2893 29.4142 31.9142C29.7893 31.5391 30 31.0304 30 30.5V14.5C30 13.9696 29.7893 13.4609 29.4142 13.0858C29.0391 12.7107 28.5304 12.5 28 12.5ZM25 31.5H23V30.5H25V31.5ZM28 29.5H20V15.5H28V29.5Z" fill="url(#paint0_linear_104_161)"/>
<path d="M57.12 17.5V7.56H61.292C61.74 7.56 62.1507 7.65333 62.524 7.84C62.8973 8.02667 63.224 8.274 63.504 8.582C63.784 8.89 63.9987 9.23533 64.148 9.618C64.2973 10.0007 64.372 10.3927 64.372 10.794C64.372 11.3447 64.246 11.872 63.994 12.376C63.7513 12.8707 63.4013 13.272 62.944 13.58C62.496 13.888 61.9733 14.042 61.376 14.042H58.688V17.5H57.12ZM58.688 12.656H61.278C61.5767 12.656 61.838 12.5767 62.062 12.418C62.286 12.25 62.4587 12.026 62.58 11.746C62.7107 11.466 62.776 11.1487 62.776 10.794C62.776 10.43 62.7013 10.108 62.552 9.828C62.4027 9.548 62.2067 9.33333 61.964 9.184C61.7307 9.02533 61.474 8.946 61.194 8.946H58.688V12.656ZM72.2127 17.5H70.6727V13.398C70.6727 12.7353 70.5513 12.2407 70.3087 11.914C70.066 11.5873 69.7253 11.424 69.2867 11.424C69.016 11.424 68.736 11.4987 68.4467 11.648C68.1573 11.7973 67.9007 12.0027 67.6767 12.264C67.4527 12.516 67.2893 12.81 67.1867 13.146V17.5H65.6467V7.28H67.1867V11.648C67.4667 11.1533 67.8493 10.766 68.3347 10.486C68.82 10.1967 69.3427 10.052 69.9027 10.052C70.36 10.052 70.738 10.1313 71.0367 10.29C71.3353 10.4487 71.5687 10.668 71.7367 10.948C71.914 11.2187 72.0353 11.536 72.1007 11.9C72.1753 12.2547 72.2127 12.6327 72.2127 13.034V17.5ZM77.2902 17.64C76.7115 17.64 76.1935 17.542 75.7362 17.346C75.2788 17.1407 74.8822 16.8607 74.5462 16.506C74.2195 16.1513 73.9675 15.75 73.7902 15.302C73.6128 14.8447 73.5242 14.3593 73.5242 13.846C73.5242 13.3327 73.6128 12.8473 73.7902 12.39C73.9675 11.9327 74.2195 11.5313 74.5462 11.186C74.8822 10.8313 75.2788 10.556 75.7362 10.36C76.2028 10.1547 76.7208 10.052 77.2902 10.052C77.8595 10.052 78.3728 10.1547 78.8302 10.36C79.2968 10.556 79.6935 10.8313 80.0202 11.186C80.3562 11.5313 80.6128 11.9327 80.7902 12.39C80.9675 12.8473 81.0562 13.3327 81.0562 13.846C81.0562 14.3593 80.9675 14.8447 80.7902 15.302C80.6128 15.75 80.3562 16.1513 80.0202 16.506C79.6935 16.8607 79.2968 17.1407 78.8302 17.346C78.3728 17.542 77.8595 17.64 77.2902 17.64ZM75.1062 13.86C75.1062 14.3267 75.2042 14.7467 75.4002 15.12C75.5962 15.4933 75.8575 15.7873 76.1842 16.002C76.5108 16.2167 76.8795 16.324 77.2902 16.324C77.6915 16.324 78.0555 16.2167 78.3822 16.002C78.7182 15.778 78.9842 15.4793 79.1802 15.106C79.3762 14.7233 79.4742 14.3033 79.4742 13.846C79.4742 13.3793 79.3762 12.9593 79.1802 12.586C78.9842 12.2127 78.7182 11.9187 78.3822 11.704C78.0555 11.48 77.6915 11.368 77.2902 11.368C76.8795 11.368 76.5108 11.48 76.1842 11.704C75.8575 11.928 75.5962 12.2267 75.4002 12.6C75.2042 12.964 75.1062 13.384 75.1062 13.86ZM88.988 17.5H87.448V13.398C87.448 12.7167 87.336 12.2173 87.112 11.9C86.8974 11.5827 86.5754 11.424 86.146 11.424C85.8474 11.424 85.5487 11.4987 85.25 11.648C84.9607 11.7973 84.6994 12.0027 84.466 12.264C84.2327 12.516 84.0647 12.81 83.962 13.146V17.5H82.422V10.178H83.822V11.648C84.0087 11.3213 84.2514 11.0413 84.55 10.808C84.858 10.5653 85.2034 10.3787 85.586 10.248C85.9687 10.1173 86.3747 10.052 86.804 10.052C87.2427 10.052 87.602 10.1313 87.882 10.29C88.1714 10.4487 88.3954 10.668 88.554 10.948C88.722 11.2187 88.834 11.536 88.89 11.9C88.9554 12.2547 88.988 12.6327 88.988 13.034V17.5ZM94.0936 17.64C93.5242 17.64 93.0062 17.542 92.5396 17.346C92.0822 17.1407 91.6856 16.8653 91.3496 16.52C91.0136 16.1653 90.7522 15.764 90.5656 15.316C90.3882 14.8587 90.2996 14.3733 90.2996 13.86C90.2996 13.1693 90.4582 12.5393 90.7756 11.97C91.0929 11.3913 91.5362 10.9293 92.1056 10.584C92.6749 10.2293 93.3422 10.052 94.1076 10.052C94.8729 10.052 95.5309 10.2293 96.0816 10.584C96.6416 10.9293 97.0756 11.3867 97.3836 11.956C97.6916 12.5253 97.8456 13.1367 97.8456 13.79C97.8456 13.902 97.8409 14.0093 97.8316 14.112C97.8222 14.2053 97.8129 14.2847 97.8036 14.35H91.9376C91.9656 14.7793 92.0822 15.1573 92.2876 15.484C92.5022 15.8013 92.7729 16.0533 93.0996 16.24C93.4262 16.4173 93.7762 16.506 94.1496 16.506C94.5602 16.506 94.9476 16.4033 95.3116 16.198C95.6849 15.9927 95.9369 15.722 96.0676 15.386L97.3836 15.764C97.2249 16.1187 96.9822 16.4407 96.6556 16.73C96.3382 17.01 95.9602 17.234 95.5216 17.402C95.0829 17.5607 94.6069 17.64 94.0936 17.64ZM91.8956 13.328H96.3196C96.2916 12.908 96.1702 12.5393 95.9556 12.222C95.7502 11.8953 95.4842 11.6433 95.1576 11.466C94.8402 11.2793 94.4856 11.186 94.0936 11.186C93.7109 11.186 93.3562 11.2793 93.0296 11.466C92.7122 11.6433 92.4509 11.8953 92.2456 12.222C92.0402 12.5393 91.9236 12.908 91.8956 13.328Z" fill="#1A1003" fill-opacity="0.5"/>
<path d="M61.18 29.414V30.646H59.626V32.34H58.24V30.646H56.686V29.414H58.24V27.72H59.626V29.414H61.18ZM62.3412 30.45C62.3412 29.8153 62.4999 29.2367 62.8172 28.714C63.1346 28.1913 63.5639 27.776 64.1052 27.468C64.6559 27.16 65.2672 27.006 65.9392 27.006C66.6672 27.006 67.3019 27.1833 67.8432 27.538C68.3846 27.8833 68.8046 28.3873 69.1032 29.05C69.4112 29.7033 69.5652 30.492 69.5652 31.416C69.5652 32.6853 69.4066 33.7447 69.0892 34.594C68.7812 35.4433 68.3426 36.0827 67.7732 36.512C67.2039 36.9413 66.5366 37.156 65.7712 37.156C65.1459 37.156 64.5672 37.0067 64.0352 36.708C63.5032 36.4187 63.0739 36.0127 62.7472 35.49L63.6572 34.538C63.8719 34.9207 64.1706 35.2287 64.5532 35.462C64.9359 35.6953 65.3512 35.812 65.7992 35.812C66.2659 35.812 66.6719 35.6767 67.0172 35.406C67.3626 35.1447 67.6286 34.762 67.8152 34.258C68.0112 33.754 68.1139 33.1427 68.1232 32.424C67.9926 32.6947 67.8106 32.9327 67.5772 33.138C67.3439 33.3433 67.0732 33.502 66.7652 33.614C66.4666 33.726 66.1399 33.782 65.7852 33.782C65.1412 33.782 64.5579 33.6327 64.0352 33.334C63.5126 33.0353 63.0972 32.6387 62.7892 32.144C62.4906 31.64 62.3412 31.0753 62.3412 30.45ZM65.9252 28.322C65.5426 28.322 65.1879 28.42 64.8612 28.616C64.5439 28.8027 64.2872 29.0593 64.0912 29.386C63.9046 29.7033 63.8112 30.058 63.8112 30.45C63.8112 30.8327 63.9046 31.1827 64.0912 31.5C64.2872 31.8173 64.5439 32.074 64.8612 32.27C65.1879 32.4567 65.5426 32.55 65.9252 32.55C66.3172 32.55 66.6719 32.4567 66.9892 32.27C67.3066 32.074 67.5586 31.8173 67.7452 31.5C67.9412 31.1827 68.0392 30.8327 68.0392 30.45C68.0392 30.0673 67.9412 29.7127 67.7452 29.386C67.5492 29.0593 67.2926 28.8027 66.9752 28.616C66.6579 28.42 66.3079 28.322 65.9252 28.322ZM76.3674 33.614V35H71.0194V33.614H73.0074V28.728C72.9234 28.84 72.7927 28.9567 72.6154 29.078C72.438 29.1993 72.2374 29.316 72.0134 29.428C71.7987 29.5307 71.5794 29.6147 71.3554 29.68C71.1314 29.7453 70.926 29.778 70.7394 29.778V28.336C70.926 28.336 71.1407 28.28 71.3834 28.168C71.626 28.056 71.864 27.9253 72.0974 27.776C72.34 27.6173 72.5454 27.468 72.7134 27.328C72.8814 27.1787 72.9794 27.0713 73.0074 27.006H74.5894V33.614H76.3674ZM87.9142 32.13C87.9142 32.7273 87.7509 33.25 87.4242 33.698C87.1069 34.146 86.6729 34.496 86.1222 34.748C85.5809 34.9907 84.9882 35.112 84.3442 35.112C83.6815 35.112 83.0842 34.9813 82.5522 34.72C82.0202 34.4493 81.5955 34.0853 81.2782 33.628C80.9609 33.1707 80.8022 32.648 80.8022 32.06C80.8022 31.668 80.8909 31.318 81.0682 31.01C81.2455 30.6927 81.4649 30.422 81.7262 30.198C81.9875 29.974 82.2535 29.8013 82.5242 29.68C82.2722 29.5587 82.0389 29.4047 81.8242 29.218C81.6189 29.022 81.4509 28.798 81.3202 28.546C81.1989 28.294 81.1382 28.0233 81.1382 27.734C81.1382 27.3047 81.2315 26.9267 81.4182 26.6C81.6142 26.264 81.8709 25.984 82.1882 25.76C82.5055 25.5267 82.8509 25.354 83.2242 25.242C83.6069 25.1207 83.9849 25.06 84.3582 25.06C84.7409 25.06 85.1189 25.1207 85.4922 25.242C85.8749 25.354 86.2249 25.522 86.5422 25.746C86.8689 25.97 87.1255 26.25 87.3122 26.586C87.5082 26.9127 87.6062 27.2907 87.6062 27.72C87.6062 28.0093 87.5409 28.2847 87.4102 28.546C87.2889 28.798 87.1162 29.022 86.8922 29.218C86.6775 29.414 86.4442 29.568 86.1922 29.68C86.4909 29.8107 86.7709 29.9927 87.0322 30.226C87.3029 30.4593 87.5175 30.7347 87.6762 31.052C87.8349 31.3693 87.9142 31.7287 87.9142 32.13ZM86.3602 32.032C86.3602 31.7613 86.2995 31.5187 86.1782 31.304C86.0662 31.0893 85.9122 30.912 85.7162 30.772C85.5202 30.6227 85.3055 30.5107 85.0722 30.436C84.8389 30.3613 84.6009 30.324 84.3582 30.324C84.0129 30.324 83.6909 30.394 83.3922 30.534C83.0935 30.674 82.8509 30.8747 82.6642 31.136C82.4775 31.388 82.3842 31.6867 82.3842 32.032C82.3842 32.2933 82.4402 32.5313 82.5522 32.746C82.6642 32.9513 82.8135 33.1287 83.0002 33.278C83.1962 33.4273 83.4109 33.5393 83.6442 33.614C83.8869 33.6887 84.1295 33.726 84.3722 33.726C84.7082 33.726 85.0255 33.656 85.3242 33.516C85.6322 33.3667 85.8795 33.166 86.0662 32.914C86.2622 32.6527 86.3602 32.3587 86.3602 32.032ZM82.6922 27.79C82.6922 28.0793 82.7762 28.3267 82.9442 28.532C83.1122 28.7373 83.3269 28.8913 83.5882 28.994C83.8495 29.0967 84.1062 29.148 84.3582 29.148C84.6195 29.148 84.8762 29.0967 85.1282 28.994C85.3895 28.882 85.6042 28.7233 85.7722 28.518C85.9495 28.3127 86.0382 28.0607 86.0382 27.762C86.0382 27.4913 85.9589 27.258 85.8002 27.062C85.6415 26.8567 85.4315 26.7027 85.1702 26.6C84.9182 26.488 84.6475 26.432 84.3582 26.432C84.0689 26.432 83.7935 26.488 83.5322 26.6C83.2802 26.712 83.0749 26.8707 82.9162 27.076C82.7669 27.272 82.6922 27.51 82.6922 27.79ZM93.1724 36.778V34.552H88.8744V33.18L93.6624 27.006H94.7124V33.152H95.9444V34.552H94.7124V36.778H93.1724ZM90.4424 33.152H93.3404V29.358L90.4424 33.152ZM97.0288 35C97.0288 34.608 97.0614 34.2487 97.1268 33.922C97.1921 33.586 97.3041 33.2687 97.4628 32.97C97.6308 32.6713 97.8594 32.3913 98.1488 32.13C98.4474 31.8593 98.8254 31.6027 99.2828 31.36C99.6094 31.1733 99.9174 31.01 100.207 30.87C100.496 30.7207 100.753 30.576 100.977 30.436C101.201 30.2867 101.373 30.128 101.495 29.96C101.625 29.792 101.691 29.6007 101.691 29.386C101.691 29.1807 101.635 28.9893 101.523 28.812C101.411 28.6347 101.243 28.4947 101.019 28.392C100.795 28.28 100.524 28.224 100.207 28.224C99.9548 28.224 99.7214 28.2567 99.5068 28.322C99.3014 28.3873 99.1101 28.476 98.9328 28.588C98.7648 28.6907 98.6108 28.8073 98.4708 28.938C98.3308 29.0593 98.2094 29.1807 98.1068 29.302L97.1408 28.196C97.2341 28.084 97.3788 27.958 97.5748 27.818C97.7801 27.6687 98.0228 27.524 98.3028 27.384C98.5921 27.2347 98.9188 27.1133 99.2828 27.02C99.6468 26.9173 100.043 26.866 100.473 26.866C101.079 26.866 101.597 26.9687 102.027 27.174C102.456 27.37 102.783 27.6453 103.007 28C103.24 28.3453 103.357 28.7373 103.357 29.176C103.357 29.5213 103.287 29.8247 103.147 30.086C103.016 30.3473 102.843 30.5807 102.629 30.786C102.414 30.982 102.185 31.1547 101.943 31.304C101.709 31.444 101.49 31.57 101.285 31.682C100.921 31.8593 100.603 32.0227 100.333 32.172C100.071 32.3213 99.8474 32.4707 99.6608 32.62C99.4741 32.76 99.3201 32.9093 99.1988 33.068C99.0774 33.2173 98.9748 33.3993 98.8908 33.614H103.511V35H97.0288ZM110.41 33.614V35H105.062V33.614H107.05V28.728C106.966 28.84 106.836 28.9567 106.658 29.078C106.481 29.1993 106.28 29.316 106.056 29.428C105.842 29.5307 105.622 29.6147 105.398 29.68C105.174 29.7453 104.969 29.778 104.782 29.778V28.336C104.969 28.336 105.184 28.28 105.426 28.168C105.669 28.056 105.907 27.9253 106.14 27.776C106.383 27.6173 106.588 27.468 106.756 27.328C106.924 27.1787 107.022 27.0713 107.05 27.006H108.632V33.614H110.41ZM118.624 30.898C118.624 31.7193 118.466 32.452 118.148 33.096C117.84 33.7307 117.416 34.23 116.874 34.594C116.342 34.958 115.731 35.14 115.04 35.14C114.359 35.14 113.748 34.958 113.206 34.594C112.665 34.23 112.236 33.7307 111.918 33.096C111.61 32.452 111.456 31.7193 111.456 30.898C111.456 30.0767 111.61 29.3487 111.918 28.714C112.236 28.07 112.665 27.566 113.206 27.202C113.748 26.8287 114.359 26.642 115.04 26.642C115.731 26.642 116.342 26.8287 116.874 27.202C117.416 27.566 117.84 28.07 118.148 28.714C118.466 29.3487 118.624 30.0767 118.624 30.898ZM117.056 30.898C117.056 30.338 116.972 29.848 116.804 29.428C116.636 28.9987 116.398 28.6673 116.09 28.434C115.782 28.1913 115.432 28.07 115.04 28.07C114.639 28.07 114.284 28.1913 113.976 28.434C113.668 28.6673 113.426 28.9987 113.248 29.428C113.08 29.848 112.996 30.338 112.996 30.898C112.996 31.458 113.08 31.948 113.248 32.368C113.426 32.788 113.668 33.1193 113.976 33.362C114.284 33.5953 114.639 33.712 115.04 33.712C115.432 33.712 115.778 33.5953 116.076 33.362C116.384 33.1193 116.622 32.788 116.79 32.368C116.968 31.948 117.056 31.458 117.056 30.898ZM125.6 33.614V35H120.252V33.614H122.24V28.728C122.156 28.84 122.025 28.9567 121.848 29.078C121.67 29.1993 121.47 29.316 121.246 29.428C121.031 29.5307 120.812 29.6147 120.588 29.68C120.364 29.7453 120.158 29.778 119.972 29.778V28.336C120.158 28.336 120.373 28.28 120.616 28.168C120.858 28.056 121.096 27.9253 121.33 27.776C121.572 27.6173 121.778 27.468 121.946 27.328C122.114 27.1787 122.212 27.0713 122.24 27.006H123.822V33.614H125.6ZM126.492 35C126.492 34.608 126.524 34.2487 126.59 33.922C126.655 33.586 126.767 33.2687 126.926 32.97C127.094 32.6713 127.322 32.3913 127.612 32.13C127.91 31.8593 128.288 31.6027 128.746 31.36C129.072 31.1733 129.38 31.01 129.67 30.87C129.959 30.7207 130.216 30.576 130.44 30.436C130.664 30.2867 130.836 30.128 130.958 29.96C131.088 29.792 131.154 29.6007 131.154 29.386C131.154 29.1807 131.098 28.9893 130.986 28.812C130.874 28.6347 130.706 28.4947 130.482 28.392C130.258 28.28 129.987 28.224 129.67 28.224C129.418 28.224 129.184 28.2567 128.97 28.322C128.764 28.3873 128.573 28.476 128.396 28.588C128.228 28.6907 128.074 28.8073 127.934 28.938C127.794 29.0593 127.672 29.1807 127.57 29.302L126.604 28.196C126.697 28.084 126.842 27.958 127.038 27.818C127.243 27.6687 127.486 27.524 127.766 27.384C128.055 27.2347 128.382 27.1133 128.746 27.02C129.11 26.9173 129.506 26.866 129.936 26.866C130.542 26.866 131.06 26.9687 131.49 27.174C131.919 27.37 132.246 27.6453 132.47 28C132.703 28.3453 132.82 28.7373 132.82 29.176C132.82 29.5213 132.75 29.8247 132.61 30.086C132.479 30.3473 132.306 30.5807 132.092 30.786C131.877 30.982 131.648 31.1547 131.406 31.304C131.172 31.444 130.953 31.57 130.748 31.682C130.384 31.8593 130.066 32.0227 129.796 32.172C129.534 32.3213 129.31 32.4707 129.124 32.62C128.937 32.76 128.783 32.9093 128.662 33.068C128.54 33.2173 128.438 33.3993 128.354 33.614H132.974V35H126.492ZM138.781 31.696C139.173 31.7613 139.514 31.9107 139.803 32.144C140.102 32.368 140.331 32.6573 140.489 33.012C140.648 33.3573 140.727 33.7493 140.727 34.188C140.727 34.7667 140.583 35.2707 140.293 35.7C140.013 36.1293 139.612 36.4607 139.089 36.694C138.567 36.9367 137.951 37.058 137.241 37.058C136.532 37.058 135.907 36.932 135.365 36.68C134.824 36.4373 134.39 36.0827 134.063 35.616L135.001 34.552C135.225 34.888 135.515 35.154 135.869 35.35C136.224 35.5553 136.672 35.658 137.213 35.658C137.82 35.658 138.291 35.5273 138.627 35.266C138.963 35.0047 139.131 34.6127 139.131 34.09C139.131 33.5487 138.945 33.124 138.571 32.816C138.207 32.508 137.657 32.354 136.919 32.354H136.541V31.15H136.961C137.587 31.15 138.067 31.0053 138.403 30.716C138.739 30.4173 138.907 30.044 138.907 29.596C138.907 29.2973 138.837 29.0547 138.697 28.868C138.567 28.672 138.38 28.5273 138.137 28.434C137.895 28.3407 137.615 28.294 137.297 28.294C136.821 28.294 136.401 28.3967 136.037 28.602C135.673 28.8073 135.384 29.1013 135.169 29.484L134.203 28.434C134.39 28.1353 134.647 27.874 134.973 27.65C135.3 27.426 135.673 27.2533 136.093 27.132C136.523 27.0013 136.975 26.936 137.451 26.936C138.067 26.936 138.609 27.0387 139.075 27.244C139.542 27.4493 139.901 27.7387 140.153 28.112C140.415 28.4853 140.545 28.924 140.545 29.428C140.545 29.792 140.475 30.1373 140.335 30.464C140.195 30.7813 139.99 31.052 139.719 31.276C139.449 31.4907 139.136 31.6307 138.781 31.696ZM144.967 37.086C144.248 37.086 143.604 36.9227 143.035 36.596C142.465 36.2787 142.031 35.8447 141.733 35.294L142.657 34.412C142.918 34.8133 143.254 35.1307 143.665 35.364C144.075 35.6067 144.514 35.728 144.981 35.728C145.363 35.728 145.704 35.644 146.003 35.476C146.301 35.3173 146.535 35.0933 146.703 34.804C146.88 34.5053 146.969 34.1647 146.969 33.782C146.969 33.4087 146.885 33.082 146.717 32.802C146.549 32.5127 146.325 32.2933 146.045 32.144C145.765 31.9853 145.443 31.906 145.079 31.906C144.724 31.906 144.393 31.9853 144.085 32.144C143.777 32.3027 143.525 32.5267 143.329 32.816H141.971L143.105 27.006H147.963V28.42H144.225L143.721 31.136C143.879 30.968 144.094 30.8327 144.365 30.73C144.635 30.618 144.943 30.562 145.289 30.562C145.914 30.562 146.469 30.702 146.955 30.982C147.449 31.2527 147.837 31.626 148.117 32.102C148.406 32.578 148.551 33.1287 148.551 33.754C148.551 34.4167 148.392 34.9953 148.075 35.49C147.757 35.994 147.328 36.386 146.787 36.666C146.245 36.946 145.639 37.086 144.967 37.086ZM149.57 35C149.57 34.608 149.602 34.2487 149.668 33.922C149.733 33.586 149.845 33.2687 150.004 32.97C150.172 32.6713 150.4 32.3913 150.69 32.13C150.988 31.8593 151.366 31.6027 151.824 31.36C152.15 31.1733 152.458 31.01 152.748 30.87C153.037 30.7207 153.294 30.576 153.518 30.436C153.742 30.2867 153.914 30.128 154.036 29.96C154.166 29.792 154.232 29.6007 154.232 29.386C154.232 29.1807 154.176 28.9893 154.064 28.812C153.952 28.6347 153.784 28.4947 153.56 28.392C153.336 28.28 153.065 28.224 152.748 28.224C152.496 28.224 152.262 28.2567 152.048 28.322C151.842 28.3873 151.651 28.476 151.474 28.588C151.306 28.6907 151.152 28.8073 151.012 28.938C150.872 29.0593 150.75 29.1807 150.648 29.302L149.682 28.196C149.775 28.084 149.92 27.958 150.116 27.818C150.321 27.6687 150.564 27.524 150.844 27.384C151.133 27.2347 151.46 27.1133 151.824 27.02C152.188 26.9173 152.584 26.866 153.014 26.866C153.62 26.866 154.138 26.9687 154.568 27.174C154.997 27.37 155.324 27.6453 155.548 28C155.781 28.3453 155.898 28.7373 155.898 29.176C155.898 29.5213 155.828 29.8247 155.688 30.086C155.557 30.3473 155.384 30.5807 155.17 30.786C154.955 30.982 154.726 31.1547 154.484 31.304C154.25 31.444 154.031 31.57 153.826 31.682C153.462 31.8593 153.144 32.0227 152.874 32.172C152.612 32.3213 152.388 32.4707 152.202 32.62C152.015 32.76 151.861 32.9093 151.74 33.068C151.618 33.2173 151.516 33.3993 151.432 33.614H156.052V35H149.57Z" fill="black"/>
<defs>
<linearGradient id="paint0_linear_104_161" x1="24" y1="12.5" x2="24" y2="32.5" gradientUnits="userSpaceOnUse">
<stop stop-color="#FF9A1A"/>
<stop offset="1" stop-color="#EC1C09"/>
</linearGradient>
</defs>
</svg>
