<svg width="81" height="80" viewBox="0 0 81 80" fill="none" xmlns="http://www.w3.org/2000/svg">
<rect x="0.5" width="80" height="80" rx="20" fill="#E1E8EF"/>
<path d="M36 15H46C46.7956 15 47.5587 15.3161 48.1213 15.8787C48.6839 16.4413 49 17.2044 49 18V32C49 32.7956 48.6839 33.5587 48.1213 34.1213C47.5587 34.6839 46.7956 35 46 35H36C35.2044 35 34.4413 34.6839 33.8787 34.1213C33.3161 33.5587 33 32.7956 33 32V18C33 17.2044 33.3161 16.4413 33.8787 15.8787C34.4413 15.3161 35.2044 15 36 15ZM36 17C35.7348 17 35.4804 17.1054 35.2929 17.2929C35.1054 17.4804 35 17.7348 35 18V32C35 32.2652 35.1054 32.5196 35.2929 32.7071C35.4804 32.8946 35.7348 33 36 33H46C46.2652 33 46.5196 32.8946 46.7071 32.7071C46.8946 32.5196 47 32.2652 47 32V18C47 17.7348 46.8946 17.4804 46.7071 17.2929C46.5196 17.1054 46.2652 17 46 17H36ZM38 18H44C44.2652 18 44.5196 18.1054 44.7071 18.2929C44.8946 18.4804 45 18.7348 45 19C45 19.2652 44.8946 19.5196 44.7071 19.7071C44.5196 19.8946 44.2652 20 44 20H38C37.7348 20 37.4804 19.8946 37.2929 19.7071C37.1054 19.5196 37 19.2652 37 19C37 18.7348 37.1054 18.4804 37.2929 18.2929C37.4804 18.1054 37.7348 18 38 18ZM38 30H40C40.2652 30 40.5196 30.1054 40.7071 30.2929C40.8946 30.4804 41 30.7348 41 31C41 31.2652 40.8946 31.5196 40.7071 31.7071C40.5196 31.8946 40.2652 32 40 32H38C37.7348 32 37.4804 31.8946 37.2929 31.7071C37.1054 31.5196 37 31.2652 37 31C37 30.7348 37.1054 30.4804 37.2929 30.2929C37.4804 30.1054 37.7348 30 38 30ZM38 26H44C44.2652 26 44.5196 26.1054 44.7071 26.2929C44.8946 26.4804 45 26.7348 45 27C45 27.2652 44.8946 27.5196 44.7071 27.7071C44.5196 27.8946 44.2652 28 44 28H38C37.7348 28 37.4804 27.8946 37.2929 27.7071C37.1054 27.5196 37 27.2652 37 27C37 26.7348 37.1054 26.4804 37.2929 26.2929C37.4804 26.1054 37.7348 26 38 26ZM38 22H44C44.2652 22 44.5196 22.1054 44.7071 22.2929C44.8946 22.4804 45 22.7348 45 23C45 23.2652 44.8946 23.5196 44.7071 23.7071C44.5196 23.8946 44.2652 24 44 24H38C37.7348 24 37.4804 23.8946 37.2929 23.7071C37.1054 23.5196 37 23.2652 37 23C37 22.7348 37.1054 22.4804 37.2929 22.2929C37.4804 22.1054 37.7348 22 38 22Z" fill="#1A1003" fill-opacity="0.5"/>
<path d="M18.46 51V42.48H22.168C22.552 42.48 22.904 42.56 23.224 42.72C23.544 42.88 23.82 43.092 24.052 43.356C24.292 43.62 24.476 43.916 24.604 44.244C24.74 44.572 24.808 44.908 24.808 45.252C24.808 45.628 24.74 45.988 24.604 46.332C24.468 46.676 24.272 46.972 24.016 47.22C23.768 47.468 23.476 47.648 23.14 47.76L25.144 51H23.632L21.784 48.036H19.804V51H18.46ZM19.804 46.848H22.156C22.404 46.848 22.624 46.776 22.816 46.632C23.008 46.488 23.16 46.296 23.272 46.056C23.384 45.808 23.44 45.54 23.44 45.252C23.44 44.956 23.376 44.692 23.248 44.46C23.12 44.22 22.952 44.028 22.744 43.884C22.544 43.74 22.324 43.668 22.084 43.668H19.804V46.848ZM28.8704 51.12C28.3824 51.12 27.9384 51.036 27.5384 50.868C27.1464 50.692 26.8064 50.456 26.5184 50.16C26.2304 49.856 26.0064 49.512 25.8464 49.128C25.6944 48.736 25.6184 48.32 25.6184 47.88C25.6184 47.288 25.7544 46.748 26.0264 46.26C26.2984 45.764 26.6784 45.368 27.1664 45.072C27.6544 44.768 28.2264 44.616 28.8824 44.616C29.5384 44.616 30.1024 44.768 30.5744 45.072C31.0544 45.368 31.4264 45.76 31.6904 46.248C31.9544 46.736 32.0864 47.26 32.0864 47.82C32.0864 47.916 32.0824 48.008 32.0744 48.096C32.0664 48.176 32.0584 48.244 32.0504 48.3H27.0224C27.0464 48.668 27.1464 48.992 27.3224 49.272C27.5064 49.544 27.7384 49.76 28.0184 49.92C28.2984 50.072 28.5984 50.148 28.9184 50.148C29.2704 50.148 29.6024 50.06 29.9144 49.884C30.2344 49.708 30.4504 49.476 30.5624 49.188L31.6904 49.512C31.5544 49.816 31.3464 50.092 31.0664 50.34C30.7944 50.58 30.4704 50.772 30.0944 50.916C29.7184 51.052 29.3104 51.12 28.8704 51.12ZM26.9864 47.424H30.7784C30.7544 47.064 30.6504 46.748 30.4664 46.476C30.2904 46.196 30.0624 45.98 29.7824 45.828C29.5104 45.668 29.2064 45.588 28.8704 45.588C28.5424 45.588 28.2384 45.668 27.9584 45.828C27.6864 45.98 27.4624 46.196 27.2864 46.476C27.1104 46.748 27.0104 47.064 26.9864 47.424ZM35.3951 51.12C34.8671 51.12 34.3671 51.036 33.8951 50.868C33.4231 50.692 33.0191 50.432 32.6831 50.088L33.1751 49.2C33.5351 49.52 33.8951 49.752 34.2551 49.896C34.6231 50.04 34.9871 50.112 35.3471 50.112C35.7151 50.112 36.0151 50.044 36.2471 49.908C36.4791 49.764 36.5951 49.556 36.5951 49.284C36.5951 49.084 36.5351 48.936 36.4151 48.84C36.2951 48.744 36.1191 48.66 35.8871 48.588C35.6631 48.516 35.3911 48.436 35.0711 48.348C34.6231 48.212 34.2471 48.072 33.9431 47.928C33.6391 47.776 33.4111 47.592 33.2591 47.376C33.1071 47.16 33.0311 46.884 33.0311 46.548C33.0311 46.14 33.1351 45.792 33.3431 45.504C33.5511 45.216 33.8391 44.996 34.2071 44.844C34.5831 44.692 35.0151 44.616 35.5031 44.616C35.9591 44.616 36.3791 44.688 36.7631 44.832C37.1551 44.968 37.4991 45.184 37.7951 45.48L37.2311 46.356C36.9511 46.1 36.6631 45.912 36.3671 45.792C36.0791 45.672 35.7671 45.612 35.4311 45.612C35.2391 45.612 35.0551 45.636 34.8791 45.684C34.7031 45.724 34.5551 45.804 34.4351 45.924C34.3231 46.036 34.2671 46.196 34.2671 46.404C34.2671 46.572 34.3151 46.708 34.4111 46.812C34.5071 46.916 34.6511 47.004 34.8431 47.076C35.0351 47.148 35.2711 47.228 35.5511 47.316C36.0391 47.46 36.4551 47.604 36.7991 47.748C37.1431 47.884 37.4071 48.064 37.5911 48.288C37.7831 48.504 37.8791 48.804 37.8791 49.188C37.8791 49.796 37.6511 50.272 37.1951 50.616C36.7471 50.952 36.1471 51.12 35.3951 51.12ZM38.9976 48.564V44.724H40.3176V48.3C40.3176 48.86 40.4176 49.284 40.6176 49.572C40.8256 49.852 41.1256 49.992 41.5176 49.992C41.7656 49.992 42.0056 49.94 42.2376 49.836C42.4776 49.732 42.6936 49.58 42.8856 49.38C43.0856 49.172 43.2456 48.924 43.3656 48.636V44.724H44.6856V49.512C44.6856 49.664 44.7136 49.772 44.7696 49.836C44.8256 49.9 44.9176 49.936 45.0456 49.944V51C44.9096 51.024 44.7976 51.04 44.7096 51.048C44.6216 51.056 44.5376 51.06 44.4576 51.06C44.2176 51.06 44.0176 50.996 43.8576 50.868C43.6976 50.732 43.6056 50.56 43.5816 50.352L43.5576 49.728C43.2776 50.184 42.9136 50.532 42.4656 50.772C42.0176 51.004 41.5256 51.12 40.9896 51.12C40.3336 51.12 39.8376 50.904 39.5016 50.472C39.1656 50.04 38.9976 49.404 38.9976 48.564ZM55.9701 51H54.6501V47.484C54.6501 46.9 54.5541 46.472 54.3621 46.2C54.1701 45.928 53.8901 45.792 53.5221 45.792C53.1541 45.792 52.8101 45.932 52.4901 46.212C52.1781 46.484 51.9581 46.84 51.8301 47.28V51H50.5101V47.484C50.5101 46.9 50.4141 46.472 50.2221 46.2C50.0301 45.928 49.7541 45.792 49.3941 45.792C49.0261 45.792 48.6821 45.928 48.3621 46.2C48.0501 46.472 47.8261 46.828 47.6901 47.268V51H46.3701V44.724H47.5701V45.984C47.8181 45.544 48.1421 45.208 48.5421 44.976C48.9501 44.736 49.4141 44.616 49.9341 44.616C50.4541 44.616 50.8621 44.752 51.1581 45.024C51.4621 45.296 51.6501 45.636 51.7221 46.044C51.9941 45.58 52.3261 45.228 52.7181 44.988C53.1181 44.74 53.5741 44.616 54.0861 44.616C54.4541 44.616 54.7621 44.684 55.0101 44.82C55.2581 44.956 55.4501 45.144 55.5861 45.384C55.7221 45.616 55.8181 45.888 55.8741 46.2C55.9381 46.504 55.9701 46.828 55.9701 47.172V51ZM60.3352 51.12C59.8472 51.12 59.4032 51.036 59.0032 50.868C58.6112 50.692 58.2712 50.456 57.9832 50.16C57.6952 49.856 57.4712 49.512 57.3112 49.128C57.1592 48.736 57.0832 48.32 57.0832 47.88C57.0832 47.288 57.2192 46.748 57.4912 46.26C57.7632 45.764 58.1432 45.368 58.6312 45.072C59.1192 44.768 59.6912 44.616 60.3472 44.616C61.0032 44.616 61.5672 44.768 62.0392 45.072C62.5192 45.368 62.8912 45.76 63.1552 46.248C63.4192 46.736 63.5512 47.26 63.5512 47.82C63.5512 47.916 63.5472 48.008 63.5392 48.096C63.5312 48.176 63.5232 48.244 63.5152 48.3H58.4872C58.5112 48.668 58.6112 48.992 58.7872 49.272C58.9712 49.544 59.2032 49.76 59.4832 49.92C59.7632 50.072 60.0632 50.148 60.3832 50.148C60.7352 50.148 61.0672 50.06 61.3792 49.884C61.6992 49.708 61.9152 49.476 62.0272 49.188L63.1552 49.512C63.0192 49.816 62.8112 50.092 62.5312 50.34C62.2592 50.58 61.9352 50.772 61.5592 50.916C61.1832 51.052 60.7752 51.12 60.3352 51.12ZM58.4512 47.424H62.2432C62.2192 47.064 62.1152 46.748 61.9312 46.476C61.7552 46.196 61.5272 45.98 61.2472 45.828C60.9752 45.668 60.6712 45.588 60.3352 45.588C60.0072 45.588 59.7032 45.668 59.4232 45.828C59.1512 45.98 58.9272 46.196 58.7512 46.476C58.5752 46.748 58.4752 47.064 58.4512 47.424Z" fill="black"/>
</svg>
