<svg width="80" height="80" viewBox="0 0 80 80" fill="none" xmlns="http://www.w3.org/2000/svg">
<rect width="80" height="80" rx="20" fill="url(#paint0_linear_104_247)"/>
<path d="M35.5 15H45.5C46.2956 15 47.0587 15.3161 47.6213 15.8787C48.1839 16.4413 48.5 17.2044 48.5 18V32C48.5 32.7956 48.1839 33.5587 47.6213 34.1213C47.0587 34.6839 46.2956 35 45.5 35H35.5C34.7044 35 33.9413 34.6839 33.3787 34.1213C32.8161 33.5587 32.5 32.7956 32.5 32V18C32.5 17.2044 32.8161 16.4413 33.3787 15.8787C33.9413 15.3161 34.7044 15 35.5 15ZM35.5 17C35.2348 17 34.9804 17.1054 34.7929 17.2929C34.6054 17.4804 34.5 17.7348 34.5 18V32C34.5 32.2652 34.6054 32.5196 34.7929 32.7071C34.9804 32.8946 35.2348 33 35.5 33H45.5C45.7652 33 46.0196 32.8946 46.2071 32.7071C46.3946 32.5196 46.5 32.2652 46.5 32V18C46.5 17.7348 46.3946 17.4804 46.2071 17.2929C46.0196 17.1054 45.7652 17 45.5 17H35.5ZM37.5 18H43.5C43.7652 18 44.0196 18.1054 44.2071 18.2929C44.3946 18.4804 44.5 18.7348 44.5 19C44.5 19.2652 44.3946 19.5196 44.2071 19.7071C44.0196 19.8946 43.7652 20 43.5 20H37.5C37.2348 20 36.9804 19.8946 36.7929 19.7071C36.6054 19.5196 36.5 19.2652 36.5 19C36.5 18.7348 36.6054 18.4804 36.7929 18.2929C36.9804 18.1054 37.2348 18 37.5 18ZM37.5 30H39.5C39.7652 30 40.0196 30.1054 40.2071 30.2929C40.3946 30.4804 40.5 30.7348 40.5 31C40.5 31.2652 40.3946 31.5196 40.2071 31.7071C40.0196 31.8946 39.7652 32 39.5 32H37.5C37.2348 32 36.9804 31.8946 36.7929 31.7071C36.6054 31.5196 36.5 31.2652 36.5 31C36.5 30.7348 36.6054 30.4804 36.7929 30.2929C36.9804 30.1054 37.2348 30 37.5 30ZM37.5 26H43.5C43.7652 26 44.0196 26.1054 44.2071 26.2929C44.3946 26.4804 44.5 26.7348 44.5 27C44.5 27.2652 44.3946 27.5196 44.2071 27.7071C44.0196 27.8946 43.7652 28 43.5 28H37.5C37.2348 28 36.9804 27.8946 36.7929 27.7071C36.6054 27.5196 36.5 27.2652 36.5 27C36.5 26.7348 36.6054 26.4804 36.7929 26.2929C36.9804 26.1054 37.2348 26 37.5 26ZM37.5 22H43.5C43.7652 22 44.0196 22.1054 44.2071 22.2929C44.3946 22.4804 44.5 22.7348 44.5 23C44.5 23.2652 44.3946 23.5196 44.2071 23.7071C44.0196 23.8946 43.7652 24 43.5 24H37.5C37.2348 24 36.9804 23.8946 36.7929 23.7071C36.6054 23.5196 36.5 23.2652 36.5 23C36.5 22.7348 36.6054 22.4804 36.7929 22.2929C36.9804 22.1054 37.2348 22 37.5 22Z" fill="#F2F7FC"/>
<path d="M17.96 51V42.48H21.668C22.052 42.48 22.404 42.56 22.724 42.72C23.044 42.88 23.32 43.092 23.552 43.356C23.792 43.62 23.976 43.916 24.104 44.244C24.24 44.572 24.308 44.908 24.308 45.252C24.308 45.628 24.24 45.988 24.104 46.332C23.968 46.676 23.772 46.972 23.516 47.22C23.268 47.468 22.976 47.648 22.64 47.76L24.644 51H23.132L21.284 48.036H19.304V51H17.96ZM19.304 46.848H21.656C21.904 46.848 22.124 46.776 22.316 46.632C22.508 46.488 22.66 46.296 22.772 46.056C22.884 45.808 22.94 45.54 22.94 45.252C22.94 44.956 22.876 44.692 22.748 44.46C22.62 44.22 22.452 44.028 22.244 43.884C22.044 43.74 21.824 43.668 21.584 43.668H19.304V46.848ZM28.3704 51.12C27.8824 51.12 27.4384 51.036 27.0384 50.868C26.6464 50.692 26.3064 50.456 26.0184 50.16C25.7304 49.856 25.5064 49.512 25.3464 49.128C25.1944 48.736 25.1184 48.32 25.1184 47.88C25.1184 47.288 25.2544 46.748 25.5264 46.26C25.7984 45.764 26.1784 45.368 26.6664 45.072C27.1544 44.768 27.7264 44.616 28.3824 44.616C29.0384 44.616 29.6024 44.768 30.0744 45.072C30.5544 45.368 30.9264 45.76 31.1904 46.248C31.4544 46.736 31.5864 47.26 31.5864 47.82C31.5864 47.916 31.5824 48.008 31.5744 48.096C31.5664 48.176 31.5584 48.244 31.5504 48.3H26.5224C26.5464 48.668 26.6464 48.992 26.8224 49.272C27.0064 49.544 27.2384 49.76 27.5184 49.92C27.7984 50.072 28.0984 50.148 28.4184 50.148C28.7704 50.148 29.1024 50.06 29.4144 49.884C29.7344 49.708 29.9504 49.476 30.0624 49.188L31.1904 49.512C31.0544 49.816 30.8464 50.092 30.5664 50.34C30.2944 50.58 29.9704 50.772 29.5944 50.916C29.2184 51.052 28.8104 51.12 28.3704 51.12ZM26.4864 47.424H30.2784C30.2544 47.064 30.1504 46.748 29.9664 46.476C29.7904 46.196 29.5624 45.98 29.2824 45.828C29.0104 45.668 28.7064 45.588 28.3704 45.588C28.0424 45.588 27.7384 45.668 27.4584 45.828C27.1864 45.98 26.9624 46.196 26.7864 46.476C26.6104 46.748 26.5104 47.064 26.4864 47.424ZM34.8951 51.12C34.3671 51.12 33.8671 51.036 33.3951 50.868C32.9231 50.692 32.5191 50.432 32.1831 50.088L32.6751 49.2C33.0351 49.52 33.3951 49.752 33.7551 49.896C34.1231 50.04 34.4871 50.112 34.8471 50.112C35.2151 50.112 35.5151 50.044 35.7471 49.908C35.9791 49.764 36.0951 49.556 36.0951 49.284C36.0951 49.084 36.0351 48.936 35.9151 48.84C35.7951 48.744 35.6191 48.66 35.3871 48.588C35.1631 48.516 34.8911 48.436 34.5711 48.348C34.1231 48.212 33.7471 48.072 33.4431 47.928C33.1391 47.776 32.9111 47.592 32.7591 47.376C32.6071 47.16 32.5311 46.884 32.5311 46.548C32.5311 46.14 32.6351 45.792 32.8431 45.504C33.0511 45.216 33.3391 44.996 33.7071 44.844C34.0831 44.692 34.5151 44.616 35.0031 44.616C35.4591 44.616 35.8791 44.688 36.2631 44.832C36.6551 44.968 36.9991 45.184 37.2951 45.48L36.7311 46.356C36.4511 46.1 36.1631 45.912 35.8671 45.792C35.5791 45.672 35.2671 45.612 34.9311 45.612C34.7391 45.612 34.5551 45.636 34.3791 45.684C34.2031 45.724 34.0551 45.804 33.9351 45.924C33.8231 46.036 33.7671 46.196 33.7671 46.404C33.7671 46.572 33.8151 46.708 33.9111 46.812C34.0071 46.916 34.1511 47.004 34.3431 47.076C34.5351 47.148 34.7711 47.228 35.0511 47.316C35.5391 47.46 35.9551 47.604 36.2991 47.748C36.6431 47.884 36.9071 48.064 37.0911 48.288C37.2831 48.504 37.3791 48.804 37.3791 49.188C37.3791 49.796 37.1511 50.272 36.6951 50.616C36.2471 50.952 35.6471 51.12 34.8951 51.12ZM38.4976 48.564V44.724H39.8176V48.3C39.8176 48.86 39.9176 49.284 40.1176 49.572C40.3256 49.852 40.6256 49.992 41.0176 49.992C41.2656 49.992 41.5056 49.94 41.7376 49.836C41.9776 49.732 42.1936 49.58 42.3856 49.38C42.5856 49.172 42.7456 48.924 42.8656 48.636V44.724H44.1856V49.512C44.1856 49.664 44.2136 49.772 44.2696 49.836C44.3256 49.9 44.4176 49.936 44.5456 49.944V51C44.4096 51.024 44.2976 51.04 44.2096 51.048C44.1216 51.056 44.0376 51.06 43.9576 51.06C43.7176 51.06 43.5176 50.996 43.3576 50.868C43.1976 50.732 43.1056 50.56 43.0816 50.352L43.0576 49.728C42.7776 50.184 42.4136 50.532 41.9656 50.772C41.5176 51.004 41.0256 51.12 40.4896 51.12C39.8336 51.12 39.3376 50.904 39.0016 50.472C38.6656 50.04 38.4976 49.404 38.4976 48.564ZM55.4701 51H54.1501V47.484C54.1501 46.9 54.0541 46.472 53.8621 46.2C53.6701 45.928 53.3901 45.792 53.0221 45.792C52.6541 45.792 52.3101 45.932 51.9901 46.212C51.6781 46.484 51.4581 46.84 51.3301 47.28V51H50.0101V47.484C50.0101 46.9 49.9141 46.472 49.7221 46.2C49.5301 45.928 49.2541 45.792 48.8941 45.792C48.5261 45.792 48.1821 45.928 47.8621 46.2C47.5501 46.472 47.3261 46.828 47.1901 47.268V51H45.8701V44.724H47.0701V45.984C47.3181 45.544 47.6421 45.208 48.0421 44.976C48.4501 44.736 48.9141 44.616 49.4341 44.616C49.9541 44.616 50.3621 44.752 50.6581 45.024C50.9621 45.296 51.1501 45.636 51.2221 46.044C51.4941 45.58 51.8261 45.228 52.2181 44.988C52.6181 44.74 53.0741 44.616 53.5861 44.616C53.9541 44.616 54.2621 44.684 54.5101 44.82C54.7581 44.956 54.9501 45.144 55.0861 45.384C55.2221 45.616 55.3181 45.888 55.3741 46.2C55.4381 46.504 55.4701 46.828 55.4701 47.172V51ZM59.8352 51.12C59.3472 51.12 58.9032 51.036 58.5032 50.868C58.1112 50.692 57.7712 50.456 57.4832 50.16C57.1952 49.856 56.9712 49.512 56.8112 49.128C56.6592 48.736 56.5832 48.32 56.5832 47.88C56.5832 47.288 56.7192 46.748 56.9912 46.26C57.2632 45.764 57.6432 45.368 58.1312 45.072C58.6192 44.768 59.1912 44.616 59.8472 44.616C60.5032 44.616 61.0672 44.768 61.5392 45.072C62.0192 45.368 62.3912 45.76 62.6552 46.248C62.9192 46.736 63.0512 47.26 63.0512 47.82C63.0512 47.916 63.0472 48.008 63.0392 48.096C63.0312 48.176 63.0232 48.244 63.0152 48.3H57.9872C58.0112 48.668 58.1112 48.992 58.2872 49.272C58.4712 49.544 58.7032 49.76 58.9832 49.92C59.2632 50.072 59.5632 50.148 59.8832 50.148C60.2352 50.148 60.5672 50.06 60.8792 49.884C61.1992 49.708 61.4152 49.476 61.5272 49.188L62.6552 49.512C62.5192 49.816 62.3112 50.092 62.0312 50.34C61.7592 50.58 61.4352 50.772 61.0592 50.916C60.6832 51.052 60.2752 51.12 59.8352 51.12ZM57.9512 47.424H61.7432C61.7192 47.064 61.6152 46.748 61.4312 46.476C61.2552 46.196 61.0272 45.98 60.7472 45.828C60.4752 45.668 60.1712 45.588 59.8352 45.588C59.5072 45.588 59.2032 45.668 58.9232 45.828C58.6512 45.98 58.4272 46.196 58.2512 46.476C58.0752 46.748 57.9752 47.064 57.9512 47.424Z" fill="#F2F7FC"/>
<defs>
<linearGradient id="paint0_linear_104_247" x1="5.98131" y1="20" x2="88.2312" y2="22.1352" gradientUnits="userSpaceOnUse">
<stop stop-color="#FF9C1A"/>
<stop offset="1" stop-color="#E80505"/>
</linearGradient>
</defs>
</svg>
