<svg width="296" height="62" viewBox="0 0 296 62" fill="none" xmlns="http://www.w3.org/2000/svg">
<rect width="60.0297" height="61.1873" rx="8.26855" fill="#F2F7FC"/>
<path d="M31.7503 32.0825H34.2308L35.2231 28.1136H31.7503V26.1291C31.7503 25.1071 31.7503 24.1447 33.7347 24.1447H35.2231V20.8108C34.8996 20.7681 33.6782 20.6719 32.3883 20.6719C29.6944 20.6719 27.7814 22.316 27.7814 25.3353V28.1136H24.8047V32.0825H27.7814V40.5164H31.7503V32.0825Z" fill="#1877F2"/>
<rect x="69.125" width="69.4558" height="61.1881" rx="8.26855" fill="#F2F7FC"/>
<rect x="93.9297" y="20.6719" width="19.8445" height="19.8453" rx="8.26855" fill="#F2F7FC"/>
<path d="M98.8895 24.8069C98.8892 25.2455 98.7148 25.666 98.4045 25.976C98.0942 26.286 97.6735 26.46 97.2349 26.4598C96.7963 26.4595 96.3758 26.2851 96.0658 25.9748C95.7558 25.6645 95.5818 25.2438 95.582 24.8052C95.5823 24.3666 95.7567 23.9461 96.067 23.6361C96.3773 23.3261 96.798 23.1521 97.2366 23.1523C97.6752 23.1526 98.0957 23.327 98.4057 23.6373C98.7157 23.9476 98.8897 24.3683 98.8895 24.8069ZM98.9391 27.6843H95.6316V38.0366H98.9391V27.6843ZM104.165 27.6843H100.874V38.0366H104.132V32.6041C104.132 29.5778 108.076 29.2967 108.076 32.6041V38.0366H111.342V31.4796C111.342 26.3779 105.504 26.5681 104.132 29.0735L104.165 27.6843Z" fill="#0077B5"/>
<rect x="147.676" width="69.7733" height="61.6614" rx="8.26855" fill="#F2F7FC"/>
<path d="M190.987 25.6053C190.356 25.8845 189.687 26.0678 189.002 26.1494C189.724 25.7171 190.264 25.037 190.522 24.236C189.844 24.6395 189.101 24.9223 188.327 25.0753C187.806 24.5185 187.116 24.1492 186.364 24.0248C185.612 23.9005 184.841 24.0281 184.169 24.3877C183.497 24.7474 182.962 25.319 182.649 26.0136C182.335 26.7083 182.26 27.4871 182.434 28.2289C181.059 28.1601 179.714 27.8029 178.486 27.1804C177.258 26.5578 176.175 25.684 175.306 24.6156C174.999 25.1435 174.837 25.7436 174.838 26.3544C174.838 27.5534 175.449 28.6126 176.376 29.2327C175.827 29.2154 175.29 29.0671 174.81 28.8003V28.8424C174.81 29.6411 175.086 30.4151 175.592 31.0333C176.097 31.6515 176.801 32.0758 177.584 32.2342C177.074 32.3725 176.54 32.3928 176.021 32.2937C176.242 32.9812 176.672 33.5824 177.252 34.0131C177.831 34.4438 178.531 34.6825 179.253 34.6958C178.535 35.2592 177.714 35.6757 176.835 35.9215C175.957 36.1672 175.038 36.2373 174.133 36.1279C175.714 37.1444 177.554 37.6841 179.433 37.6824C185.795 37.6824 189.273 32.4128 189.273 27.8428C189.273 27.6939 189.269 27.5435 189.263 27.3955C189.939 26.9062 190.523 26.2995 190.987 25.6053Z" fill="#1DA1F2"/>
<rect x="226.547" width="69.455" height="60.7789" rx="8.26855" fill="#F2F7FC"/>
<path d="M261.272 22.3262C256.704 22.3262 253.004 26.0263 253.004 30.5947C253.003 32.3304 253.548 34.0224 254.563 35.4305C255.578 36.8387 257.01 37.8916 258.657 38.4399C259.071 38.5119 259.226 38.2638 259.226 38.0463C259.226 37.8504 259.215 37.1996 259.215 36.5067C257.138 36.8896 256.601 36.0007 256.435 35.5352C256.342 35.297 255.939 34.5636 255.588 34.3668C255.298 34.2122 254.885 33.8294 255.577 33.8195C256.229 33.8087 256.693 34.4189 256.849 34.667C257.593 35.9172 258.781 35.5658 259.257 35.3491C259.329 34.8117 259.546 34.4503 259.784 34.2436C257.944 34.0369 256.022 33.3233 256.022 30.1606C256.022 29.261 256.342 28.5177 256.869 27.938C256.787 27.7313 256.497 26.8838 256.952 25.7469C256.952 25.7469 257.644 25.5302 259.226 26.5952C259.899 26.4084 260.595 26.3144 261.293 26.3157C261.996 26.3157 262.699 26.4084 263.36 26.5944C264.942 25.5195 265.634 25.7477 265.634 25.7477C266.089 26.8846 265.799 27.7321 265.717 27.9389C266.244 28.5177 266.564 29.2511 266.564 30.1606C266.564 33.3341 264.632 34.0369 262.791 34.2436C263.092 34.5016 263.35 34.9977 263.35 35.7733C263.35 36.8788 263.34 37.7677 263.34 38.0472C263.34 38.2638 263.495 38.5218 263.908 38.4391C265.55 37.8848 266.976 36.8298 267.986 35.4227C268.996 34.0155 269.54 32.327 269.54 30.5947C269.54 26.0263 265.84 22.3262 261.272 22.3262H261.272Z" fill="#0B0909"/>
</svg>
