<svg width="101" height="40" viewBox="0 0 101 40" fill="none" xmlns="http://www.w3.org/2000/svg">
<path d="M36 17.484C35.92 17.396 35.804 17.304 35.652 17.208C35.5 17.104 35.32 17.008 35.112 16.92C34.904 16.832 34.68 16.76 34.44 16.704C34.2 16.648 33.952 16.62 33.696 16.62C33.136 16.62 32.72 16.724 32.448 16.932C32.176 17.14 32.04 17.428 32.04 17.796C32.04 18.068 32.116 18.284 32.268 18.444C32.42 18.596 32.652 18.724 32.964 18.828C33.276 18.932 33.668 19.044 34.14 19.164C34.716 19.3 35.216 19.464 35.64 19.656C36.064 19.84 36.388 20.088 36.612 20.4C36.836 20.712 36.948 21.124 36.948 21.636C36.948 22.068 36.868 22.44 36.708 22.752C36.548 23.064 36.324 23.32 36.036 23.52C35.748 23.712 35.416 23.856 35.04 23.952C34.664 24.04 34.26 24.084 33.828 24.084C33.404 24.084 32.98 24.04 32.556 23.952C32.14 23.864 31.74 23.736 31.356 23.568C30.98 23.392 30.632 23.18 30.312 22.932L30.924 21.78C31.028 21.884 31.176 22 31.368 22.128C31.568 22.248 31.796 22.364 32.052 22.476C32.316 22.588 32.6 22.684 32.904 22.764C33.216 22.836 33.532 22.872 33.852 22.872C34.388 22.872 34.796 22.78 35.076 22.596C35.364 22.404 35.508 22.132 35.508 21.78C35.508 21.492 35.416 21.264 35.232 21.096C35.048 20.92 34.78 20.772 34.428 20.652C34.076 20.532 33.656 20.412 33.168 20.292C32.608 20.14 32.14 19.976 31.764 19.8C31.388 19.616 31.104 19.384 30.912 19.104C30.728 18.816 30.636 18.452 30.636 18.012C30.636 17.452 30.772 16.98 31.044 16.596C31.316 16.204 31.684 15.912 32.148 15.72C32.62 15.52 33.148 15.42 33.732 15.42C34.116 15.42 34.48 15.464 34.824 15.552C35.168 15.632 35.488 15.744 35.784 15.888C36.088 16.032 36.364 16.196 36.612 16.38L36 17.484ZM38.0562 21.564V17.724H39.3762V21.3C39.3762 21.86 39.4762 22.284 39.6762 22.572C39.8842 22.852 40.1842 22.992 40.5762 22.992C40.8242 22.992 41.0642 22.94 41.2962 22.836C41.5362 22.732 41.7522 22.58 41.9442 22.38C42.1442 22.172 42.3042 21.924 42.4242 21.636V17.724H43.7442V22.512C43.7442 22.664 43.7722 22.772 43.8282 22.836C43.8842 22.9 43.9762 22.936 44.1042 22.944V24C43.9682 24.024 43.8562 24.04 43.7682 24.048C43.6802 24.056 43.5962 24.06 43.5162 24.06C43.2762 24.06 43.0762 23.996 42.9162 23.868C42.7562 23.732 42.6642 23.56 42.6402 23.352L42.6162 22.728C42.3362 23.184 41.9722 23.532 41.5242 23.772C41.0762 24.004 40.5842 24.12 40.0482 24.12C39.3922 24.12 38.8962 23.904 38.5602 23.472C38.2242 23.04 38.0562 22.404 38.0562 21.564ZM48.8127 24.12C48.3327 24.12 47.8967 24.008 47.5047 23.784C47.1207 23.552 46.8167 23.244 46.5927 22.86V24H45.4287V15.24H46.7487V18.912C46.9967 18.512 47.3047 18.196 47.6727 17.964C48.0487 17.732 48.4887 17.616 48.9927 17.616C49.4087 17.616 49.7887 17.704 50.1327 17.88C50.4767 18.056 50.7687 18.296 51.0087 18.6C51.2567 18.904 51.4447 19.252 51.5727 19.644C51.7087 20.036 51.7767 20.452 51.7767 20.892C51.7767 21.332 51.7007 21.748 51.5487 22.14C51.4047 22.532 51.1967 22.876 50.9247 23.172C50.6527 23.468 50.3367 23.7 49.9767 23.868C49.6247 24.036 49.2367 24.12 48.8127 24.12ZM48.4647 22.992C48.7527 22.992 49.0167 22.936 49.2567 22.824C49.4967 22.704 49.7047 22.548 49.8807 22.356C50.0567 22.164 50.1887 21.94 50.2767 21.684C50.3727 21.428 50.4207 21.164 50.4207 20.892C50.4207 20.516 50.3407 20.164 50.1807 19.836C50.0287 19.508 49.8127 19.244 49.5327 19.044C49.2527 18.844 48.9287 18.744 48.5607 18.744C48.2967 18.744 48.0487 18.808 47.8167 18.936C47.5847 19.056 47.3767 19.22 47.1927 19.428C47.0167 19.628 46.8687 19.852 46.7487 20.1V21.756C46.7967 21.94 46.8807 22.108 47.0007 22.26C47.1207 22.404 47.2607 22.532 47.4207 22.644C47.5807 22.748 47.7527 22.832 47.9367 22.896C48.1207 22.96 48.2967 22.992 48.4647 22.992ZM62.5639 24H61.2439V20.484C61.2439 19.9 61.1479 19.472 60.9559 19.2C60.7639 18.928 60.4839 18.792 60.1159 18.792C59.7479 18.792 59.4039 18.932 59.0839 19.212C58.7719 19.484 58.5519 19.84 58.4239 20.28V24H57.1039V20.484C57.1039 19.9 57.0079 19.472 56.8159 19.2C56.6239 18.928 56.3479 18.792 55.9879 18.792C55.6199 18.792 55.2759 18.928 54.9559 19.2C54.6439 19.472 54.4199 19.828 54.2839 20.268V24H52.9639V17.724H54.1639V18.984C54.4119 18.544 54.7359 18.208 55.1359 17.976C55.5439 17.736 56.0079 17.616 56.5279 17.616C57.0479 17.616 57.4559 17.752 57.7519 18.024C58.0559 18.296 58.2439 18.636 58.3159 19.044C58.5879 18.58 58.9199 18.228 59.3119 17.988C59.7119 17.74 60.1679 17.616 60.6799 17.616C61.0479 17.616 61.3559 17.684 61.6039 17.82C61.8519 17.956 62.0439 18.144 62.1799 18.384C62.3159 18.616 62.4119 18.888 62.4679 19.2C62.5319 19.504 62.5639 19.828 62.5639 20.172V24ZM64.085 24V17.724H65.405V24H64.085ZM64.085 16.692V15.24H65.405V16.692H64.085ZM70.4832 23.676C70.3712 23.732 70.2312 23.792 70.0632 23.856C69.8952 23.92 69.7032 23.976 69.4872 24.024C69.2792 24.072 69.0632 24.096 68.8392 24.096C68.5672 24.096 68.3152 24.048 68.0832 23.952C67.8512 23.856 67.6632 23.704 67.5192 23.496C67.3832 23.28 67.3152 23.004 67.3152 22.668V18.744H66.4872V17.724H67.3152V15.66H68.6352V17.724H70.0032V18.744H68.6352V22.248C68.6512 22.464 68.7192 22.624 68.8392 22.728C68.9672 22.832 69.1232 22.884 69.3072 22.884C69.4912 22.884 69.6672 22.852 69.8352 22.788C70.0032 22.724 70.1272 22.672 70.2072 22.632L70.4832 23.676Z" fill="black"/>
<rect x="0.5" y="0.5" width="100" height="39" rx="19.5" stroke="url(#paint0_linear_125_585)"/>
<defs>
<linearGradient id="paint0_linear_125_585" x1="50.5" y1="0" x2="50.5" y2="40" gradientUnits="userSpaceOnUse">
<stop stop-color="#FD8A18"/>
<stop offset="1" stop-color="#EE2C0B"/>
</linearGradient>
</defs>
</svg>
